%TF.GenerationSoftware,KiCad,Pcbnew,9.0.5*%
%TF.CreationDate,2026-09-27T21:22:05+02:00*%
%TF.ProjectId,Dron,44726f6e-2e6b-4696-9361-645f70636258,rev?*%
%TF.SameCoordinates,Original*%
%TF.FileFunction,Legend,Top*%
%TF.FilePolarity,Positive*%
%FSLAX46Y46*%
G04 Gerber Fmt 4.6, Leading zero omitted, Abs format (unit mm)*
G04 Created by KiCad (PCBNEW 9.0.5) date 2026-09-27 21:22:05*
%MOMM*%
%LPD*%
G01*
G04 APERTURE LIST*
%ADD10C,0.150000*%
%ADD11C,0.100000*%
%ADD12C,0.000000*%
%ADD13C,0.120000*%
G04 APERTURE END LIST*
D10*
X155356200Y-75748935D02*
X155394295Y-75634649D01*
X155394295Y-75634649D02*
X155394295Y-75444173D01*
X155394295Y-75444173D02*
X155356200Y-75367982D01*
X155356200Y-75367982D02*
X155318104Y-75329887D01*
X155318104Y-75329887D02*
X155241914Y-75291792D01*
X155241914Y-75291792D02*
X155165723Y-75291792D01*
X155165723Y-75291792D02*
X155089533Y-75329887D01*
X155089533Y-75329887D02*
X155051438Y-75367982D01*
X155051438Y-75367982D02*
X155013342Y-75444173D01*
X155013342Y-75444173D02*
X154975247Y-75596554D01*
X154975247Y-75596554D02*
X154937152Y-75672744D01*
X154937152Y-75672744D02*
X154899057Y-75710839D01*
X154899057Y-75710839D02*
X154822866Y-75748935D01*
X154822866Y-75748935D02*
X154746676Y-75748935D01*
X154746676Y-75748935D02*
X154670485Y-75710839D01*
X154670485Y-75710839D02*
X154632390Y-75672744D01*
X154632390Y-75672744D02*
X154594295Y-75596554D01*
X154594295Y-75596554D02*
X154594295Y-75406077D01*
X154594295Y-75406077D02*
X154632390Y-75291792D01*
X155394295Y-74948934D02*
X154594295Y-74948934D01*
X154594295Y-74948934D02*
X154594295Y-74644172D01*
X154594295Y-74644172D02*
X154632390Y-74567982D01*
X154632390Y-74567982D02*
X154670485Y-74529887D01*
X154670485Y-74529887D02*
X154746676Y-74491791D01*
X154746676Y-74491791D02*
X154860961Y-74491791D01*
X154860961Y-74491791D02*
X154937152Y-74529887D01*
X154937152Y-74529887D02*
X154975247Y-74567982D01*
X154975247Y-74567982D02*
X155013342Y-74644172D01*
X155013342Y-74644172D02*
X155013342Y-74948934D01*
X155394295Y-74148934D02*
X154594295Y-74148934D01*
X155470485Y-73958459D02*
X155470485Y-73348935D01*
X155394295Y-73158458D02*
X154594295Y-73158458D01*
X155394295Y-72777506D02*
X154594295Y-72777506D01*
X154594295Y-72777506D02*
X155165723Y-72510840D01*
X155165723Y-72510840D02*
X154594295Y-72244173D01*
X154594295Y-72244173D02*
X155394295Y-72244173D01*
X154594295Y-71863220D02*
X155241914Y-71863220D01*
X155241914Y-71863220D02*
X155318104Y-71825125D01*
X155318104Y-71825125D02*
X155356200Y-71787030D01*
X155356200Y-71787030D02*
X155394295Y-71710839D01*
X155394295Y-71710839D02*
X155394295Y-71558458D01*
X155394295Y-71558458D02*
X155356200Y-71482268D01*
X155356200Y-71482268D02*
X155318104Y-71444173D01*
X155318104Y-71444173D02*
X155241914Y-71406077D01*
X155241914Y-71406077D02*
X154594295Y-71406077D01*
X182046042Y-74583013D02*
X182007947Y-74659203D01*
X182007947Y-74659203D02*
X182007947Y-74773489D01*
X182007947Y-74773489D02*
X182046042Y-74887775D01*
X182046042Y-74887775D02*
X182122232Y-74963965D01*
X182122232Y-74963965D02*
X182198423Y-75002060D01*
X182198423Y-75002060D02*
X182350804Y-75040156D01*
X182350804Y-75040156D02*
X182465090Y-75040156D01*
X182465090Y-75040156D02*
X182617471Y-75002060D01*
X182617471Y-75002060D02*
X182693661Y-74963965D01*
X182693661Y-74963965D02*
X182769852Y-74887775D01*
X182769852Y-74887775D02*
X182807947Y-74773489D01*
X182807947Y-74773489D02*
X182807947Y-74697298D01*
X182807947Y-74697298D02*
X182769852Y-74583013D01*
X182769852Y-74583013D02*
X182731756Y-74544917D01*
X182731756Y-74544917D02*
X182465090Y-74544917D01*
X182465090Y-74544917D02*
X182465090Y-74697298D01*
X182807947Y-74202060D02*
X182007947Y-74202060D01*
X182007947Y-74202060D02*
X182807947Y-73744917D01*
X182807947Y-73744917D02*
X182007947Y-73744917D01*
X182807947Y-73363965D02*
X182007947Y-73363965D01*
X182007947Y-73363965D02*
X182007947Y-73173489D01*
X182007947Y-73173489D02*
X182046042Y-73059203D01*
X182046042Y-73059203D02*
X182122232Y-72983013D01*
X182122232Y-72983013D02*
X182198423Y-72944918D01*
X182198423Y-72944918D02*
X182350804Y-72906822D01*
X182350804Y-72906822D02*
X182465090Y-72906822D01*
X182465090Y-72906822D02*
X182617471Y-72944918D01*
X182617471Y-72944918D02*
X182693661Y-72983013D01*
X182693661Y-72983013D02*
X182769852Y-73059203D01*
X182769852Y-73059203D02*
X182807947Y-73173489D01*
X182807947Y-73173489D02*
X182807947Y-73363965D01*
X155851068Y-55938269D02*
X155965354Y-55976364D01*
X155965354Y-55976364D02*
X156155830Y-55976364D01*
X156155830Y-55976364D02*
X156232021Y-55938269D01*
X156232021Y-55938269D02*
X156270116Y-55900173D01*
X156270116Y-55900173D02*
X156308211Y-55823983D01*
X156308211Y-55823983D02*
X156308211Y-55747792D01*
X156308211Y-55747792D02*
X156270116Y-55671602D01*
X156270116Y-55671602D02*
X156232021Y-55633507D01*
X156232021Y-55633507D02*
X156155830Y-55595411D01*
X156155830Y-55595411D02*
X156003449Y-55557316D01*
X156003449Y-55557316D02*
X155927259Y-55519221D01*
X155927259Y-55519221D02*
X155889164Y-55481126D01*
X155889164Y-55481126D02*
X155851068Y-55404935D01*
X155851068Y-55404935D02*
X155851068Y-55328745D01*
X155851068Y-55328745D02*
X155889164Y-55252554D01*
X155889164Y-55252554D02*
X155927259Y-55214459D01*
X155927259Y-55214459D02*
X156003449Y-55176364D01*
X156003449Y-55176364D02*
X156193926Y-55176364D01*
X156193926Y-55176364D02*
X156308211Y-55214459D01*
X156651069Y-55976364D02*
X156651069Y-55176364D01*
X156651069Y-55176364D02*
X156955831Y-55176364D01*
X156955831Y-55176364D02*
X157032021Y-55214459D01*
X157032021Y-55214459D02*
X157070116Y-55252554D01*
X157070116Y-55252554D02*
X157108212Y-55328745D01*
X157108212Y-55328745D02*
X157108212Y-55443030D01*
X157108212Y-55443030D02*
X157070116Y-55519221D01*
X157070116Y-55519221D02*
X157032021Y-55557316D01*
X157032021Y-55557316D02*
X156955831Y-55595411D01*
X156955831Y-55595411D02*
X156651069Y-55595411D01*
X157451069Y-55976364D02*
X157451069Y-55176364D01*
X157641545Y-56052554D02*
X158251068Y-56052554D01*
X158708211Y-55557316D02*
X158441545Y-55557316D01*
X158441545Y-55976364D02*
X158441545Y-55176364D01*
X158441545Y-55176364D02*
X158822497Y-55176364D01*
X159508211Y-55976364D02*
X159127259Y-55976364D01*
X159127259Y-55976364D02*
X159127259Y-55176364D01*
X159927259Y-55176364D02*
X160079640Y-55176364D01*
X160079640Y-55176364D02*
X160155830Y-55214459D01*
X160155830Y-55214459D02*
X160232021Y-55290649D01*
X160232021Y-55290649D02*
X160270116Y-55443030D01*
X160270116Y-55443030D02*
X160270116Y-55709697D01*
X160270116Y-55709697D02*
X160232021Y-55862078D01*
X160232021Y-55862078D02*
X160155830Y-55938269D01*
X160155830Y-55938269D02*
X160079640Y-55976364D01*
X160079640Y-55976364D02*
X159927259Y-55976364D01*
X159927259Y-55976364D02*
X159851068Y-55938269D01*
X159851068Y-55938269D02*
X159774878Y-55862078D01*
X159774878Y-55862078D02*
X159736782Y-55709697D01*
X159736782Y-55709697D02*
X159736782Y-55443030D01*
X159736782Y-55443030D02*
X159774878Y-55290649D01*
X159774878Y-55290649D02*
X159851068Y-55214459D01*
X159851068Y-55214459D02*
X159927259Y-55176364D01*
X160536782Y-55176364D02*
X160727258Y-55976364D01*
X160727258Y-55976364D02*
X160879639Y-55404935D01*
X160879639Y-55404935D02*
X161032020Y-55976364D01*
X161032020Y-55976364D02*
X161222497Y-55176364D01*
X147808741Y-55798720D02*
X147808741Y-56446339D01*
X147808741Y-56446339D02*
X147846836Y-56522529D01*
X147846836Y-56522529D02*
X147884931Y-56560625D01*
X147884931Y-56560625D02*
X147961122Y-56598720D01*
X147961122Y-56598720D02*
X148113503Y-56598720D01*
X148113503Y-56598720D02*
X148189693Y-56560625D01*
X148189693Y-56560625D02*
X148227788Y-56522529D01*
X148227788Y-56522529D02*
X148265884Y-56446339D01*
X148265884Y-56446339D02*
X148265884Y-55798720D01*
X148608740Y-56370148D02*
X148989693Y-56370148D01*
X148532550Y-56598720D02*
X148799217Y-55798720D01*
X148799217Y-55798720D02*
X149065883Y-56598720D01*
X149789693Y-56598720D02*
X149523026Y-56217767D01*
X149332550Y-56598720D02*
X149332550Y-55798720D01*
X149332550Y-55798720D02*
X149637312Y-55798720D01*
X149637312Y-55798720D02*
X149713502Y-55836815D01*
X149713502Y-55836815D02*
X149751597Y-55874910D01*
X149751597Y-55874910D02*
X149789693Y-55951101D01*
X149789693Y-55951101D02*
X149789693Y-56065386D01*
X149789693Y-56065386D02*
X149751597Y-56141577D01*
X149751597Y-56141577D02*
X149713502Y-56179672D01*
X149713502Y-56179672D02*
X149637312Y-56217767D01*
X149637312Y-56217767D02*
X149332550Y-56217767D01*
X150018264Y-55798720D02*
X150475407Y-55798720D01*
X150246835Y-56598720D02*
X150246835Y-55798720D01*
X139789160Y-56394295D02*
X139789160Y-55594295D01*
X140132016Y-55670485D02*
X140170112Y-55632390D01*
X140170112Y-55632390D02*
X140246302Y-55594295D01*
X140246302Y-55594295D02*
X140436778Y-55594295D01*
X140436778Y-55594295D02*
X140512969Y-55632390D01*
X140512969Y-55632390D02*
X140551064Y-55670485D01*
X140551064Y-55670485D02*
X140589159Y-55746676D01*
X140589159Y-55746676D02*
X140589159Y-55822866D01*
X140589159Y-55822866D02*
X140551064Y-55937152D01*
X140551064Y-55937152D02*
X140093921Y-56394295D01*
X140093921Y-56394295D02*
X140589159Y-56394295D01*
X141389160Y-56318104D02*
X141351064Y-56356200D01*
X141351064Y-56356200D02*
X141236779Y-56394295D01*
X141236779Y-56394295D02*
X141160588Y-56394295D01*
X141160588Y-56394295D02*
X141046302Y-56356200D01*
X141046302Y-56356200D02*
X140970112Y-56280009D01*
X140970112Y-56280009D02*
X140932017Y-56203819D01*
X140932017Y-56203819D02*
X140893921Y-56051438D01*
X140893921Y-56051438D02*
X140893921Y-55937152D01*
X140893921Y-55937152D02*
X140932017Y-55784771D01*
X140932017Y-55784771D02*
X140970112Y-55708580D01*
X140970112Y-55708580D02*
X141046302Y-55632390D01*
X141046302Y-55632390D02*
X141160588Y-55594295D01*
X141160588Y-55594295D02*
X141236779Y-55594295D01*
X141236779Y-55594295D02*
X141351064Y-55632390D01*
X141351064Y-55632390D02*
X141389160Y-55670485D01*
D11*
X177978418Y-63146173D02*
X178435561Y-63146173D01*
X177931791Y-64921574D02*
X178388934Y-64921574D01*
X178160362Y-65150145D02*
X178160362Y-64693002D01*
X178078628Y-68708646D02*
X178678628Y-68708646D01*
X178678628Y-68708646D02*
X178250057Y-68908646D01*
X178250057Y-68908646D02*
X178678628Y-69108646D01*
X178678628Y-69108646D02*
X178078628Y-69108646D01*
X178678628Y-69508645D02*
X178678628Y-69622931D01*
X178678628Y-69622931D02*
X178650057Y-69680074D01*
X178650057Y-69680074D02*
X178592914Y-69737217D01*
X178592914Y-69737217D02*
X178478628Y-69765788D01*
X178478628Y-69765788D02*
X178278628Y-69765788D01*
X178278628Y-69765788D02*
X178164342Y-69737217D01*
X178164342Y-69737217D02*
X178107200Y-69680074D01*
X178107200Y-69680074D02*
X178078628Y-69622931D01*
X178078628Y-69622931D02*
X178078628Y-69508645D01*
X178078628Y-69508645D02*
X178107200Y-69451503D01*
X178107200Y-69451503D02*
X178164342Y-69394360D01*
X178164342Y-69394360D02*
X178278628Y-69365788D01*
X178278628Y-69365788D02*
X178478628Y-69365788D01*
X178478628Y-69365788D02*
X178592914Y-69394360D01*
X178592914Y-69394360D02*
X178650057Y-69451503D01*
X178650057Y-69451503D02*
X178678628Y-69508645D01*
X178678628Y-69937216D02*
X178678628Y-70280074D01*
X178078628Y-70108645D02*
X178678628Y-70108645D01*
X178678628Y-70594359D02*
X178678628Y-70708645D01*
X178678628Y-70708645D02*
X178650057Y-70765788D01*
X178650057Y-70765788D02*
X178592914Y-70822931D01*
X178592914Y-70822931D02*
X178478628Y-70851502D01*
X178478628Y-70851502D02*
X178278628Y-70851502D01*
X178278628Y-70851502D02*
X178164342Y-70822931D01*
X178164342Y-70822931D02*
X178107200Y-70765788D01*
X178107200Y-70765788D02*
X178078628Y-70708645D01*
X178078628Y-70708645D02*
X178078628Y-70594359D01*
X178078628Y-70594359D02*
X178107200Y-70537217D01*
X178107200Y-70537217D02*
X178164342Y-70480074D01*
X178164342Y-70480074D02*
X178278628Y-70451502D01*
X178278628Y-70451502D02*
X178478628Y-70451502D01*
X178478628Y-70451502D02*
X178592914Y-70480074D01*
X178592914Y-70480074D02*
X178650057Y-70537217D01*
X178650057Y-70537217D02*
X178678628Y-70594359D01*
X178078628Y-71451502D02*
X178364342Y-71251502D01*
X178078628Y-71108645D02*
X178678628Y-71108645D01*
X178678628Y-71108645D02*
X178678628Y-71337216D01*
X178678628Y-71337216D02*
X178650057Y-71394359D01*
X178650057Y-71394359D02*
X178621485Y-71422930D01*
X178621485Y-71422930D02*
X178564342Y-71451502D01*
X178564342Y-71451502D02*
X178478628Y-71451502D01*
X178478628Y-71451502D02*
X178421485Y-71422930D01*
X178421485Y-71422930D02*
X178392914Y-71394359D01*
X178392914Y-71394359D02*
X178364342Y-71337216D01*
X178364342Y-71337216D02*
X178364342Y-71108645D01*
X178107200Y-71680073D02*
X178078628Y-71765788D01*
X178078628Y-71765788D02*
X178078628Y-71908645D01*
X178078628Y-71908645D02*
X178107200Y-71965788D01*
X178107200Y-71965788D02*
X178135771Y-71994359D01*
X178135771Y-71994359D02*
X178192914Y-72022930D01*
X178192914Y-72022930D02*
X178250057Y-72022930D01*
X178250057Y-72022930D02*
X178307200Y-71994359D01*
X178307200Y-71994359D02*
X178335771Y-71965788D01*
X178335771Y-71965788D02*
X178364342Y-71908645D01*
X178364342Y-71908645D02*
X178392914Y-71794359D01*
X178392914Y-71794359D02*
X178421485Y-71737216D01*
X178421485Y-71737216D02*
X178450057Y-71708645D01*
X178450057Y-71708645D02*
X178507200Y-71680073D01*
X178507200Y-71680073D02*
X178564342Y-71680073D01*
X178564342Y-71680073D02*
X178621485Y-71708645D01*
X178621485Y-71708645D02*
X178650057Y-71737216D01*
X178650057Y-71737216D02*
X178678628Y-71794359D01*
X178678628Y-71794359D02*
X178678628Y-71937216D01*
X178678628Y-71937216D02*
X178650057Y-72022930D01*
X178078628Y-73051502D02*
X178078628Y-72708645D01*
X178078628Y-72880074D02*
X178678628Y-72880074D01*
X178678628Y-72880074D02*
X178592914Y-72822931D01*
X178592914Y-72822931D02*
X178535771Y-72765788D01*
X178535771Y-72765788D02*
X178507200Y-72708645D01*
X178307200Y-73308646D02*
X178307200Y-73765789D01*
X178478628Y-74051503D02*
X178307200Y-74508646D01*
X178307200Y-74508646D02*
X178135771Y-74051503D01*
X178478628Y-75051503D02*
X178078628Y-75051503D01*
X178707200Y-74908645D02*
X178278628Y-74765788D01*
X178278628Y-74765788D02*
X178278628Y-75137217D01*
X151754275Y-75308026D02*
X151782847Y-75336598D01*
X151782847Y-75336598D02*
X151811418Y-75422312D01*
X151811418Y-75422312D02*
X151811418Y-75479455D01*
X151811418Y-75479455D02*
X151782847Y-75565169D01*
X151782847Y-75565169D02*
X151725704Y-75622312D01*
X151725704Y-75622312D02*
X151668561Y-75650883D01*
X151668561Y-75650883D02*
X151554275Y-75679455D01*
X151554275Y-75679455D02*
X151468561Y-75679455D01*
X151468561Y-75679455D02*
X151354275Y-75650883D01*
X151354275Y-75650883D02*
X151297132Y-75622312D01*
X151297132Y-75622312D02*
X151239989Y-75565169D01*
X151239989Y-75565169D02*
X151211418Y-75479455D01*
X151211418Y-75479455D02*
X151211418Y-75422312D01*
X151211418Y-75422312D02*
X151239989Y-75336598D01*
X151239989Y-75336598D02*
X151268561Y-75308026D01*
X151811418Y-74765169D02*
X151811418Y-75050883D01*
X151811418Y-75050883D02*
X151211418Y-75050883D01*
X151811418Y-74565169D02*
X151211418Y-74565169D01*
X151811418Y-74222312D02*
X151468561Y-74479455D01*
X151211418Y-74222312D02*
X151554275Y-74565169D01*
X151775529Y-73856433D02*
X151175529Y-73856433D01*
X151175529Y-73856433D02*
X151604100Y-73656433D01*
X151604100Y-73656433D02*
X151175529Y-73456433D01*
X151175529Y-73456433D02*
X151775529Y-73456433D01*
X151175529Y-73056434D02*
X151175529Y-72942148D01*
X151175529Y-72942148D02*
X151204100Y-72885005D01*
X151204100Y-72885005D02*
X151261243Y-72827862D01*
X151261243Y-72827862D02*
X151375529Y-72799291D01*
X151375529Y-72799291D02*
X151575529Y-72799291D01*
X151575529Y-72799291D02*
X151689815Y-72827862D01*
X151689815Y-72827862D02*
X151746958Y-72885005D01*
X151746958Y-72885005D02*
X151775529Y-72942148D01*
X151775529Y-72942148D02*
X151775529Y-73056434D01*
X151775529Y-73056434D02*
X151746958Y-73113577D01*
X151746958Y-73113577D02*
X151689815Y-73170719D01*
X151689815Y-73170719D02*
X151575529Y-73199291D01*
X151575529Y-73199291D02*
X151375529Y-73199291D01*
X151375529Y-73199291D02*
X151261243Y-73170719D01*
X151261243Y-73170719D02*
X151204100Y-73113577D01*
X151204100Y-73113577D02*
X151175529Y-73056434D01*
X151746958Y-72570720D02*
X151775529Y-72485006D01*
X151775529Y-72485006D02*
X151775529Y-72342148D01*
X151775529Y-72342148D02*
X151746958Y-72285006D01*
X151746958Y-72285006D02*
X151718386Y-72256434D01*
X151718386Y-72256434D02*
X151661243Y-72227863D01*
X151661243Y-72227863D02*
X151604100Y-72227863D01*
X151604100Y-72227863D02*
X151546958Y-72256434D01*
X151546958Y-72256434D02*
X151518386Y-72285006D01*
X151518386Y-72285006D02*
X151489815Y-72342148D01*
X151489815Y-72342148D02*
X151461243Y-72456434D01*
X151461243Y-72456434D02*
X151432672Y-72513577D01*
X151432672Y-72513577D02*
X151404100Y-72542148D01*
X151404100Y-72542148D02*
X151346958Y-72570720D01*
X151346958Y-72570720D02*
X151289815Y-72570720D01*
X151289815Y-72570720D02*
X151232672Y-72542148D01*
X151232672Y-72542148D02*
X151204100Y-72513577D01*
X151204100Y-72513577D02*
X151175529Y-72456434D01*
X151175529Y-72456434D02*
X151175529Y-72313577D01*
X151175529Y-72313577D02*
X151204100Y-72227863D01*
X151775529Y-71970719D02*
X151175529Y-71970719D01*
X151689395Y-71150403D02*
X151089395Y-71150403D01*
X151089395Y-71150403D02*
X151517966Y-70950403D01*
X151517966Y-70950403D02*
X151089395Y-70750403D01*
X151089395Y-70750403D02*
X151689395Y-70750403D01*
X151689395Y-70464689D02*
X151089395Y-70464689D01*
X151660824Y-70207547D02*
X151689395Y-70121833D01*
X151689395Y-70121833D02*
X151689395Y-69978975D01*
X151689395Y-69978975D02*
X151660824Y-69921833D01*
X151660824Y-69921833D02*
X151632252Y-69893261D01*
X151632252Y-69893261D02*
X151575109Y-69864690D01*
X151575109Y-69864690D02*
X151517966Y-69864690D01*
X151517966Y-69864690D02*
X151460824Y-69893261D01*
X151460824Y-69893261D02*
X151432252Y-69921833D01*
X151432252Y-69921833D02*
X151403681Y-69978975D01*
X151403681Y-69978975D02*
X151375109Y-70093261D01*
X151375109Y-70093261D02*
X151346538Y-70150404D01*
X151346538Y-70150404D02*
X151317966Y-70178975D01*
X151317966Y-70178975D02*
X151260824Y-70207547D01*
X151260824Y-70207547D02*
X151203681Y-70207547D01*
X151203681Y-70207547D02*
X151146538Y-70178975D01*
X151146538Y-70178975D02*
X151117966Y-70150404D01*
X151117966Y-70150404D02*
X151089395Y-70093261D01*
X151089395Y-70093261D02*
X151089395Y-69950404D01*
X151089395Y-69950404D02*
X151117966Y-69864690D01*
X151089395Y-69493261D02*
X151089395Y-69378975D01*
X151089395Y-69378975D02*
X151117966Y-69321832D01*
X151117966Y-69321832D02*
X151175109Y-69264689D01*
X151175109Y-69264689D02*
X151289395Y-69236118D01*
X151289395Y-69236118D02*
X151489395Y-69236118D01*
X151489395Y-69236118D02*
X151603681Y-69264689D01*
X151603681Y-69264689D02*
X151660824Y-69321832D01*
X151660824Y-69321832D02*
X151689395Y-69378975D01*
X151689395Y-69378975D02*
X151689395Y-69493261D01*
X151689395Y-69493261D02*
X151660824Y-69550404D01*
X151660824Y-69550404D02*
X151603681Y-69607546D01*
X151603681Y-69607546D02*
X151489395Y-69636118D01*
X151489395Y-69636118D02*
X151289395Y-69636118D01*
X151289395Y-69636118D02*
X151175109Y-69607546D01*
X151175109Y-69607546D02*
X151117966Y-69550404D01*
X151117966Y-69550404D02*
X151089395Y-69493261D01*
X151653786Y-68352738D02*
X151682358Y-68381310D01*
X151682358Y-68381310D02*
X151710929Y-68467024D01*
X151710929Y-68467024D02*
X151710929Y-68524167D01*
X151710929Y-68524167D02*
X151682358Y-68609881D01*
X151682358Y-68609881D02*
X151625215Y-68667024D01*
X151625215Y-68667024D02*
X151568072Y-68695595D01*
X151568072Y-68695595D02*
X151453786Y-68724167D01*
X151453786Y-68724167D02*
X151368072Y-68724167D01*
X151368072Y-68724167D02*
X151253786Y-68695595D01*
X151253786Y-68695595D02*
X151196643Y-68667024D01*
X151196643Y-68667024D02*
X151139500Y-68609881D01*
X151139500Y-68609881D02*
X151110929Y-68524167D01*
X151110929Y-68524167D02*
X151110929Y-68467024D01*
X151110929Y-68467024D02*
X151139500Y-68381310D01*
X151139500Y-68381310D02*
X151168072Y-68352738D01*
X151682358Y-68124167D02*
X151710929Y-68038453D01*
X151710929Y-68038453D02*
X151710929Y-67895595D01*
X151710929Y-67895595D02*
X151682358Y-67838453D01*
X151682358Y-67838453D02*
X151653786Y-67809881D01*
X151653786Y-67809881D02*
X151596643Y-67781310D01*
X151596643Y-67781310D02*
X151539500Y-67781310D01*
X151539500Y-67781310D02*
X151482358Y-67809881D01*
X151482358Y-67809881D02*
X151453786Y-67838453D01*
X151453786Y-67838453D02*
X151425215Y-67895595D01*
X151425215Y-67895595D02*
X151396643Y-68009881D01*
X151396643Y-68009881D02*
X151368072Y-68067024D01*
X151368072Y-68067024D02*
X151339500Y-68095595D01*
X151339500Y-68095595D02*
X151282358Y-68124167D01*
X151282358Y-68124167D02*
X151225215Y-68124167D01*
X151225215Y-68124167D02*
X151168072Y-68095595D01*
X151168072Y-68095595D02*
X151139500Y-68067024D01*
X151139500Y-68067024D02*
X151110929Y-68009881D01*
X151110929Y-68009881D02*
X151110929Y-67867024D01*
X151110929Y-67867024D02*
X151139500Y-67781310D01*
X162477439Y-52182497D02*
X162448867Y-52211069D01*
X162448867Y-52211069D02*
X162363153Y-52239640D01*
X162363153Y-52239640D02*
X162306010Y-52239640D01*
X162306010Y-52239640D02*
X162220296Y-52211069D01*
X162220296Y-52211069D02*
X162163153Y-52153926D01*
X162163153Y-52153926D02*
X162134582Y-52096783D01*
X162134582Y-52096783D02*
X162106010Y-51982497D01*
X162106010Y-51982497D02*
X162106010Y-51896783D01*
X162106010Y-51896783D02*
X162134582Y-51782497D01*
X162134582Y-51782497D02*
X162163153Y-51725354D01*
X162163153Y-51725354D02*
X162220296Y-51668211D01*
X162220296Y-51668211D02*
X162306010Y-51639640D01*
X162306010Y-51639640D02*
X162363153Y-51639640D01*
X162363153Y-51639640D02*
X162448867Y-51668211D01*
X162448867Y-51668211D02*
X162477439Y-51696783D01*
X162706010Y-52211069D02*
X162791725Y-52239640D01*
X162791725Y-52239640D02*
X162934582Y-52239640D01*
X162934582Y-52239640D02*
X162991725Y-52211069D01*
X162991725Y-52211069D02*
X163020296Y-52182497D01*
X163020296Y-52182497D02*
X163048867Y-52125354D01*
X163048867Y-52125354D02*
X163048867Y-52068211D01*
X163048867Y-52068211D02*
X163020296Y-52011069D01*
X163020296Y-52011069D02*
X162991725Y-51982497D01*
X162991725Y-51982497D02*
X162934582Y-51953926D01*
X162934582Y-51953926D02*
X162820296Y-51925354D01*
X162820296Y-51925354D02*
X162763153Y-51896783D01*
X162763153Y-51896783D02*
X162734582Y-51868211D01*
X162734582Y-51868211D02*
X162706010Y-51811069D01*
X162706010Y-51811069D02*
X162706010Y-51753926D01*
X162706010Y-51753926D02*
X162734582Y-51696783D01*
X162734582Y-51696783D02*
X162763153Y-51668211D01*
X162763153Y-51668211D02*
X162820296Y-51639640D01*
X162820296Y-51639640D02*
X162963153Y-51639640D01*
X162963153Y-51639640D02*
X163048867Y-51668211D01*
X159658241Y-52218106D02*
X159658241Y-51618106D01*
X159658241Y-51618106D02*
X159858241Y-52046677D01*
X159858241Y-52046677D02*
X160058241Y-51618106D01*
X160058241Y-51618106D02*
X160058241Y-52218106D01*
X160343955Y-52218106D02*
X160343955Y-51618106D01*
X160601097Y-52189535D02*
X160686812Y-52218106D01*
X160686812Y-52218106D02*
X160829669Y-52218106D01*
X160829669Y-52218106D02*
X160886812Y-52189535D01*
X160886812Y-52189535D02*
X160915383Y-52160963D01*
X160915383Y-52160963D02*
X160943954Y-52103820D01*
X160943954Y-52103820D02*
X160943954Y-52046677D01*
X160943954Y-52046677D02*
X160915383Y-51989535D01*
X160915383Y-51989535D02*
X160886812Y-51960963D01*
X160886812Y-51960963D02*
X160829669Y-51932392D01*
X160829669Y-51932392D02*
X160715383Y-51903820D01*
X160715383Y-51903820D02*
X160658240Y-51875249D01*
X160658240Y-51875249D02*
X160629669Y-51846677D01*
X160629669Y-51846677D02*
X160601097Y-51789535D01*
X160601097Y-51789535D02*
X160601097Y-51732392D01*
X160601097Y-51732392D02*
X160629669Y-51675249D01*
X160629669Y-51675249D02*
X160658240Y-51646677D01*
X160658240Y-51646677D02*
X160715383Y-51618106D01*
X160715383Y-51618106D02*
X160858240Y-51618106D01*
X160858240Y-51618106D02*
X160943954Y-51646677D01*
X161315383Y-51618106D02*
X161429669Y-51618106D01*
X161429669Y-51618106D02*
X161486812Y-51646677D01*
X161486812Y-51646677D02*
X161543955Y-51703820D01*
X161543955Y-51703820D02*
X161572526Y-51818106D01*
X161572526Y-51818106D02*
X161572526Y-52018106D01*
X161572526Y-52018106D02*
X161543955Y-52132392D01*
X161543955Y-52132392D02*
X161486812Y-52189535D01*
X161486812Y-52189535D02*
X161429669Y-52218106D01*
X161429669Y-52218106D02*
X161315383Y-52218106D01*
X161315383Y-52218106D02*
X161258241Y-52189535D01*
X161258241Y-52189535D02*
X161201098Y-52132392D01*
X161201098Y-52132392D02*
X161172526Y-52018106D01*
X161172526Y-52018106D02*
X161172526Y-51818106D01*
X161172526Y-51818106D02*
X161201098Y-51703820D01*
X161201098Y-51703820D02*
X161258241Y-51646677D01*
X161258241Y-51646677D02*
X161315383Y-51618106D01*
X157224966Y-52246818D02*
X157224966Y-51646818D01*
X157224966Y-51646818D02*
X157424966Y-52075389D01*
X157424966Y-52075389D02*
X157624966Y-51646818D01*
X157624966Y-51646818D02*
X157624966Y-52246818D01*
X158024965Y-51646818D02*
X158139251Y-51646818D01*
X158139251Y-51646818D02*
X158196394Y-51675389D01*
X158196394Y-51675389D02*
X158253537Y-51732532D01*
X158253537Y-51732532D02*
X158282108Y-51846818D01*
X158282108Y-51846818D02*
X158282108Y-52046818D01*
X158282108Y-52046818D02*
X158253537Y-52161104D01*
X158253537Y-52161104D02*
X158196394Y-52218247D01*
X158196394Y-52218247D02*
X158139251Y-52246818D01*
X158139251Y-52246818D02*
X158024965Y-52246818D01*
X158024965Y-52246818D02*
X157967823Y-52218247D01*
X157967823Y-52218247D02*
X157910680Y-52161104D01*
X157910680Y-52161104D02*
X157882108Y-52046818D01*
X157882108Y-52046818D02*
X157882108Y-51846818D01*
X157882108Y-51846818D02*
X157910680Y-51732532D01*
X157910680Y-51732532D02*
X157967823Y-51675389D01*
X157967823Y-51675389D02*
X158024965Y-51646818D01*
X158510679Y-52218247D02*
X158596394Y-52246818D01*
X158596394Y-52246818D02*
X158739251Y-52246818D01*
X158739251Y-52246818D02*
X158796394Y-52218247D01*
X158796394Y-52218247D02*
X158824965Y-52189675D01*
X158824965Y-52189675D02*
X158853536Y-52132532D01*
X158853536Y-52132532D02*
X158853536Y-52075389D01*
X158853536Y-52075389D02*
X158824965Y-52018247D01*
X158824965Y-52018247D02*
X158796394Y-51989675D01*
X158796394Y-51989675D02*
X158739251Y-51961104D01*
X158739251Y-51961104D02*
X158624965Y-51932532D01*
X158624965Y-51932532D02*
X158567822Y-51903961D01*
X158567822Y-51903961D02*
X158539251Y-51875389D01*
X158539251Y-51875389D02*
X158510679Y-51818247D01*
X158510679Y-51818247D02*
X158510679Y-51761104D01*
X158510679Y-51761104D02*
X158539251Y-51703961D01*
X158539251Y-51703961D02*
X158567822Y-51675389D01*
X158567822Y-51675389D02*
X158624965Y-51646818D01*
X158624965Y-51646818D02*
X158767822Y-51646818D01*
X158767822Y-51646818D02*
X158853536Y-51675389D01*
X159110680Y-52246818D02*
X159110680Y-51646818D01*
X155593928Y-52204030D02*
X155565356Y-52232602D01*
X155565356Y-52232602D02*
X155479642Y-52261173D01*
X155479642Y-52261173D02*
X155422499Y-52261173D01*
X155422499Y-52261173D02*
X155336785Y-52232602D01*
X155336785Y-52232602D02*
X155279642Y-52175459D01*
X155279642Y-52175459D02*
X155251071Y-52118316D01*
X155251071Y-52118316D02*
X155222499Y-52004030D01*
X155222499Y-52004030D02*
X155222499Y-51918316D01*
X155222499Y-51918316D02*
X155251071Y-51804030D01*
X155251071Y-51804030D02*
X155279642Y-51746887D01*
X155279642Y-51746887D02*
X155336785Y-51689744D01*
X155336785Y-51689744D02*
X155422499Y-51661173D01*
X155422499Y-51661173D02*
X155479642Y-51661173D01*
X155479642Y-51661173D02*
X155565356Y-51689744D01*
X155565356Y-51689744D02*
X155593928Y-51718316D01*
X156136785Y-52261173D02*
X155851071Y-52261173D01*
X155851071Y-52261173D02*
X155851071Y-51661173D01*
X156336785Y-52261173D02*
X156336785Y-51661173D01*
X156679642Y-52261173D02*
X156422499Y-51918316D01*
X156679642Y-51661173D02*
X156336785Y-52004030D01*
X139051503Y-52364228D02*
X139022931Y-52392800D01*
X139022931Y-52392800D02*
X138937217Y-52421371D01*
X138937217Y-52421371D02*
X138880074Y-52421371D01*
X138880074Y-52421371D02*
X138794360Y-52392800D01*
X138794360Y-52392800D02*
X138737217Y-52335657D01*
X138737217Y-52335657D02*
X138708646Y-52278514D01*
X138708646Y-52278514D02*
X138680074Y-52164228D01*
X138680074Y-52164228D02*
X138680074Y-52078514D01*
X138680074Y-52078514D02*
X138708646Y-51964228D01*
X138708646Y-51964228D02*
X138737217Y-51907085D01*
X138737217Y-51907085D02*
X138794360Y-51849942D01*
X138794360Y-51849942D02*
X138880074Y-51821371D01*
X138880074Y-51821371D02*
X138937217Y-51821371D01*
X138937217Y-51821371D02*
X139022931Y-51849942D01*
X139022931Y-51849942D02*
X139051503Y-51878514D01*
X139594360Y-52421371D02*
X139308646Y-52421371D01*
X139308646Y-52421371D02*
X139308646Y-51821371D01*
X139794360Y-52421371D02*
X139794360Y-51821371D01*
X140137217Y-52421371D02*
X139880074Y-52078514D01*
X140137217Y-51821371D02*
X139794360Y-52164228D01*
X140680074Y-52392800D02*
X140765789Y-52421371D01*
X140765789Y-52421371D02*
X140908646Y-52421371D01*
X140908646Y-52421371D02*
X140965789Y-52392800D01*
X140965789Y-52392800D02*
X140994360Y-52364228D01*
X140994360Y-52364228D02*
X141022931Y-52307085D01*
X141022931Y-52307085D02*
X141022931Y-52249942D01*
X141022931Y-52249942D02*
X140994360Y-52192800D01*
X140994360Y-52192800D02*
X140965789Y-52164228D01*
X140965789Y-52164228D02*
X140908646Y-52135657D01*
X140908646Y-52135657D02*
X140794360Y-52107085D01*
X140794360Y-52107085D02*
X140737217Y-52078514D01*
X140737217Y-52078514D02*
X140708646Y-52049942D01*
X140708646Y-52049942D02*
X140680074Y-51992800D01*
X140680074Y-51992800D02*
X140680074Y-51935657D01*
X140680074Y-51935657D02*
X140708646Y-51878514D01*
X140708646Y-51878514D02*
X140737217Y-51849942D01*
X140737217Y-51849942D02*
X140794360Y-51821371D01*
X140794360Y-51821371D02*
X140937217Y-51821371D01*
X140937217Y-51821371D02*
X141022931Y-51849942D01*
X141280075Y-52421371D02*
X141280075Y-51821371D01*
X141280075Y-51821371D02*
X141422932Y-51821371D01*
X141422932Y-51821371D02*
X141508646Y-51849942D01*
X141508646Y-51849942D02*
X141565789Y-51907085D01*
X141565789Y-51907085D02*
X141594360Y-51964228D01*
X141594360Y-51964228D02*
X141622932Y-52078514D01*
X141622932Y-52078514D02*
X141622932Y-52164228D01*
X141622932Y-52164228D02*
X141594360Y-52278514D01*
X141594360Y-52278514D02*
X141565789Y-52335657D01*
X141565789Y-52335657D02*
X141508646Y-52392800D01*
X141508646Y-52392800D02*
X141422932Y-52421371D01*
X141422932Y-52421371D02*
X141280075Y-52421371D01*
X141851503Y-52249942D02*
X142137218Y-52249942D01*
X141794360Y-52421371D02*
X141994360Y-51821371D01*
X141994360Y-51821371D02*
X142194360Y-52421371D01*
X149500650Y-52234427D02*
X149500650Y-51634427D01*
X149500650Y-51634427D02*
X149643507Y-51634427D01*
X149643507Y-51634427D02*
X149729221Y-51662998D01*
X149729221Y-51662998D02*
X149786364Y-51720141D01*
X149786364Y-51720141D02*
X149814935Y-51777284D01*
X149814935Y-51777284D02*
X149843507Y-51891570D01*
X149843507Y-51891570D02*
X149843507Y-51977284D01*
X149843507Y-51977284D02*
X149814935Y-52091570D01*
X149814935Y-52091570D02*
X149786364Y-52148713D01*
X149786364Y-52148713D02*
X149729221Y-52205856D01*
X149729221Y-52205856D02*
X149643507Y-52234427D01*
X149643507Y-52234427D02*
X149500650Y-52234427D01*
X150043507Y-51634427D02*
X150443507Y-52234427D01*
X150443507Y-51634427D02*
X150043507Y-52234427D01*
X146787860Y-51634427D02*
X147130718Y-51634427D01*
X146959289Y-52234427D02*
X146959289Y-51634427D01*
X147273575Y-51634427D02*
X147673575Y-52234427D01*
X147673575Y-51634427D02*
X147273575Y-52234427D01*
D12*
G36*
X165761278Y-77634780D02*
G01*
X165766337Y-77635419D01*
X165775823Y-77637568D01*
X165785557Y-77640715D01*
X165805675Y-77649893D01*
X165826517Y-77662714D01*
X165847896Y-77678939D01*
X165869632Y-77698327D01*
X165891546Y-77720641D01*
X165913458Y-77745640D01*
X165935185Y-77773085D01*
X165956545Y-77802740D01*
X165977359Y-77834359D01*
X165997447Y-77867709D01*
X166016628Y-77902548D01*
X166034717Y-77938635D01*
X166051538Y-77975735D01*
X166066907Y-78013603D01*
X166080648Y-78052005D01*
X166094709Y-78104043D01*
X166104224Y-78159802D01*
X166109293Y-78218875D01*
X166110015Y-78280858D01*
X166106491Y-78345345D01*
X166098821Y-78411938D01*
X166087107Y-78480230D01*
X166071446Y-78549816D01*
X166051944Y-78620294D01*
X166028698Y-78691261D01*
X166001806Y-78762312D01*
X165971375Y-78833041D01*
X165937500Y-78903049D01*
X165900283Y-78971929D01*
X165859826Y-79039277D01*
X165816227Y-79104689D01*
X165809538Y-79114327D01*
X165803058Y-79124017D01*
X165796819Y-79133701D01*
X165790853Y-79143315D01*
X165785195Y-79152799D01*
X165779876Y-79162089D01*
X165774931Y-79171121D01*
X165770389Y-79179838D01*
X165766289Y-79188172D01*
X165762658Y-79196067D01*
X165759533Y-79203456D01*
X165756944Y-79210279D01*
X165754923Y-79216473D01*
X165753509Y-79221977D01*
X165752727Y-79226727D01*
X165752588Y-79228801D01*
X165752617Y-79230663D01*
X165753549Y-79235102D01*
X165755455Y-79240039D01*
X165758403Y-79245536D01*
X165762458Y-79251652D01*
X165767692Y-79258447D01*
X165774169Y-79265982D01*
X165791126Y-79283515D01*
X165813871Y-79304731D01*
X165842946Y-79330113D01*
X165878890Y-79360142D01*
X165922243Y-79395301D01*
X165969272Y-79434144D01*
X166010350Y-79469377D01*
X166047017Y-79502534D01*
X166080801Y-79535150D01*
X166113243Y-79568759D01*
X166145874Y-79604899D01*
X166180228Y-79645102D01*
X166217844Y-79690902D01*
X166243817Y-79722828D01*
X166268941Y-79752680D01*
X166292605Y-79779782D01*
X166314195Y-79803465D01*
X166324019Y-79813815D01*
X166333094Y-79823057D01*
X166341343Y-79831108D01*
X166348690Y-79837882D01*
X166355056Y-79843297D01*
X166360367Y-79847271D01*
X166364547Y-79849717D01*
X166366186Y-79850340D01*
X166367516Y-79850550D01*
X166370174Y-79850047D01*
X166374345Y-79848568D01*
X166386846Y-79842872D01*
X166404260Y-79833843D01*
X166425824Y-79821864D01*
X166450779Y-79807310D01*
X166478364Y-79790565D01*
X166507822Y-79772006D01*
X166538389Y-79752017D01*
X166586364Y-79722058D01*
X166634375Y-79693918D01*
X166682380Y-79667603D01*
X166730333Y-79643113D01*
X166778193Y-79620449D01*
X166825914Y-79599612D01*
X166873455Y-79580604D01*
X166920771Y-79563426D01*
X166967820Y-79548083D01*
X167014554Y-79534573D01*
X167060933Y-79522900D01*
X167106913Y-79513063D01*
X167152449Y-79505065D01*
X167197500Y-79498906D01*
X167242019Y-79494591D01*
X167285965Y-79492119D01*
X167329292Y-79491492D01*
X167371959Y-79492713D01*
X167413923Y-79495783D01*
X167455137Y-79500702D01*
X167495557Y-79507473D01*
X167535143Y-79516097D01*
X167573852Y-79526575D01*
X167611636Y-79538912D01*
X167648453Y-79553104D01*
X167684259Y-79569159D01*
X167719014Y-79587072D01*
X167752671Y-79606851D01*
X167785185Y-79628493D01*
X167816517Y-79652000D01*
X167846620Y-79677376D01*
X167875450Y-79704620D01*
X167929082Y-79758252D01*
X167867966Y-79819368D01*
X167855385Y-79831662D01*
X167843730Y-79842363D01*
X167832846Y-79851480D01*
X167827645Y-79855449D01*
X167822578Y-79859027D01*
X167817625Y-79862218D01*
X167812770Y-79865018D01*
X167807990Y-79867435D01*
X167803267Y-79869465D01*
X167798582Y-79871114D01*
X167793914Y-79872382D01*
X167789245Y-79873271D01*
X167784555Y-79873781D01*
X167779826Y-79873914D01*
X167775036Y-79873673D01*
X167770168Y-79873058D01*
X167765202Y-79872073D01*
X167760116Y-79870716D01*
X167754894Y-79868993D01*
X167749515Y-79866900D01*
X167743963Y-79864446D01*
X167732246Y-79858443D01*
X167719593Y-79851000D01*
X167705849Y-79842130D01*
X167690855Y-79831841D01*
X167673926Y-79820205D01*
X167655109Y-79808737D01*
X167634647Y-79797519D01*
X167612784Y-79786629D01*
X167589769Y-79776147D01*
X167565842Y-79766156D01*
X167541251Y-79756733D01*
X167516239Y-79747964D01*
X167491053Y-79739924D01*
X167465935Y-79732693D01*
X167441131Y-79726357D01*
X167416887Y-79720991D01*
X167393448Y-79716679D01*
X167371056Y-79713498D01*
X167349958Y-79711530D01*
X167330398Y-79710857D01*
X167293798Y-79711831D01*
X167256084Y-79714736D01*
X167217341Y-79719540D01*
X167177648Y-79726213D01*
X167137094Y-79734731D01*
X167095763Y-79745058D01*
X167053736Y-79757172D01*
X167011099Y-79771038D01*
X166967938Y-79786629D01*
X166924332Y-79803913D01*
X166880371Y-79822867D01*
X166836134Y-79843457D01*
X166791706Y-79865654D01*
X166747174Y-79889429D01*
X166702618Y-79914755D01*
X166658127Y-79941599D01*
X166629702Y-79959715D01*
X166604666Y-79976429D01*
X166582874Y-79992122D01*
X166573146Y-79999707D01*
X166564173Y-80007179D01*
X166555937Y-80014585D01*
X166548417Y-80021978D01*
X166541597Y-80029402D01*
X166535458Y-80036905D01*
X166529983Y-80044536D01*
X166525149Y-80052338D01*
X166520942Y-80060367D01*
X166517343Y-80068665D01*
X166514329Y-80077279D01*
X166511888Y-80086261D01*
X166509995Y-80095655D01*
X166508639Y-80105510D01*
X166507794Y-80115874D01*
X166507446Y-80126794D01*
X166507576Y-80138320D01*
X166508163Y-80150496D01*
X166510641Y-80176998D01*
X166514732Y-80206680D01*
X166520290Y-80239924D01*
X166527163Y-80277113D01*
X166533744Y-80312768D01*
X166540279Y-80349785D01*
X166552577Y-80423508D01*
X166562770Y-80489517D01*
X166566674Y-80516886D01*
X166569572Y-80539036D01*
X166571565Y-80564303D01*
X166572437Y-80591733D01*
X166572224Y-80621035D01*
X166570974Y-80651912D01*
X166568731Y-80684079D01*
X166565538Y-80717239D01*
X166561438Y-80751100D01*
X166556475Y-80785369D01*
X166550694Y-80819757D01*
X166544139Y-80853970D01*
X166536851Y-80887713D01*
X166528880Y-80920698D01*
X166520263Y-80952629D01*
X166511047Y-80983217D01*
X166501275Y-81012165D01*
X166490993Y-81039187D01*
X166475926Y-81075053D01*
X166468710Y-81090844D01*
X166461430Y-81105584D01*
X166453879Y-81119557D01*
X166445850Y-81133046D01*
X166437140Y-81146334D01*
X166427539Y-81159704D01*
X166416843Y-81173438D01*
X166404843Y-81187822D01*
X166391334Y-81203137D01*
X166376110Y-81219668D01*
X166339687Y-81257507D01*
X166293927Y-81303604D01*
X166254965Y-81341974D01*
X166220065Y-81375050D01*
X166203985Y-81389741D01*
X166188733Y-81403273D01*
X166174249Y-81415701D01*
X166160470Y-81427084D01*
X166147334Y-81437471D01*
X166134780Y-81446918D01*
X166122743Y-81455482D01*
X166111166Y-81463216D01*
X166099980Y-81470175D01*
X166089128Y-81476414D01*
X166078546Y-81481988D01*
X166068173Y-81486952D01*
X166060095Y-81490530D01*
X166052254Y-81494233D01*
X166044678Y-81498043D01*
X166037401Y-81501939D01*
X166030453Y-81505901D01*
X166023864Y-81509906D01*
X166017667Y-81513940D01*
X166011890Y-81517978D01*
X166006568Y-81522002D01*
X166001731Y-81525990D01*
X165997408Y-81529925D01*
X165993631Y-81533784D01*
X165990430Y-81537547D01*
X165987841Y-81541194D01*
X165986783Y-81542971D01*
X165985888Y-81544710D01*
X165985162Y-81546409D01*
X165984607Y-81548068D01*
X165984396Y-81552371D01*
X165985138Y-81559103D01*
X165989323Y-81579289D01*
X165996840Y-81607484D01*
X166007369Y-81642549D01*
X166020586Y-81683342D01*
X166036172Y-81728726D01*
X166053805Y-81777558D01*
X166073163Y-81828701D01*
X166118400Y-81953198D01*
X166160989Y-82078072D01*
X166200848Y-82202942D01*
X166237898Y-82327428D01*
X166272061Y-82451145D01*
X166303260Y-82573716D01*
X166331413Y-82694754D01*
X166356447Y-82813879D01*
X166378276Y-82930710D01*
X166396828Y-83044862D01*
X166412023Y-83155959D01*
X166423779Y-83263613D01*
X166432019Y-83367446D01*
X166436668Y-83467074D01*
X166437643Y-83562117D01*
X166434867Y-83652192D01*
X166428193Y-83740707D01*
X166418533Y-83829207D01*
X166406005Y-83917333D01*
X166390726Y-84004718D01*
X166372807Y-84090999D01*
X166352367Y-84175814D01*
X166329516Y-84258797D01*
X166304372Y-84339587D01*
X166277052Y-84417818D01*
X166247669Y-84493127D01*
X166216338Y-84565154D01*
X166183174Y-84633531D01*
X166148293Y-84697895D01*
X166111811Y-84757884D01*
X166073840Y-84813132D01*
X166034498Y-84863279D01*
X166004234Y-84897360D01*
X165972654Y-84929670D01*
X165939821Y-84960201D01*
X165905800Y-84988946D01*
X165870656Y-85015894D01*
X165834454Y-85041036D01*
X165797254Y-85064367D01*
X165759127Y-85085876D01*
X165720132Y-85105554D01*
X165680335Y-85123391D01*
X165639802Y-85139382D01*
X165598596Y-85153515D01*
X165556779Y-85165784D01*
X165514422Y-85176177D01*
X165471584Y-85184689D01*
X165428330Y-85191308D01*
X165384725Y-85196028D01*
X165340835Y-85198839D01*
X165296724Y-85199733D01*
X165252451Y-85198699D01*
X165208087Y-85195732D01*
X165163697Y-85190821D01*
X165119340Y-85183957D01*
X165075083Y-85175133D01*
X165030990Y-85164340D01*
X164987127Y-85151567D01*
X164943557Y-85136808D01*
X164900345Y-85120054D01*
X164857555Y-85101296D01*
X164815251Y-85080523D01*
X164773497Y-85057731D01*
X164732361Y-85032905D01*
X164693244Y-85006249D01*
X164654112Y-84976456D01*
X164615122Y-84943720D01*
X164576434Y-84908238D01*
X164538206Y-84870207D01*
X164500598Y-84829819D01*
X164463766Y-84787274D01*
X164427874Y-84742763D01*
X164393075Y-84696481D01*
X164359535Y-84648632D01*
X164327407Y-84599403D01*
X164296852Y-84548988D01*
X164268030Y-84497591D01*
X164241098Y-84445402D01*
X164216217Y-84392616D01*
X164193545Y-84339432D01*
X164168997Y-84279744D01*
X164158446Y-84256296D01*
X164148235Y-84237057D01*
X164143065Y-84229007D01*
X164137751Y-84221993D01*
X164132219Y-84216014D01*
X164126392Y-84211064D01*
X164120190Y-84207136D01*
X164113542Y-84204230D01*
X164106370Y-84202337D01*
X164098597Y-84201453D01*
X164090149Y-84201575D01*
X164080950Y-84202697D01*
X164070920Y-84204813D01*
X164059988Y-84207920D01*
X164035105Y-84217089D01*
X164005695Y-84230160D01*
X163971148Y-84247096D01*
X163930852Y-84267863D01*
X163830592Y-84320723D01*
X163762442Y-84355347D01*
X163694119Y-84387646D01*
X163625660Y-84417607D01*
X163557093Y-84445213D01*
X163488452Y-84470455D01*
X163419773Y-84493312D01*
X163351085Y-84513771D01*
X163282424Y-84531821D01*
X163213819Y-84547443D01*
X163145306Y-84560625D01*
X163076918Y-84571351D01*
X163008688Y-84579605D01*
X162940648Y-84585378D01*
X162872830Y-84588650D01*
X162805268Y-84589406D01*
X162737994Y-84587635D01*
X162682322Y-84584582D01*
X162627097Y-84579633D01*
X162572331Y-84572795D01*
X162518028Y-84564075D01*
X162464202Y-84553475D01*
X162410859Y-84541002D01*
X162358011Y-84526662D01*
X162305664Y-84510462D01*
X162253828Y-84492403D01*
X162202514Y-84472495D01*
X162151729Y-84450742D01*
X162101484Y-84427148D01*
X162051785Y-84401721D01*
X162002646Y-84374463D01*
X161954072Y-84345384D01*
X161906074Y-84314487D01*
X161847608Y-84276288D01*
X161795692Y-84242768D01*
X161755936Y-84217668D01*
X161742370Y-84209444D01*
X161733952Y-84204728D01*
X161725174Y-84201062D01*
X161715059Y-84199017D01*
X161703378Y-84198698D01*
X161689907Y-84200204D01*
X161674421Y-84203643D01*
X161656690Y-84209112D01*
X161636489Y-84216716D01*
X161613592Y-84226553D01*
X161558800Y-84253352D01*
X161490503Y-84290320D01*
X161406888Y-84338281D01*
X161306143Y-84398052D01*
X161190438Y-84467608D01*
X161143587Y-84495711D01*
X161103366Y-84519758D01*
X161085576Y-84530351D01*
X161069247Y-84540039D01*
X161054312Y-84548860D01*
X161040703Y-84556851D01*
X161028358Y-84564049D01*
X161017206Y-84570489D01*
X161007184Y-84576208D01*
X160998225Y-84581243D01*
X160990265Y-84585633D01*
X160983238Y-84589412D01*
X160977074Y-84592618D01*
X160974295Y-84594017D01*
X160971710Y-84595288D01*
X160969309Y-84596433D01*
X160967079Y-84597457D01*
X160965019Y-84598367D01*
X160963117Y-84599163D01*
X160961365Y-84599855D01*
X160959756Y-84600444D01*
X160958279Y-84600936D01*
X160956930Y-84601336D01*
X160955698Y-84601648D01*
X160954574Y-84601874D01*
X160953550Y-84602024D01*
X160952621Y-84602098D01*
X160951775Y-84602102D01*
X160951007Y-84602041D01*
X160950305Y-84601920D01*
X160949663Y-84601742D01*
X160949073Y-84601513D01*
X160948525Y-84601238D01*
X160948012Y-84600920D01*
X160947528Y-84600566D01*
X160946602Y-84599762D01*
X160945685Y-84598861D01*
X160945858Y-84596158D01*
X160948175Y-84590038D01*
X160958820Y-84568263D01*
X161001187Y-84491594D01*
X161066006Y-84380317D01*
X161146495Y-84245887D01*
X161188448Y-84175763D01*
X161227682Y-84108648D01*
X161263351Y-84046154D01*
X161294606Y-83989886D01*
X161320597Y-83941454D01*
X161340481Y-83902462D01*
X161347866Y-83887009D01*
X161353407Y-83874520D01*
X161356996Y-83865195D01*
X161358527Y-83859237D01*
X161358589Y-83853983D01*
X161357849Y-83847612D01*
X161356330Y-83840174D01*
X161354045Y-83831719D01*
X161351015Y-83822300D01*
X161347258Y-83811968D01*
X161337636Y-83788768D01*
X161325324Y-83762526D01*
X161310469Y-83733653D01*
X161293217Y-83702559D01*
X161273713Y-83669654D01*
X161236520Y-83605926D01*
X161202081Y-83543249D01*
X161170342Y-83481445D01*
X161141251Y-83420339D01*
X161114754Y-83359750D01*
X161090798Y-83299504D01*
X161069331Y-83239420D01*
X161050301Y-83179326D01*
X161033650Y-83119041D01*
X161019330Y-83058388D01*
X161007286Y-82997190D01*
X160997467Y-82935272D01*
X160989816Y-82872455D01*
X160984285Y-82808561D01*
X160980816Y-82743415D01*
X160979360Y-82676836D01*
X160979775Y-82635370D01*
X161451007Y-82635370D01*
X161455892Y-82759037D01*
X161472265Y-82882780D01*
X161499712Y-83005678D01*
X161537813Y-83126815D01*
X161586151Y-83245273D01*
X161644314Y-83360137D01*
X161711881Y-83470487D01*
X161788438Y-83575407D01*
X161873566Y-83673981D01*
X161966851Y-83765289D01*
X162067876Y-83848416D01*
X162121161Y-83886625D01*
X162176225Y-83922445D01*
X162233013Y-83955761D01*
X162291476Y-83986457D01*
X162337050Y-84007969D01*
X162383851Y-84027588D01*
X162431706Y-84045292D01*
X162480436Y-84061060D01*
X162529867Y-84074868D01*
X162579827Y-84086695D01*
X162630136Y-84096521D01*
X162680620Y-84104323D01*
X162731106Y-84110077D01*
X162781414Y-84113764D01*
X162831374Y-84115362D01*
X162880806Y-84114846D01*
X162929536Y-84112197D01*
X162977390Y-84107392D01*
X163024192Y-84100408D01*
X163069765Y-84091227D01*
X163096264Y-84084967D01*
X163122325Y-84078389D01*
X163147773Y-84071554D01*
X163172430Y-84064528D01*
X163196123Y-84057369D01*
X163218676Y-84050138D01*
X163239914Y-84042904D01*
X163259660Y-84035724D01*
X163277740Y-84028660D01*
X163293979Y-84021776D01*
X163308202Y-84015132D01*
X163320231Y-84008791D01*
X163329893Y-84002817D01*
X163333780Y-83999985D01*
X163337009Y-83997269D01*
X163339561Y-83994675D01*
X163341410Y-83992210D01*
X163342535Y-83989885D01*
X163342914Y-83987704D01*
X163342891Y-83986825D01*
X163342589Y-83985825D01*
X163341176Y-83983481D01*
X163338734Y-83980705D01*
X163335314Y-83977532D01*
X163330976Y-83973993D01*
X163325771Y-83970120D01*
X163312981Y-83961512D01*
X163297384Y-83951968D01*
X163279422Y-83941752D01*
X163259529Y-83931125D01*
X163238144Y-83920353D01*
X163188281Y-83893977D01*
X163127354Y-83859489D01*
X163059263Y-83819302D01*
X162987914Y-83775827D01*
X162917208Y-83731474D01*
X162851047Y-83688654D01*
X162793335Y-83649784D01*
X162747972Y-83617268D01*
X162670239Y-83557662D01*
X162593354Y-83494948D01*
X162517468Y-83429291D01*
X162442726Y-83360860D01*
X162369280Y-83289820D01*
X162297272Y-83216337D01*
X162226855Y-83140577D01*
X162158175Y-83062707D01*
X162091382Y-82982894D01*
X162026623Y-82901302D01*
X161964043Y-82818099D01*
X161903794Y-82733449D01*
X161846022Y-82647523D01*
X161790874Y-82560483D01*
X161738503Y-82472497D01*
X161689050Y-82383731D01*
X161648730Y-82308914D01*
X161614371Y-82244506D01*
X161578046Y-82175438D01*
X161575179Y-82170063D01*
X161572182Y-82166115D01*
X161570630Y-82164684D01*
X161569043Y-82163618D01*
X161567415Y-82162922D01*
X161565748Y-82162597D01*
X161564039Y-82162644D01*
X161562287Y-82163072D01*
X161560489Y-82163879D01*
X161558642Y-82165069D01*
X161554806Y-82168612D01*
X161550761Y-82173723D01*
X161546498Y-82180430D01*
X161542004Y-82188752D01*
X161537263Y-82198714D01*
X161532267Y-82210343D01*
X161526998Y-82223659D01*
X161521449Y-82238686D01*
X161515601Y-82255449D01*
X161509446Y-82273971D01*
X161491787Y-82332536D01*
X161477367Y-82391920D01*
X161466130Y-82452008D01*
X161458027Y-82512691D01*
X161453002Y-82573848D01*
X161451007Y-82635370D01*
X160979775Y-82635370D01*
X160979947Y-82618163D01*
X160982179Y-82559532D01*
X160986059Y-82500919D01*
X160991600Y-82442313D01*
X160998807Y-82383690D01*
X161007688Y-82325038D01*
X161018249Y-82266330D01*
X161030498Y-82207556D01*
X161044443Y-82148693D01*
X161060093Y-82089724D01*
X161077450Y-82030630D01*
X161096526Y-81971394D01*
X161117327Y-81911999D01*
X161139858Y-81852424D01*
X161164130Y-81792651D01*
X161168582Y-81782388D01*
X161170917Y-81777004D01*
X162001810Y-81777004D01*
X162004797Y-81796705D01*
X162013098Y-81824543D01*
X162026240Y-81859609D01*
X162065163Y-81947828D01*
X162117796Y-82054142D01*
X162180369Y-82171331D01*
X162249109Y-82292174D01*
X162320246Y-82409449D01*
X162390010Y-82515940D01*
X162419258Y-82556149D01*
X162452865Y-82599257D01*
X162531067Y-82692075D01*
X162620436Y-82790215D01*
X162716792Y-82889493D01*
X162815954Y-82985733D01*
X162913742Y-83074751D01*
X163005974Y-83152367D01*
X163048703Y-83185596D01*
X163088475Y-83214405D01*
X163151855Y-83256842D01*
X163217951Y-83298769D01*
X163285910Y-83339791D01*
X163354881Y-83379509D01*
X163424013Y-83417534D01*
X163492455Y-83453469D01*
X163559353Y-83486918D01*
X163623860Y-83517487D01*
X163685123Y-83544785D01*
X163742285Y-83568410D01*
X163794504Y-83587975D01*
X163840922Y-83603081D01*
X163880690Y-83613335D01*
X163897814Y-83616518D01*
X163912957Y-83618341D01*
X163926009Y-83618752D01*
X163936868Y-83617705D01*
X163945427Y-83615147D01*
X163951576Y-83611033D01*
X163952411Y-83609393D01*
X163953044Y-83606400D01*
X163953478Y-83602126D01*
X163953720Y-83596649D01*
X163953638Y-83582398D01*
X163952824Y-83564260D01*
X163951308Y-83542848D01*
X163949122Y-83518774D01*
X163946291Y-83492655D01*
X163942846Y-83465103D01*
X163938655Y-83434537D01*
X163934582Y-83400635D01*
X163930744Y-83364514D01*
X163927255Y-83327282D01*
X163924235Y-83290048D01*
X163921799Y-83253928D01*
X163920063Y-83220027D01*
X163919148Y-83189460D01*
X163918581Y-83175369D01*
X163917820Y-83161223D01*
X163916562Y-83143912D01*
X164389513Y-83143912D01*
X164402252Y-83325365D01*
X164427932Y-83506439D01*
X164466612Y-83686585D01*
X164518356Y-83865252D01*
X164549144Y-83953859D01*
X164583219Y-84041891D01*
X164620591Y-84129279D01*
X164661267Y-84215952D01*
X164688806Y-84271097D01*
X164712734Y-84316611D01*
X164723899Y-84336544D01*
X164734823Y-84355019D01*
X164745729Y-84372351D01*
X164756837Y-84388854D01*
X164768371Y-84404846D01*
X164780547Y-84420641D01*
X164793591Y-84436558D01*
X164807721Y-84452911D01*
X164840127Y-84488194D01*
X164879537Y-84529015D01*
X164919799Y-84568834D01*
X164937177Y-84585552D01*
X164953047Y-84600380D01*
X164967660Y-84613500D01*
X164981265Y-84625087D01*
X164994111Y-84635323D01*
X165006445Y-84644386D01*
X165018517Y-84652455D01*
X165030570Y-84659709D01*
X165042861Y-84666326D01*
X165055634Y-84672488D01*
X165069137Y-84678371D01*
X165083619Y-84684156D01*
X165099329Y-84690023D01*
X165116517Y-84696147D01*
X165167816Y-84711196D01*
X165193160Y-84716861D01*
X165218282Y-84721293D01*
X165243169Y-84724504D01*
X165267808Y-84726493D01*
X165292186Y-84727271D01*
X165316292Y-84726842D01*
X165340108Y-84725211D01*
X165363627Y-84722387D01*
X165386833Y-84718375D01*
X165409711Y-84713182D01*
X165432252Y-84706813D01*
X165454440Y-84699274D01*
X165476263Y-84690570D01*
X165497708Y-84680712D01*
X165518763Y-84669701D01*
X165539414Y-84657546D01*
X165559647Y-84644252D01*
X165579451Y-84629826D01*
X165598812Y-84614272D01*
X165617714Y-84597599D01*
X165654103Y-84560917D01*
X165688511Y-84519827D01*
X165720834Y-84474380D01*
X165750969Y-84424627D01*
X165778810Y-84370612D01*
X165802188Y-84319378D01*
X165823704Y-84268448D01*
X165843395Y-84217621D01*
X165861304Y-84166705D01*
X165877465Y-84115504D01*
X165891918Y-84063823D01*
X165904701Y-84011466D01*
X165915853Y-83958238D01*
X165925410Y-83903943D01*
X165933414Y-83848384D01*
X165939900Y-83791369D01*
X165944909Y-83732700D01*
X165948479Y-83672180D01*
X165950647Y-83609618D01*
X165951450Y-83544815D01*
X165950931Y-83477576D01*
X165947234Y-83370722D01*
X165939421Y-83261136D01*
X165927496Y-83148855D01*
X165911467Y-83033923D01*
X165891338Y-82916381D01*
X165867114Y-82796273D01*
X165838800Y-82673641D01*
X165806404Y-82548525D01*
X165769931Y-82420968D01*
X165729385Y-82291012D01*
X165684772Y-82158700D01*
X165636096Y-82024073D01*
X165583365Y-81887171D01*
X165526584Y-81748040D01*
X165465757Y-81606721D01*
X165400891Y-81463255D01*
X165378837Y-81415580D01*
X165358878Y-81372951D01*
X165340856Y-81335123D01*
X165324612Y-81301852D01*
X165309991Y-81272893D01*
X165303241Y-81259953D01*
X165296837Y-81248001D01*
X165290760Y-81237003D01*
X165284990Y-81226931D01*
X165279508Y-81217751D01*
X165274294Y-81209437D01*
X165269328Y-81201956D01*
X165264592Y-81195277D01*
X165260065Y-81189371D01*
X165255727Y-81184205D01*
X165251558Y-81179750D01*
X165247540Y-81175975D01*
X165243654Y-81172851D01*
X165239877Y-81170343D01*
X165236193Y-81168425D01*
X165232579Y-81167065D01*
X165229018Y-81166232D01*
X165225489Y-81165896D01*
X165221974Y-81166025D01*
X165218451Y-81166589D01*
X165214903Y-81167559D01*
X165211308Y-81168901D01*
X165202874Y-81173446D01*
X165193066Y-81180001D01*
X165181973Y-81188468D01*
X165169679Y-81198758D01*
X165141851Y-81224414D01*
X165110278Y-81256209D01*
X165075668Y-81293383D01*
X165038718Y-81335177D01*
X165000131Y-81380829D01*
X164960610Y-81429579D01*
X164902392Y-81506398D01*
X164847254Y-81584566D01*
X164746238Y-81744674D01*
X164657620Y-81909355D01*
X164581461Y-82078055D01*
X164517821Y-82250228D01*
X164466761Y-82425321D01*
X164428338Y-82602788D01*
X164402616Y-82782074D01*
X164389654Y-82962632D01*
X164389513Y-83143912D01*
X163916562Y-83143912D01*
X163915777Y-83133117D01*
X163913119Y-83105862D01*
X163909950Y-83080167D01*
X163908206Y-83068132D01*
X163906371Y-83056754D01*
X163904460Y-83046128D01*
X163902486Y-83036339D01*
X163900460Y-83027478D01*
X163898396Y-83019635D01*
X163896305Y-83012899D01*
X163894202Y-83007360D01*
X163886918Y-82990152D01*
X163880600Y-82977036D01*
X163876752Y-82971208D01*
X163871884Y-82965441D01*
X163865576Y-82959407D01*
X163857409Y-82952793D01*
X163846961Y-82945270D01*
X163833813Y-82936520D01*
X163797735Y-82914049D01*
X163674685Y-82840227D01*
X163636245Y-82816919D01*
X163595640Y-82791507D01*
X163554101Y-82764806D01*
X163512853Y-82737640D01*
X163473127Y-82710823D01*
X163436148Y-82685178D01*
X163403144Y-82661519D01*
X163375345Y-82640666D01*
X163342836Y-82614885D01*
X163308679Y-82585967D01*
X163236780Y-82520189D01*
X163162369Y-82446283D01*
X163088163Y-82367204D01*
X163016879Y-82285903D01*
X162951237Y-82205335D01*
X162921380Y-82166246D01*
X162893956Y-82128448D01*
X162869300Y-82092307D01*
X162847754Y-82058197D01*
X162799388Y-81979555D01*
X162779584Y-81948009D01*
X162762044Y-81921114D01*
X162753968Y-81909288D01*
X162746270Y-81898474D01*
X162738892Y-81888624D01*
X162731773Y-81879688D01*
X162724849Y-81871616D01*
X162718058Y-81864359D01*
X162711339Y-81857864D01*
X162704631Y-81852088D01*
X162697872Y-81846975D01*
X162690999Y-81842476D01*
X162683953Y-81838544D01*
X162676670Y-81835128D01*
X162669089Y-81832176D01*
X162661149Y-81829641D01*
X162652788Y-81827473D01*
X162643944Y-81825623D01*
X162634555Y-81824037D01*
X162624560Y-81822668D01*
X162602506Y-81820385D01*
X162548411Y-81816229D01*
X162476109Y-81810071D01*
X162388138Y-81801574D01*
X162295491Y-81791672D01*
X162248460Y-81786025D01*
X163313277Y-81786025D01*
X163315184Y-81795901D01*
X163319179Y-81807147D01*
X163325319Y-81819840D01*
X163333672Y-81834055D01*
X163344297Y-81849873D01*
X163357257Y-81867367D01*
X163390433Y-81907692D01*
X163433691Y-81955647D01*
X163487534Y-82011849D01*
X163552453Y-82076906D01*
X163586600Y-82110618D01*
X163619770Y-82142501D01*
X163651890Y-82172509D01*
X163682890Y-82200599D01*
X163712700Y-82226721D01*
X163741245Y-82250831D01*
X163768458Y-82272886D01*
X163794266Y-82292836D01*
X163818599Y-82310638D01*
X163841383Y-82326247D01*
X163862547Y-82339616D01*
X163882022Y-82350697D01*
X163899737Y-82359449D01*
X163915618Y-82365822D01*
X163922849Y-82368105D01*
X163929596Y-82369775D01*
X163935849Y-82370828D01*
X163941598Y-82371258D01*
X163947177Y-82370879D01*
X163952259Y-82370151D01*
X163956902Y-82368995D01*
X163961165Y-82367321D01*
X163965108Y-82365050D01*
X163966974Y-82363662D01*
X163968784Y-82362094D01*
X163972259Y-82358370D01*
X163975585Y-82353797D01*
X163978825Y-82348284D01*
X163982037Y-82341758D01*
X163985276Y-82334125D01*
X163988605Y-82325304D01*
X163992079Y-82315213D01*
X163995756Y-82303765D01*
X164003962Y-82276467D01*
X164039989Y-82156610D01*
X164079128Y-82041417D01*
X164121805Y-81929818D01*
X164168444Y-81820749D01*
X164219467Y-81713142D01*
X164275299Y-81605930D01*
X164336363Y-81498043D01*
X164403085Y-81388418D01*
X164421727Y-81358706D01*
X164439041Y-81330792D01*
X164454628Y-81305303D01*
X164468097Y-81282869D01*
X164479052Y-81264119D01*
X164487097Y-81249681D01*
X164489907Y-81244275D01*
X164491841Y-81240183D01*
X164492850Y-81237484D01*
X164492992Y-81236680D01*
X164492886Y-81236253D01*
X164492457Y-81235961D01*
X164491871Y-81235783D01*
X164490241Y-81235756D01*
X164488036Y-81236155D01*
X164485287Y-81236955D01*
X164482025Y-81238136D01*
X164478285Y-81239674D01*
X164469501Y-81243738D01*
X164459196Y-81248969D01*
X164447635Y-81255197D01*
X164435080Y-81262242D01*
X164421793Y-81269929D01*
X164281998Y-81351109D01*
X164148605Y-81424511D01*
X164021233Y-81490314D01*
X163899504Y-81548692D01*
X163840636Y-81575150D01*
X163783036Y-81599820D01*
X163726657Y-81622719D01*
X163671450Y-81643873D01*
X163617369Y-81663302D01*
X163564365Y-81681028D01*
X163512395Y-81697073D01*
X163461404Y-81711459D01*
X163447488Y-81715270D01*
X163433853Y-81719196D01*
X163420576Y-81723210D01*
X163407733Y-81727284D01*
X163395402Y-81731386D01*
X163383660Y-81735489D01*
X163372582Y-81739561D01*
X163362247Y-81743576D01*
X163352730Y-81747503D01*
X163344108Y-81751312D01*
X163336460Y-81754976D01*
X163329858Y-81758464D01*
X163324382Y-81761748D01*
X163320109Y-81764799D01*
X163318446Y-81766226D01*
X163317114Y-81767585D01*
X163316121Y-81768869D01*
X163315476Y-81770080D01*
X163313396Y-81777445D01*
X163313277Y-81786025D01*
X162248460Y-81786025D01*
X162209158Y-81781306D01*
X162189251Y-81778602D01*
X162169828Y-81776108D01*
X162150983Y-81773832D01*
X162132821Y-81771776D01*
X162115441Y-81769946D01*
X162098944Y-81768349D01*
X162083428Y-81766988D01*
X162068997Y-81765871D01*
X162055750Y-81765002D01*
X162043787Y-81764386D01*
X162033208Y-81764031D01*
X162024114Y-81763942D01*
X162016608Y-81764121D01*
X162010788Y-81764577D01*
X162008541Y-81764909D01*
X162006754Y-81765313D01*
X162005439Y-81765789D01*
X162004607Y-81766339D01*
X162002457Y-81770485D01*
X162001810Y-81777004D01*
X161170917Y-81777004D01*
X161190148Y-81732663D01*
X161206711Y-81694660D01*
X161220743Y-81660802D01*
X161232082Y-81630644D01*
X161240564Y-81603747D01*
X161243685Y-81591379D01*
X161246030Y-81579662D01*
X161247580Y-81568535D01*
X161248314Y-81557947D01*
X161248212Y-81547838D01*
X161247254Y-81538157D01*
X161245420Y-81528844D01*
X161242688Y-81519850D01*
X161239040Y-81511112D01*
X161234453Y-81502579D01*
X161228910Y-81494195D01*
X161222390Y-81485902D01*
X161214869Y-81477648D01*
X161206330Y-81469375D01*
X161196751Y-81461031D01*
X161186114Y-81452556D01*
X161161578Y-81434996D01*
X161132562Y-81416256D01*
X161098902Y-81395888D01*
X161060433Y-81373451D01*
X161031440Y-81356003D01*
X161001252Y-81336112D01*
X160970166Y-81314059D01*
X160938475Y-81290119D01*
X160906478Y-81264572D01*
X160874470Y-81237696D01*
X160842747Y-81209766D01*
X160811605Y-81181061D01*
X160781340Y-81151862D01*
X160752248Y-81122441D01*
X160724625Y-81093080D01*
X160698768Y-81064055D01*
X160674970Y-81035642D01*
X160653529Y-81008122D01*
X160634743Y-80981771D01*
X160618904Y-80956868D01*
X160594226Y-80912775D01*
X160571672Y-80865879D01*
X160551291Y-80816559D01*
X160533137Y-80765199D01*
X160517253Y-80712181D01*
X160503690Y-80657884D01*
X160492502Y-80602692D01*
X160483732Y-80546988D01*
X160477433Y-80491152D01*
X160473655Y-80435564D01*
X160473204Y-80415094D01*
X160948434Y-80415094D01*
X160949933Y-80462135D01*
X160955949Y-80508987D01*
X160966396Y-80555471D01*
X160981193Y-80601404D01*
X161000253Y-80646612D01*
X161023494Y-80690913D01*
X161050830Y-80734131D01*
X161082179Y-80776082D01*
X161117456Y-80816590D01*
X161156576Y-80855476D01*
X161199459Y-80892560D01*
X161246016Y-80927664D01*
X161296166Y-80960610D01*
X161456245Y-81051160D01*
X161621655Y-81129189D01*
X161791620Y-81194714D01*
X161965358Y-81247752D01*
X162142092Y-81288323D01*
X162321046Y-81316443D01*
X162501438Y-81332133D01*
X162682491Y-81335411D01*
X162863429Y-81326293D01*
X162876905Y-81324684D01*
X163043471Y-81304800D01*
X163221839Y-81270947D01*
X163397755Y-81224755D01*
X163570442Y-81166243D01*
X163739118Y-81095424D01*
X163903009Y-81012325D01*
X164061336Y-80916956D01*
X164094671Y-80894570D01*
X164129360Y-80870237D01*
X164200950Y-80817293D01*
X164272424Y-80761247D01*
X164340098Y-80705234D01*
X164400288Y-80652376D01*
X164426425Y-80628109D01*
X164449310Y-80605803D01*
X164468484Y-80585852D01*
X164483484Y-80568644D01*
X164484584Y-80567149D01*
X164493849Y-80554571D01*
X164497152Y-80548834D01*
X164499122Y-80544025D01*
X164500204Y-80540025D01*
X164501109Y-80535993D01*
X164501834Y-80531959D01*
X164502377Y-80527947D01*
X164502738Y-80523986D01*
X164502916Y-80520106D01*
X164502905Y-80516329D01*
X164502710Y-80512689D01*
X164502321Y-80509207D01*
X164501741Y-80505914D01*
X164501379Y-80504344D01*
X164500969Y-80502836D01*
X164500509Y-80501386D01*
X164500000Y-80500000D01*
X164499441Y-80498684D01*
X164498834Y-80497437D01*
X164498176Y-80496265D01*
X164497468Y-80495171D01*
X164496711Y-80494158D01*
X164495903Y-80493229D01*
X164495044Y-80492388D01*
X164494134Y-80491642D01*
X164475705Y-80478263D01*
X164444691Y-80460035D01*
X164350232Y-80411387D01*
X164221393Y-80350403D01*
X164068819Y-80281790D01*
X163903147Y-80210253D01*
X163735021Y-80140499D01*
X163575079Y-80077235D01*
X163433965Y-80025166D01*
X163262722Y-79968120D01*
X163094822Y-79918126D01*
X162930540Y-79875192D01*
X162770152Y-79839324D01*
X162613925Y-79810532D01*
X162462142Y-79788821D01*
X162315071Y-79774199D01*
X162172986Y-79766673D01*
X162036165Y-79766250D01*
X161904881Y-79772938D01*
X161779404Y-79786744D01*
X161660012Y-79807676D01*
X161546980Y-79835739D01*
X161492934Y-79852450D01*
X161440580Y-79870946D01*
X161389950Y-79891227D01*
X161341084Y-79913298D01*
X161294012Y-79937156D01*
X161248771Y-79962804D01*
X161224859Y-79977678D01*
X161201369Y-79993698D01*
X161178397Y-80010746D01*
X161156042Y-80028714D01*
X161134405Y-80047483D01*
X161113583Y-80066944D01*
X161093673Y-80086983D01*
X161074777Y-80107486D01*
X161056991Y-80128338D01*
X161040413Y-80149428D01*
X161025145Y-80170643D01*
X161011283Y-80191870D01*
X160998929Y-80212994D01*
X160988176Y-80233901D01*
X160979126Y-80254480D01*
X160971878Y-80274617D01*
X160959324Y-80321154D01*
X160951537Y-80368041D01*
X160948434Y-80415094D01*
X160473204Y-80415094D01*
X160472443Y-80380612D01*
X160473852Y-80326672D01*
X160477926Y-80274127D01*
X160481994Y-80243726D01*
X160484719Y-80223361D01*
X160494277Y-80174754D01*
X160506651Y-80128689D01*
X160531111Y-80059121D01*
X160560964Y-79992166D01*
X160596160Y-79927858D01*
X160636659Y-79866238D01*
X160682410Y-79807345D01*
X160733371Y-79751214D01*
X160766436Y-79719797D01*
X160789497Y-79697889D01*
X160850738Y-79647402D01*
X160917052Y-79599797D01*
X160988393Y-79555109D01*
X161064712Y-79513376D01*
X161145968Y-79474637D01*
X161232113Y-79438934D01*
X161323100Y-79406299D01*
X161418887Y-79376775D01*
X161519424Y-79350399D01*
X161592456Y-79334015D01*
X161666182Y-79319945D01*
X161740740Y-79308189D01*
X161816272Y-79298755D01*
X161892913Y-79291645D01*
X161970805Y-79286862D01*
X162050085Y-79284411D01*
X162130892Y-79284295D01*
X162213366Y-79286518D01*
X162297644Y-79291082D01*
X162383868Y-79297992D01*
X162472173Y-79307253D01*
X162562701Y-79318865D01*
X162655587Y-79332835D01*
X162750975Y-79349166D01*
X162849000Y-79367861D01*
X162953895Y-79389867D01*
X163055325Y-79413407D01*
X163156140Y-79439314D01*
X163259192Y-79468421D01*
X163367331Y-79501564D01*
X163483407Y-79539574D01*
X163610269Y-79583284D01*
X163750768Y-79633527D01*
X163801206Y-79651680D01*
X163845749Y-79667257D01*
X163884907Y-79680166D01*
X163919187Y-79690316D01*
X163934656Y-79694329D01*
X163949097Y-79697617D01*
X163962570Y-79700170D01*
X163975143Y-79701975D01*
X163986878Y-79703023D01*
X163997835Y-79703302D01*
X164008083Y-79702798D01*
X164017682Y-79701503D01*
X164026696Y-79699403D01*
X164035189Y-79696488D01*
X164043224Y-79692748D01*
X164050865Y-79688167D01*
X164058176Y-79682738D01*
X164065218Y-79676449D01*
X164072060Y-79669286D01*
X164078759Y-79661239D01*
X164085381Y-79652298D01*
X164091991Y-79642449D01*
X164105423Y-79619987D01*
X164119564Y-79593762D01*
X164134923Y-79563681D01*
X164154888Y-79525583D01*
X164175951Y-79488939D01*
X164198103Y-79453749D01*
X164221333Y-79420020D01*
X164245627Y-79387755D01*
X164270979Y-79356957D01*
X164297373Y-79327634D01*
X164324799Y-79299788D01*
X164353247Y-79273423D01*
X164382705Y-79248547D01*
X164413161Y-79225158D01*
X164444607Y-79203265D01*
X164477027Y-79182871D01*
X164510415Y-79163979D01*
X164544755Y-79146595D01*
X164580039Y-79130726D01*
X164616255Y-79116371D01*
X164653390Y-79103539D01*
X164691436Y-79092231D01*
X164730380Y-79082451D01*
X164770211Y-79074207D01*
X164810917Y-79067500D01*
X164852488Y-79062335D01*
X164894913Y-79058717D01*
X164938180Y-79056651D01*
X164982278Y-79056139D01*
X165027196Y-79057187D01*
X165072924Y-79059801D01*
X165119446Y-79063983D01*
X165166757Y-79069736D01*
X165214842Y-79077069D01*
X165263692Y-79085981D01*
X165301424Y-79092624D01*
X165338235Y-79098435D01*
X165373205Y-79103280D01*
X165389711Y-79105299D01*
X165405412Y-79107028D01*
X165420190Y-79108449D01*
X165433934Y-79109549D01*
X165446527Y-79110309D01*
X165457854Y-79110712D01*
X165467801Y-79110741D01*
X165476250Y-79110384D01*
X165483089Y-79109619D01*
X165485866Y-79109078D01*
X165488199Y-79108432D01*
X165501603Y-79103561D01*
X165515170Y-79096890D01*
X165528912Y-79088399D01*
X165542844Y-79078069D01*
X165556980Y-79065884D01*
X165571335Y-79051822D01*
X165585925Y-79035869D01*
X165600763Y-79018006D01*
X165615864Y-78998213D01*
X165631243Y-78976470D01*
X165646914Y-78952764D01*
X165662891Y-78927073D01*
X165679192Y-78899379D01*
X165695828Y-78869663D01*
X165730166Y-78804102D01*
X165766560Y-78729329D01*
X165798103Y-78657398D01*
X165824792Y-78588161D01*
X165846629Y-78521479D01*
X165863613Y-78457211D01*
X165870286Y-78425935D01*
X165875745Y-78395210D01*
X165879991Y-78365017D01*
X165883024Y-78335336D01*
X165884844Y-78306151D01*
X165885450Y-78277446D01*
X165884842Y-78249199D01*
X165883024Y-78221397D01*
X165879991Y-78194020D01*
X165875745Y-78167049D01*
X165870284Y-78140468D01*
X165863615Y-78114258D01*
X165855727Y-78088401D01*
X165846629Y-78062878D01*
X165836316Y-78037676D01*
X165824793Y-78012773D01*
X165812055Y-77988152D01*
X165798103Y-77963794D01*
X165782938Y-77939685D01*
X165766561Y-77915805D01*
X165748970Y-77892134D01*
X165730166Y-77868657D01*
X165721636Y-77858115D01*
X165713380Y-77847573D01*
X165705433Y-77837093D01*
X165697835Y-77826738D01*
X165690625Y-77816564D01*
X165683840Y-77806633D01*
X165677520Y-77797006D01*
X165671701Y-77787742D01*
X165666423Y-77778901D01*
X165661725Y-77770544D01*
X165657645Y-77762735D01*
X165654220Y-77755527D01*
X165651490Y-77748985D01*
X165649492Y-77743168D01*
X165648264Y-77738138D01*
X165647953Y-77735935D01*
X165647848Y-77733954D01*
X165648034Y-77728818D01*
X165648589Y-77723708D01*
X165649495Y-77718633D01*
X165650738Y-77713604D01*
X165652307Y-77708635D01*
X165654187Y-77703733D01*
X165656361Y-77698911D01*
X165658820Y-77694177D01*
X165661546Y-77689545D01*
X165664527Y-77685025D01*
X165667749Y-77680625D01*
X165671197Y-77676357D01*
X165674858Y-77672235D01*
X165678719Y-77668265D01*
X165682763Y-77664462D01*
X165686980Y-77660834D01*
X165691352Y-77657391D01*
X165695869Y-77654146D01*
X165700516Y-77651108D01*
X165705278Y-77648290D01*
X165710140Y-77645701D01*
X165715089Y-77643351D01*
X165720113Y-77641252D01*
X165725197Y-77639415D01*
X165730325Y-77637851D01*
X165735487Y-77636569D01*
X165740665Y-77635579D01*
X165745846Y-77634896D01*
X165751020Y-77634528D01*
X165756167Y-77634485D01*
X165761278Y-77634780D01*
G37*
D10*
X148941792Y-79312295D02*
X148941792Y-79959914D01*
X148941792Y-79959914D02*
X148979887Y-80036104D01*
X148979887Y-80036104D02*
X149017982Y-80074200D01*
X149017982Y-80074200D02*
X149094173Y-80112295D01*
X149094173Y-80112295D02*
X149246554Y-80112295D01*
X149246554Y-80112295D02*
X149322744Y-80074200D01*
X149322744Y-80074200D02*
X149360839Y-80036104D01*
X149360839Y-80036104D02*
X149398935Y-79959914D01*
X149398935Y-79959914D02*
X149398935Y-79312295D01*
X150198934Y-80112295D02*
X149741791Y-80112295D01*
X149970363Y-80112295D02*
X149970363Y-79312295D01*
X149970363Y-79312295D02*
X149894172Y-79426580D01*
X149894172Y-79426580D02*
X149817982Y-79502771D01*
X149817982Y-79502771D02*
X149741791Y-79540866D01*
X143355539Y-55797402D02*
X143355539Y-56368830D01*
X143355539Y-56368830D02*
X143317444Y-56483116D01*
X143317444Y-56483116D02*
X143241253Y-56559307D01*
X143241253Y-56559307D02*
X143126968Y-56597402D01*
X143126968Y-56597402D02*
X143050777Y-56597402D01*
X143698396Y-55873592D02*
X143736492Y-55835497D01*
X143736492Y-55835497D02*
X143812682Y-55797402D01*
X143812682Y-55797402D02*
X144003158Y-55797402D01*
X144003158Y-55797402D02*
X144079349Y-55835497D01*
X144079349Y-55835497D02*
X144117444Y-55873592D01*
X144117444Y-55873592D02*
X144155539Y-55949783D01*
X144155539Y-55949783D02*
X144155539Y-56025973D01*
X144155539Y-56025973D02*
X144117444Y-56140259D01*
X144117444Y-56140259D02*
X143660301Y-56597402D01*
X143660301Y-56597402D02*
X144155539Y-56597402D01*
X132954819Y-54761904D02*
X131954819Y-54761904D01*
X132431009Y-54761904D02*
X132431009Y-54190476D01*
X132954819Y-54190476D02*
X131954819Y-54190476D01*
X131954819Y-53809523D02*
X131954819Y-53142857D01*
X131954819Y-53142857D02*
X132954819Y-53571428D01*
X163219911Y-55236262D02*
X163219911Y-55807690D01*
X163219911Y-55807690D02*
X163181816Y-55921976D01*
X163181816Y-55921976D02*
X163105625Y-55998167D01*
X163105625Y-55998167D02*
X162991340Y-56036262D01*
X162991340Y-56036262D02*
X162915149Y-56036262D01*
X163981816Y-55236262D02*
X163600864Y-55236262D01*
X163600864Y-55236262D02*
X163562768Y-55617214D01*
X163562768Y-55617214D02*
X163600864Y-55579119D01*
X163600864Y-55579119D02*
X163677054Y-55541024D01*
X163677054Y-55541024D02*
X163867530Y-55541024D01*
X163867530Y-55541024D02*
X163943721Y-55579119D01*
X163943721Y-55579119D02*
X163981816Y-55617214D01*
X163981816Y-55617214D02*
X164019911Y-55693405D01*
X164019911Y-55693405D02*
X164019911Y-55883881D01*
X164019911Y-55883881D02*
X163981816Y-55960071D01*
X163981816Y-55960071D02*
X163943721Y-55998167D01*
X163943721Y-55998167D02*
X163867530Y-56036262D01*
X163867530Y-56036262D02*
X163677054Y-56036262D01*
X163677054Y-56036262D02*
X163600864Y-55998167D01*
X163600864Y-55998167D02*
X163562768Y-55960071D01*
X157312820Y-63325183D02*
X157878505Y-62759497D01*
X157609131Y-63028871D02*
X157932380Y-63352120D01*
X157636068Y-63648431D02*
X158201754Y-63082746D01*
X158201754Y-64214117D02*
X157878505Y-63890868D01*
X158040129Y-64052492D02*
X158605815Y-63486807D01*
X158605815Y-63486807D02*
X158471128Y-63513744D01*
X158471128Y-63513744D02*
X158363378Y-63513744D01*
X158363378Y-63513744D02*
X158282566Y-63486807D01*
X165985714Y-55532295D02*
X165719047Y-55151342D01*
X165528571Y-55532295D02*
X165528571Y-54732295D01*
X165528571Y-54732295D02*
X165833333Y-54732295D01*
X165833333Y-54732295D02*
X165909523Y-54770390D01*
X165909523Y-54770390D02*
X165947618Y-54808485D01*
X165947618Y-54808485D02*
X165985714Y-54884676D01*
X165985714Y-54884676D02*
X165985714Y-54998961D01*
X165985714Y-54998961D02*
X165947618Y-55075152D01*
X165947618Y-55075152D02*
X165909523Y-55113247D01*
X165909523Y-55113247D02*
X165833333Y-55151342D01*
X165833333Y-55151342D02*
X165528571Y-55151342D01*
X166290475Y-54808485D02*
X166328571Y-54770390D01*
X166328571Y-54770390D02*
X166404761Y-54732295D01*
X166404761Y-54732295D02*
X166595237Y-54732295D01*
X166595237Y-54732295D02*
X166671428Y-54770390D01*
X166671428Y-54770390D02*
X166709523Y-54808485D01*
X166709523Y-54808485D02*
X166747618Y-54884676D01*
X166747618Y-54884676D02*
X166747618Y-54960866D01*
X166747618Y-54960866D02*
X166709523Y-55075152D01*
X166709523Y-55075152D02*
X166252380Y-55532295D01*
X166252380Y-55532295D02*
X166747618Y-55532295D01*
X167471428Y-54732295D02*
X167090476Y-54732295D01*
X167090476Y-54732295D02*
X167052380Y-55113247D01*
X167052380Y-55113247D02*
X167090476Y-55075152D01*
X167090476Y-55075152D02*
X167166666Y-55037057D01*
X167166666Y-55037057D02*
X167357142Y-55037057D01*
X167357142Y-55037057D02*
X167433333Y-55075152D01*
X167433333Y-55075152D02*
X167471428Y-55113247D01*
X167471428Y-55113247D02*
X167509523Y-55189438D01*
X167509523Y-55189438D02*
X167509523Y-55379914D01*
X167509523Y-55379914D02*
X167471428Y-55456104D01*
X167471428Y-55456104D02*
X167433333Y-55494200D01*
X167433333Y-55494200D02*
X167357142Y-55532295D01*
X167357142Y-55532295D02*
X167166666Y-55532295D01*
X167166666Y-55532295D02*
X167090476Y-55494200D01*
X167090476Y-55494200D02*
X167052380Y-55456104D01*
X135866667Y-59032295D02*
X135600000Y-58651342D01*
X135409524Y-59032295D02*
X135409524Y-58232295D01*
X135409524Y-58232295D02*
X135714286Y-58232295D01*
X135714286Y-58232295D02*
X135790476Y-58270390D01*
X135790476Y-58270390D02*
X135828571Y-58308485D01*
X135828571Y-58308485D02*
X135866667Y-58384676D01*
X135866667Y-58384676D02*
X135866667Y-58498961D01*
X135866667Y-58498961D02*
X135828571Y-58575152D01*
X135828571Y-58575152D02*
X135790476Y-58613247D01*
X135790476Y-58613247D02*
X135714286Y-58651342D01*
X135714286Y-58651342D02*
X135409524Y-58651342D01*
X136590476Y-58232295D02*
X136209524Y-58232295D01*
X136209524Y-58232295D02*
X136171428Y-58613247D01*
X136171428Y-58613247D02*
X136209524Y-58575152D01*
X136209524Y-58575152D02*
X136285714Y-58537057D01*
X136285714Y-58537057D02*
X136476190Y-58537057D01*
X136476190Y-58537057D02*
X136552381Y-58575152D01*
X136552381Y-58575152D02*
X136590476Y-58613247D01*
X136590476Y-58613247D02*
X136628571Y-58689438D01*
X136628571Y-58689438D02*
X136628571Y-58879914D01*
X136628571Y-58879914D02*
X136590476Y-58956104D01*
X136590476Y-58956104D02*
X136552381Y-58994200D01*
X136552381Y-58994200D02*
X136476190Y-59032295D01*
X136476190Y-59032295D02*
X136285714Y-59032295D01*
X136285714Y-59032295D02*
X136209524Y-58994200D01*
X136209524Y-58994200D02*
X136171428Y-58956104D01*
X172812820Y-63325183D02*
X173378505Y-62759497D01*
X173109131Y-63028871D02*
X173432380Y-63352120D01*
X173136068Y-63648431D02*
X173701754Y-63082746D01*
X173890316Y-63379057D02*
X173944190Y-63379057D01*
X173944190Y-63379057D02*
X174025003Y-63405995D01*
X174025003Y-63405995D02*
X174159690Y-63540682D01*
X174159690Y-63540682D02*
X174186627Y-63621494D01*
X174186627Y-63621494D02*
X174186627Y-63675369D01*
X174186627Y-63675369D02*
X174159690Y-63756181D01*
X174159690Y-63756181D02*
X174105815Y-63810056D01*
X174105815Y-63810056D02*
X173998065Y-63863930D01*
X173998065Y-63863930D02*
X173351568Y-63863930D01*
X173351568Y-63863930D02*
X173701754Y-64214117D01*
X132366667Y-86286104D02*
X132328571Y-86324200D01*
X132328571Y-86324200D02*
X132214286Y-86362295D01*
X132214286Y-86362295D02*
X132138095Y-86362295D01*
X132138095Y-86362295D02*
X132023809Y-86324200D01*
X132023809Y-86324200D02*
X131947619Y-86248009D01*
X131947619Y-86248009D02*
X131909524Y-86171819D01*
X131909524Y-86171819D02*
X131871428Y-86019438D01*
X131871428Y-86019438D02*
X131871428Y-85905152D01*
X131871428Y-85905152D02*
X131909524Y-85752771D01*
X131909524Y-85752771D02*
X131947619Y-85676580D01*
X131947619Y-85676580D02*
X132023809Y-85600390D01*
X132023809Y-85600390D02*
X132138095Y-85562295D01*
X132138095Y-85562295D02*
X132214286Y-85562295D01*
X132214286Y-85562295D02*
X132328571Y-85600390D01*
X132328571Y-85600390D02*
X132366667Y-85638485D01*
X133090476Y-85562295D02*
X132709524Y-85562295D01*
X132709524Y-85562295D02*
X132671428Y-85943247D01*
X132671428Y-85943247D02*
X132709524Y-85905152D01*
X132709524Y-85905152D02*
X132785714Y-85867057D01*
X132785714Y-85867057D02*
X132976190Y-85867057D01*
X132976190Y-85867057D02*
X133052381Y-85905152D01*
X133052381Y-85905152D02*
X133090476Y-85943247D01*
X133090476Y-85943247D02*
X133128571Y-86019438D01*
X133128571Y-86019438D02*
X133128571Y-86209914D01*
X133128571Y-86209914D02*
X133090476Y-86286104D01*
X133090476Y-86286104D02*
X133052381Y-86324200D01*
X133052381Y-86324200D02*
X132976190Y-86362295D01*
X132976190Y-86362295D02*
X132785714Y-86362295D01*
X132785714Y-86362295D02*
X132709524Y-86324200D01*
X132709524Y-86324200D02*
X132671428Y-86286104D01*
X177830945Y-58008656D02*
X177564278Y-57627703D01*
X177373802Y-58008656D02*
X177373802Y-57208656D01*
X177373802Y-57208656D02*
X177678564Y-57208656D01*
X177678564Y-57208656D02*
X177754754Y-57246751D01*
X177754754Y-57246751D02*
X177792849Y-57284846D01*
X177792849Y-57284846D02*
X177830945Y-57361037D01*
X177830945Y-57361037D02*
X177830945Y-57475322D01*
X177830945Y-57475322D02*
X177792849Y-57551513D01*
X177792849Y-57551513D02*
X177754754Y-57589608D01*
X177754754Y-57589608D02*
X177678564Y-57627703D01*
X177678564Y-57627703D02*
X177373802Y-57627703D01*
X178592849Y-58008656D02*
X178135706Y-58008656D01*
X178364278Y-58008656D02*
X178364278Y-57208656D01*
X178364278Y-57208656D02*
X178288087Y-57322941D01*
X178288087Y-57322941D02*
X178211897Y-57399132D01*
X178211897Y-57399132D02*
X178135706Y-57437227D01*
X179049992Y-57551513D02*
X178973802Y-57513418D01*
X178973802Y-57513418D02*
X178935707Y-57475322D01*
X178935707Y-57475322D02*
X178897611Y-57399132D01*
X178897611Y-57399132D02*
X178897611Y-57361037D01*
X178897611Y-57361037D02*
X178935707Y-57284846D01*
X178935707Y-57284846D02*
X178973802Y-57246751D01*
X178973802Y-57246751D02*
X179049992Y-57208656D01*
X179049992Y-57208656D02*
X179202373Y-57208656D01*
X179202373Y-57208656D02*
X179278564Y-57246751D01*
X179278564Y-57246751D02*
X179316659Y-57284846D01*
X179316659Y-57284846D02*
X179354754Y-57361037D01*
X179354754Y-57361037D02*
X179354754Y-57399132D01*
X179354754Y-57399132D02*
X179316659Y-57475322D01*
X179316659Y-57475322D02*
X179278564Y-57513418D01*
X179278564Y-57513418D02*
X179202373Y-57551513D01*
X179202373Y-57551513D02*
X179049992Y-57551513D01*
X179049992Y-57551513D02*
X178973802Y-57589608D01*
X178973802Y-57589608D02*
X178935707Y-57627703D01*
X178935707Y-57627703D02*
X178897611Y-57703894D01*
X178897611Y-57703894D02*
X178897611Y-57856275D01*
X178897611Y-57856275D02*
X178935707Y-57932465D01*
X178935707Y-57932465D02*
X178973802Y-57970561D01*
X178973802Y-57970561D02*
X179049992Y-58008656D01*
X179049992Y-58008656D02*
X179202373Y-58008656D01*
X179202373Y-58008656D02*
X179278564Y-57970561D01*
X179278564Y-57970561D02*
X179316659Y-57932465D01*
X179316659Y-57932465D02*
X179354754Y-57856275D01*
X179354754Y-57856275D02*
X179354754Y-57703894D01*
X179354754Y-57703894D02*
X179316659Y-57627703D01*
X179316659Y-57627703D02*
X179278564Y-57589608D01*
X179278564Y-57589608D02*
X179202373Y-57551513D01*
X177888214Y-55532295D02*
X177621547Y-55151342D01*
X177431071Y-55532295D02*
X177431071Y-54732295D01*
X177431071Y-54732295D02*
X177735833Y-54732295D01*
X177735833Y-54732295D02*
X177812023Y-54770390D01*
X177812023Y-54770390D02*
X177850118Y-54808485D01*
X177850118Y-54808485D02*
X177888214Y-54884676D01*
X177888214Y-54884676D02*
X177888214Y-54998961D01*
X177888214Y-54998961D02*
X177850118Y-55075152D01*
X177850118Y-55075152D02*
X177812023Y-55113247D01*
X177812023Y-55113247D02*
X177735833Y-55151342D01*
X177735833Y-55151342D02*
X177431071Y-55151342D01*
X178650118Y-55532295D02*
X178192975Y-55532295D01*
X178421547Y-55532295D02*
X178421547Y-54732295D01*
X178421547Y-54732295D02*
X178345356Y-54846580D01*
X178345356Y-54846580D02*
X178269166Y-54922771D01*
X178269166Y-54922771D02*
X178192975Y-54960866D01*
X179031071Y-55532295D02*
X179183452Y-55532295D01*
X179183452Y-55532295D02*
X179259642Y-55494200D01*
X179259642Y-55494200D02*
X179297738Y-55456104D01*
X179297738Y-55456104D02*
X179373928Y-55341819D01*
X179373928Y-55341819D02*
X179412023Y-55189438D01*
X179412023Y-55189438D02*
X179412023Y-54884676D01*
X179412023Y-54884676D02*
X179373928Y-54808485D01*
X179373928Y-54808485D02*
X179335833Y-54770390D01*
X179335833Y-54770390D02*
X179259642Y-54732295D01*
X179259642Y-54732295D02*
X179107261Y-54732295D01*
X179107261Y-54732295D02*
X179031071Y-54770390D01*
X179031071Y-54770390D02*
X178992976Y-54808485D01*
X178992976Y-54808485D02*
X178954880Y-54884676D01*
X178954880Y-54884676D02*
X178954880Y-55075152D01*
X178954880Y-55075152D02*
X178992976Y-55151342D01*
X178992976Y-55151342D02*
X179031071Y-55189438D01*
X179031071Y-55189438D02*
X179107261Y-55227533D01*
X179107261Y-55227533D02*
X179259642Y-55227533D01*
X179259642Y-55227533D02*
X179335833Y-55189438D01*
X179335833Y-55189438D02*
X179373928Y-55151342D01*
X179373928Y-55151342D02*
X179412023Y-55075152D01*
X139366667Y-59032295D02*
X139100000Y-58651342D01*
X138909524Y-59032295D02*
X138909524Y-58232295D01*
X138909524Y-58232295D02*
X139214286Y-58232295D01*
X139214286Y-58232295D02*
X139290476Y-58270390D01*
X139290476Y-58270390D02*
X139328571Y-58308485D01*
X139328571Y-58308485D02*
X139366667Y-58384676D01*
X139366667Y-58384676D02*
X139366667Y-58498961D01*
X139366667Y-58498961D02*
X139328571Y-58575152D01*
X139328571Y-58575152D02*
X139290476Y-58613247D01*
X139290476Y-58613247D02*
X139214286Y-58651342D01*
X139214286Y-58651342D02*
X138909524Y-58651342D01*
X140052381Y-58232295D02*
X139900000Y-58232295D01*
X139900000Y-58232295D02*
X139823809Y-58270390D01*
X139823809Y-58270390D02*
X139785714Y-58308485D01*
X139785714Y-58308485D02*
X139709524Y-58422771D01*
X139709524Y-58422771D02*
X139671428Y-58575152D01*
X139671428Y-58575152D02*
X139671428Y-58879914D01*
X139671428Y-58879914D02*
X139709524Y-58956104D01*
X139709524Y-58956104D02*
X139747619Y-58994200D01*
X139747619Y-58994200D02*
X139823809Y-59032295D01*
X139823809Y-59032295D02*
X139976190Y-59032295D01*
X139976190Y-59032295D02*
X140052381Y-58994200D01*
X140052381Y-58994200D02*
X140090476Y-58956104D01*
X140090476Y-58956104D02*
X140128571Y-58879914D01*
X140128571Y-58879914D02*
X140128571Y-58689438D01*
X140128571Y-58689438D02*
X140090476Y-58613247D01*
X140090476Y-58613247D02*
X140052381Y-58575152D01*
X140052381Y-58575152D02*
X139976190Y-58537057D01*
X139976190Y-58537057D02*
X139823809Y-58537057D01*
X139823809Y-58537057D02*
X139747619Y-58575152D01*
X139747619Y-58575152D02*
X139709524Y-58613247D01*
X139709524Y-58613247D02*
X139671428Y-58689438D01*
X169888214Y-55532295D02*
X169621547Y-55151342D01*
X169431071Y-55532295D02*
X169431071Y-54732295D01*
X169431071Y-54732295D02*
X169735833Y-54732295D01*
X169735833Y-54732295D02*
X169812023Y-54770390D01*
X169812023Y-54770390D02*
X169850118Y-54808485D01*
X169850118Y-54808485D02*
X169888214Y-54884676D01*
X169888214Y-54884676D02*
X169888214Y-54998961D01*
X169888214Y-54998961D02*
X169850118Y-55075152D01*
X169850118Y-55075152D02*
X169812023Y-55113247D01*
X169812023Y-55113247D02*
X169735833Y-55151342D01*
X169735833Y-55151342D02*
X169431071Y-55151342D01*
X170192975Y-54808485D02*
X170231071Y-54770390D01*
X170231071Y-54770390D02*
X170307261Y-54732295D01*
X170307261Y-54732295D02*
X170497737Y-54732295D01*
X170497737Y-54732295D02*
X170573928Y-54770390D01*
X170573928Y-54770390D02*
X170612023Y-54808485D01*
X170612023Y-54808485D02*
X170650118Y-54884676D01*
X170650118Y-54884676D02*
X170650118Y-54960866D01*
X170650118Y-54960866D02*
X170612023Y-55075152D01*
X170612023Y-55075152D02*
X170154880Y-55532295D01*
X170154880Y-55532295D02*
X170650118Y-55532295D01*
X170916785Y-54732295D02*
X171412023Y-54732295D01*
X171412023Y-54732295D02*
X171145357Y-55037057D01*
X171145357Y-55037057D02*
X171259642Y-55037057D01*
X171259642Y-55037057D02*
X171335833Y-55075152D01*
X171335833Y-55075152D02*
X171373928Y-55113247D01*
X171373928Y-55113247D02*
X171412023Y-55189438D01*
X171412023Y-55189438D02*
X171412023Y-55379914D01*
X171412023Y-55379914D02*
X171373928Y-55456104D01*
X171373928Y-55456104D02*
X171335833Y-55494200D01*
X171335833Y-55494200D02*
X171259642Y-55532295D01*
X171259642Y-55532295D02*
X171031071Y-55532295D01*
X171031071Y-55532295D02*
X170954880Y-55494200D01*
X170954880Y-55494200D02*
X170916785Y-55456104D01*
X131866667Y-81946104D02*
X131828571Y-81984200D01*
X131828571Y-81984200D02*
X131714286Y-82022295D01*
X131714286Y-82022295D02*
X131638095Y-82022295D01*
X131638095Y-82022295D02*
X131523809Y-81984200D01*
X131523809Y-81984200D02*
X131447619Y-81908009D01*
X131447619Y-81908009D02*
X131409524Y-81831819D01*
X131409524Y-81831819D02*
X131371428Y-81679438D01*
X131371428Y-81679438D02*
X131371428Y-81565152D01*
X131371428Y-81565152D02*
X131409524Y-81412771D01*
X131409524Y-81412771D02*
X131447619Y-81336580D01*
X131447619Y-81336580D02*
X131523809Y-81260390D01*
X131523809Y-81260390D02*
X131638095Y-81222295D01*
X131638095Y-81222295D02*
X131714286Y-81222295D01*
X131714286Y-81222295D02*
X131828571Y-81260390D01*
X131828571Y-81260390D02*
X131866667Y-81298485D01*
X132133333Y-81222295D02*
X132628571Y-81222295D01*
X132628571Y-81222295D02*
X132361905Y-81527057D01*
X132361905Y-81527057D02*
X132476190Y-81527057D01*
X132476190Y-81527057D02*
X132552381Y-81565152D01*
X132552381Y-81565152D02*
X132590476Y-81603247D01*
X132590476Y-81603247D02*
X132628571Y-81679438D01*
X132628571Y-81679438D02*
X132628571Y-81869914D01*
X132628571Y-81869914D02*
X132590476Y-81946104D01*
X132590476Y-81946104D02*
X132552381Y-81984200D01*
X132552381Y-81984200D02*
X132476190Y-82022295D01*
X132476190Y-82022295D02*
X132247619Y-82022295D01*
X132247619Y-82022295D02*
X132171428Y-81984200D01*
X132171428Y-81984200D02*
X132133333Y-81946104D01*
X137786104Y-82133332D02*
X137824200Y-82171428D01*
X137824200Y-82171428D02*
X137862295Y-82285713D01*
X137862295Y-82285713D02*
X137862295Y-82361904D01*
X137862295Y-82361904D02*
X137824200Y-82476190D01*
X137824200Y-82476190D02*
X137748009Y-82552380D01*
X137748009Y-82552380D02*
X137671819Y-82590475D01*
X137671819Y-82590475D02*
X137519438Y-82628571D01*
X137519438Y-82628571D02*
X137405152Y-82628571D01*
X137405152Y-82628571D02*
X137252771Y-82590475D01*
X137252771Y-82590475D02*
X137176580Y-82552380D01*
X137176580Y-82552380D02*
X137100390Y-82476190D01*
X137100390Y-82476190D02*
X137062295Y-82361904D01*
X137062295Y-82361904D02*
X137062295Y-82285713D01*
X137062295Y-82285713D02*
X137100390Y-82171428D01*
X137100390Y-82171428D02*
X137138485Y-82133332D01*
X137138485Y-81828571D02*
X137100390Y-81790475D01*
X137100390Y-81790475D02*
X137062295Y-81714285D01*
X137062295Y-81714285D02*
X137062295Y-81523809D01*
X137062295Y-81523809D02*
X137100390Y-81447618D01*
X137100390Y-81447618D02*
X137138485Y-81409523D01*
X137138485Y-81409523D02*
X137214676Y-81371428D01*
X137214676Y-81371428D02*
X137290866Y-81371428D01*
X137290866Y-81371428D02*
X137405152Y-81409523D01*
X137405152Y-81409523D02*
X137862295Y-81866666D01*
X137862295Y-81866666D02*
X137862295Y-81371428D01*
X144824200Y-85566667D02*
X144862295Y-85452381D01*
X144862295Y-85452381D02*
X144862295Y-85261905D01*
X144862295Y-85261905D02*
X144824200Y-85185714D01*
X144824200Y-85185714D02*
X144786104Y-85147619D01*
X144786104Y-85147619D02*
X144709914Y-85109524D01*
X144709914Y-85109524D02*
X144633723Y-85109524D01*
X144633723Y-85109524D02*
X144557533Y-85147619D01*
X144557533Y-85147619D02*
X144519438Y-85185714D01*
X144519438Y-85185714D02*
X144481342Y-85261905D01*
X144481342Y-85261905D02*
X144443247Y-85414286D01*
X144443247Y-85414286D02*
X144405152Y-85490476D01*
X144405152Y-85490476D02*
X144367057Y-85528571D01*
X144367057Y-85528571D02*
X144290866Y-85566667D01*
X144290866Y-85566667D02*
X144214676Y-85566667D01*
X144214676Y-85566667D02*
X144138485Y-85528571D01*
X144138485Y-85528571D02*
X144100390Y-85490476D01*
X144100390Y-85490476D02*
X144062295Y-85414286D01*
X144062295Y-85414286D02*
X144062295Y-85223809D01*
X144062295Y-85223809D02*
X144100390Y-85109524D01*
X144062295Y-84842857D02*
X144862295Y-84652381D01*
X144862295Y-84652381D02*
X144290866Y-84500000D01*
X144290866Y-84500000D02*
X144862295Y-84347619D01*
X144862295Y-84347619D02*
X144062295Y-84157143D01*
X144138485Y-83890476D02*
X144100390Y-83852380D01*
X144100390Y-83852380D02*
X144062295Y-83776190D01*
X144062295Y-83776190D02*
X144062295Y-83585714D01*
X144062295Y-83585714D02*
X144100390Y-83509523D01*
X144100390Y-83509523D02*
X144138485Y-83471428D01*
X144138485Y-83471428D02*
X144214676Y-83433333D01*
X144214676Y-83433333D02*
X144290866Y-83433333D01*
X144290866Y-83433333D02*
X144405152Y-83471428D01*
X144405152Y-83471428D02*
X144862295Y-83928571D01*
X144862295Y-83928571D02*
X144862295Y-83433333D01*
X172812820Y-78825183D02*
X173378505Y-78259497D01*
X173109131Y-78528871D02*
X173432380Y-78852120D01*
X173136068Y-79148431D02*
X173701754Y-78582746D01*
X174025003Y-79283118D02*
X173647879Y-79660242D01*
X174105815Y-78932932D02*
X173567067Y-79202306D01*
X173567067Y-79202306D02*
X173917253Y-79552492D01*
X165848402Y-58050025D02*
X165581735Y-57669072D01*
X165391259Y-58050025D02*
X165391259Y-57250025D01*
X165391259Y-57250025D02*
X165696021Y-57250025D01*
X165696021Y-57250025D02*
X165772211Y-57288120D01*
X165772211Y-57288120D02*
X165810306Y-57326215D01*
X165810306Y-57326215D02*
X165848402Y-57402406D01*
X165848402Y-57402406D02*
X165848402Y-57516691D01*
X165848402Y-57516691D02*
X165810306Y-57592882D01*
X165810306Y-57592882D02*
X165772211Y-57630977D01*
X165772211Y-57630977D02*
X165696021Y-57669072D01*
X165696021Y-57669072D02*
X165391259Y-57669072D01*
X166153163Y-57326215D02*
X166191259Y-57288120D01*
X166191259Y-57288120D02*
X166267449Y-57250025D01*
X166267449Y-57250025D02*
X166457925Y-57250025D01*
X166457925Y-57250025D02*
X166534116Y-57288120D01*
X166534116Y-57288120D02*
X166572211Y-57326215D01*
X166572211Y-57326215D02*
X166610306Y-57402406D01*
X166610306Y-57402406D02*
X166610306Y-57478596D01*
X166610306Y-57478596D02*
X166572211Y-57592882D01*
X166572211Y-57592882D02*
X166115068Y-58050025D01*
X166115068Y-58050025D02*
X166610306Y-58050025D01*
X167296021Y-57516691D02*
X167296021Y-58050025D01*
X167105545Y-57211930D02*
X166915068Y-57783358D01*
X166915068Y-57783358D02*
X167410307Y-57783358D01*
X179238095Y-85954819D02*
X179238095Y-84954819D01*
X179238095Y-85431009D02*
X179809523Y-85431009D01*
X179809523Y-85954819D02*
X179809523Y-84954819D01*
X180428571Y-85383390D02*
X180333333Y-85335771D01*
X180333333Y-85335771D02*
X180285714Y-85288152D01*
X180285714Y-85288152D02*
X180238095Y-85192914D01*
X180238095Y-85192914D02*
X180238095Y-85145295D01*
X180238095Y-85145295D02*
X180285714Y-85050057D01*
X180285714Y-85050057D02*
X180333333Y-85002438D01*
X180333333Y-85002438D02*
X180428571Y-84954819D01*
X180428571Y-84954819D02*
X180619047Y-84954819D01*
X180619047Y-84954819D02*
X180714285Y-85002438D01*
X180714285Y-85002438D02*
X180761904Y-85050057D01*
X180761904Y-85050057D02*
X180809523Y-85145295D01*
X180809523Y-85145295D02*
X180809523Y-85192914D01*
X180809523Y-85192914D02*
X180761904Y-85288152D01*
X180761904Y-85288152D02*
X180714285Y-85335771D01*
X180714285Y-85335771D02*
X180619047Y-85383390D01*
X180619047Y-85383390D02*
X180428571Y-85383390D01*
X180428571Y-85383390D02*
X180333333Y-85431009D01*
X180333333Y-85431009D02*
X180285714Y-85478628D01*
X180285714Y-85478628D02*
X180238095Y-85573866D01*
X180238095Y-85573866D02*
X180238095Y-85764342D01*
X180238095Y-85764342D02*
X180285714Y-85859580D01*
X180285714Y-85859580D02*
X180333333Y-85907200D01*
X180333333Y-85907200D02*
X180428571Y-85954819D01*
X180428571Y-85954819D02*
X180619047Y-85954819D01*
X180619047Y-85954819D02*
X180714285Y-85907200D01*
X180714285Y-85907200D02*
X180761904Y-85859580D01*
X180761904Y-85859580D02*
X180809523Y-85764342D01*
X180809523Y-85764342D02*
X180809523Y-85573866D01*
X180809523Y-85573866D02*
X180761904Y-85478628D01*
X180761904Y-85478628D02*
X180714285Y-85431009D01*
X180714285Y-85431009D02*
X180619047Y-85383390D01*
X169888213Y-57852295D02*
X169621546Y-57471342D01*
X169431070Y-57852295D02*
X169431070Y-57052295D01*
X169431070Y-57052295D02*
X169735832Y-57052295D01*
X169735832Y-57052295D02*
X169812022Y-57090390D01*
X169812022Y-57090390D02*
X169850117Y-57128485D01*
X169850117Y-57128485D02*
X169888213Y-57204676D01*
X169888213Y-57204676D02*
X169888213Y-57318961D01*
X169888213Y-57318961D02*
X169850117Y-57395152D01*
X169850117Y-57395152D02*
X169812022Y-57433247D01*
X169812022Y-57433247D02*
X169735832Y-57471342D01*
X169735832Y-57471342D02*
X169431070Y-57471342D01*
X170192974Y-57128485D02*
X170231070Y-57090390D01*
X170231070Y-57090390D02*
X170307260Y-57052295D01*
X170307260Y-57052295D02*
X170497736Y-57052295D01*
X170497736Y-57052295D02*
X170573927Y-57090390D01*
X170573927Y-57090390D02*
X170612022Y-57128485D01*
X170612022Y-57128485D02*
X170650117Y-57204676D01*
X170650117Y-57204676D02*
X170650117Y-57280866D01*
X170650117Y-57280866D02*
X170612022Y-57395152D01*
X170612022Y-57395152D02*
X170154879Y-57852295D01*
X170154879Y-57852295D02*
X170650117Y-57852295D01*
X170954879Y-57128485D02*
X170992975Y-57090390D01*
X170992975Y-57090390D02*
X171069165Y-57052295D01*
X171069165Y-57052295D02*
X171259641Y-57052295D01*
X171259641Y-57052295D02*
X171335832Y-57090390D01*
X171335832Y-57090390D02*
X171373927Y-57128485D01*
X171373927Y-57128485D02*
X171412022Y-57204676D01*
X171412022Y-57204676D02*
X171412022Y-57280866D01*
X171412022Y-57280866D02*
X171373927Y-57395152D01*
X171373927Y-57395152D02*
X170916784Y-57852295D01*
X170916784Y-57852295D02*
X171412022Y-57852295D01*
X137738095Y-85954819D02*
X137738095Y-84954819D01*
X137738095Y-85431009D02*
X138309523Y-85431009D01*
X138309523Y-85954819D02*
X138309523Y-84954819D01*
X139214285Y-84954819D02*
X139023809Y-84954819D01*
X139023809Y-84954819D02*
X138928571Y-85002438D01*
X138928571Y-85002438D02*
X138880952Y-85050057D01*
X138880952Y-85050057D02*
X138785714Y-85192914D01*
X138785714Y-85192914D02*
X138738095Y-85383390D01*
X138738095Y-85383390D02*
X138738095Y-85764342D01*
X138738095Y-85764342D02*
X138785714Y-85859580D01*
X138785714Y-85859580D02*
X138833333Y-85907200D01*
X138833333Y-85907200D02*
X138928571Y-85954819D01*
X138928571Y-85954819D02*
X139119047Y-85954819D01*
X139119047Y-85954819D02*
X139214285Y-85907200D01*
X139214285Y-85907200D02*
X139261904Y-85859580D01*
X139261904Y-85859580D02*
X139309523Y-85764342D01*
X139309523Y-85764342D02*
X139309523Y-85526247D01*
X139309523Y-85526247D02*
X139261904Y-85431009D01*
X139261904Y-85431009D02*
X139214285Y-85383390D01*
X139214285Y-85383390D02*
X139119047Y-85335771D01*
X139119047Y-85335771D02*
X138928571Y-85335771D01*
X138928571Y-85335771D02*
X138833333Y-85383390D01*
X138833333Y-85383390D02*
X138785714Y-85431009D01*
X138785714Y-85431009D02*
X138738095Y-85526247D01*
X132192295Y-57514285D02*
X131811342Y-57780952D01*
X132192295Y-57971428D02*
X131392295Y-57971428D01*
X131392295Y-57971428D02*
X131392295Y-57666666D01*
X131392295Y-57666666D02*
X131430390Y-57590476D01*
X131430390Y-57590476D02*
X131468485Y-57552381D01*
X131468485Y-57552381D02*
X131544676Y-57514285D01*
X131544676Y-57514285D02*
X131658961Y-57514285D01*
X131658961Y-57514285D02*
X131735152Y-57552381D01*
X131735152Y-57552381D02*
X131773247Y-57590476D01*
X131773247Y-57590476D02*
X131811342Y-57666666D01*
X131811342Y-57666666D02*
X131811342Y-57971428D01*
X131392295Y-57247619D02*
X131392295Y-56752381D01*
X131392295Y-56752381D02*
X131697057Y-57019047D01*
X131697057Y-57019047D02*
X131697057Y-56904762D01*
X131697057Y-56904762D02*
X131735152Y-56828571D01*
X131735152Y-56828571D02*
X131773247Y-56790476D01*
X131773247Y-56790476D02*
X131849438Y-56752381D01*
X131849438Y-56752381D02*
X132039914Y-56752381D01*
X132039914Y-56752381D02*
X132116104Y-56790476D01*
X132116104Y-56790476D02*
X132154200Y-56828571D01*
X132154200Y-56828571D02*
X132192295Y-56904762D01*
X132192295Y-56904762D02*
X132192295Y-57133333D01*
X132192295Y-57133333D02*
X132154200Y-57209524D01*
X132154200Y-57209524D02*
X132116104Y-57247619D01*
X132192295Y-55990476D02*
X132192295Y-56447619D01*
X132192295Y-56219047D02*
X131392295Y-56219047D01*
X131392295Y-56219047D02*
X131506580Y-56295238D01*
X131506580Y-56295238D02*
X131582771Y-56371428D01*
X131582771Y-56371428D02*
X131620866Y-56447619D01*
X184290595Y-75804716D02*
X184290595Y-76376144D01*
X184290595Y-76376144D02*
X184252500Y-76490430D01*
X184252500Y-76490430D02*
X184176309Y-76566621D01*
X184176309Y-76566621D02*
X184062024Y-76604716D01*
X184062024Y-76604716D02*
X183985833Y-76604716D01*
X185014405Y-75804716D02*
X184862024Y-75804716D01*
X184862024Y-75804716D02*
X184785833Y-75842811D01*
X184785833Y-75842811D02*
X184747738Y-75880906D01*
X184747738Y-75880906D02*
X184671548Y-75995192D01*
X184671548Y-75995192D02*
X184633452Y-76147573D01*
X184633452Y-76147573D02*
X184633452Y-76452335D01*
X184633452Y-76452335D02*
X184671548Y-76528525D01*
X184671548Y-76528525D02*
X184709643Y-76566621D01*
X184709643Y-76566621D02*
X184785833Y-76604716D01*
X184785833Y-76604716D02*
X184938214Y-76604716D01*
X184938214Y-76604716D02*
X185014405Y-76566621D01*
X185014405Y-76566621D02*
X185052500Y-76528525D01*
X185052500Y-76528525D02*
X185090595Y-76452335D01*
X185090595Y-76452335D02*
X185090595Y-76261859D01*
X185090595Y-76261859D02*
X185052500Y-76185668D01*
X185052500Y-76185668D02*
X185014405Y-76147573D01*
X185014405Y-76147573D02*
X184938214Y-76109478D01*
X184938214Y-76109478D02*
X184785833Y-76109478D01*
X184785833Y-76109478D02*
X184709643Y-76147573D01*
X184709643Y-76147573D02*
X184671548Y-76185668D01*
X184671548Y-76185668D02*
X184633452Y-76261859D01*
X174083214Y-55532295D02*
X173816547Y-55151342D01*
X173626071Y-55532295D02*
X173626071Y-54732295D01*
X173626071Y-54732295D02*
X173930833Y-54732295D01*
X173930833Y-54732295D02*
X174007023Y-54770390D01*
X174007023Y-54770390D02*
X174045118Y-54808485D01*
X174045118Y-54808485D02*
X174083214Y-54884676D01*
X174083214Y-54884676D02*
X174083214Y-54998961D01*
X174083214Y-54998961D02*
X174045118Y-55075152D01*
X174045118Y-55075152D02*
X174007023Y-55113247D01*
X174007023Y-55113247D02*
X173930833Y-55151342D01*
X173930833Y-55151342D02*
X173626071Y-55151342D01*
X174387975Y-54808485D02*
X174426071Y-54770390D01*
X174426071Y-54770390D02*
X174502261Y-54732295D01*
X174502261Y-54732295D02*
X174692737Y-54732295D01*
X174692737Y-54732295D02*
X174768928Y-54770390D01*
X174768928Y-54770390D02*
X174807023Y-54808485D01*
X174807023Y-54808485D02*
X174845118Y-54884676D01*
X174845118Y-54884676D02*
X174845118Y-54960866D01*
X174845118Y-54960866D02*
X174807023Y-55075152D01*
X174807023Y-55075152D02*
X174349880Y-55532295D01*
X174349880Y-55532295D02*
X174845118Y-55532295D01*
X175607023Y-55532295D02*
X175149880Y-55532295D01*
X175378452Y-55532295D02*
X175378452Y-54732295D01*
X175378452Y-54732295D02*
X175302261Y-54846580D01*
X175302261Y-54846580D02*
X175226071Y-54922771D01*
X175226071Y-54922771D02*
X175149880Y-54960866D01*
X173934044Y-58070709D02*
X173667377Y-57689756D01*
X173476901Y-58070709D02*
X173476901Y-57270709D01*
X173476901Y-57270709D02*
X173781663Y-57270709D01*
X173781663Y-57270709D02*
X173857853Y-57308804D01*
X173857853Y-57308804D02*
X173895948Y-57346899D01*
X173895948Y-57346899D02*
X173934044Y-57423090D01*
X173934044Y-57423090D02*
X173934044Y-57537375D01*
X173934044Y-57537375D02*
X173895948Y-57613566D01*
X173895948Y-57613566D02*
X173857853Y-57651661D01*
X173857853Y-57651661D02*
X173781663Y-57689756D01*
X173781663Y-57689756D02*
X173476901Y-57689756D01*
X174238805Y-57346899D02*
X174276901Y-57308804D01*
X174276901Y-57308804D02*
X174353091Y-57270709D01*
X174353091Y-57270709D02*
X174543567Y-57270709D01*
X174543567Y-57270709D02*
X174619758Y-57308804D01*
X174619758Y-57308804D02*
X174657853Y-57346899D01*
X174657853Y-57346899D02*
X174695948Y-57423090D01*
X174695948Y-57423090D02*
X174695948Y-57499280D01*
X174695948Y-57499280D02*
X174657853Y-57613566D01*
X174657853Y-57613566D02*
X174200710Y-58070709D01*
X174200710Y-58070709D02*
X174695948Y-58070709D01*
X175191187Y-57270709D02*
X175267377Y-57270709D01*
X175267377Y-57270709D02*
X175343568Y-57308804D01*
X175343568Y-57308804D02*
X175381663Y-57346899D01*
X175381663Y-57346899D02*
X175419758Y-57423090D01*
X175419758Y-57423090D02*
X175457853Y-57575471D01*
X175457853Y-57575471D02*
X175457853Y-57765947D01*
X175457853Y-57765947D02*
X175419758Y-57918328D01*
X175419758Y-57918328D02*
X175381663Y-57994518D01*
X175381663Y-57994518D02*
X175343568Y-58032614D01*
X175343568Y-58032614D02*
X175267377Y-58070709D01*
X175267377Y-58070709D02*
X175191187Y-58070709D01*
X175191187Y-58070709D02*
X175114996Y-58032614D01*
X175114996Y-58032614D02*
X175076901Y-57994518D01*
X175076901Y-57994518D02*
X175038806Y-57918328D01*
X175038806Y-57918328D02*
X175000710Y-57765947D01*
X175000710Y-57765947D02*
X175000710Y-57575471D01*
X175000710Y-57575471D02*
X175038806Y-57423090D01*
X175038806Y-57423090D02*
X175076901Y-57346899D01*
X175076901Y-57346899D02*
X175114996Y-57308804D01*
X175114996Y-57308804D02*
X175191187Y-57270709D01*
X134964167Y-80362295D02*
X134697500Y-79981342D01*
X134507024Y-80362295D02*
X134507024Y-79562295D01*
X134507024Y-79562295D02*
X134811786Y-79562295D01*
X134811786Y-79562295D02*
X134887976Y-79600390D01*
X134887976Y-79600390D02*
X134926071Y-79638485D01*
X134926071Y-79638485D02*
X134964167Y-79714676D01*
X134964167Y-79714676D02*
X134964167Y-79828961D01*
X134964167Y-79828961D02*
X134926071Y-79905152D01*
X134926071Y-79905152D02*
X134887976Y-79943247D01*
X134887976Y-79943247D02*
X134811786Y-79981342D01*
X134811786Y-79981342D02*
X134507024Y-79981342D01*
X135268928Y-79638485D02*
X135307024Y-79600390D01*
X135307024Y-79600390D02*
X135383214Y-79562295D01*
X135383214Y-79562295D02*
X135573690Y-79562295D01*
X135573690Y-79562295D02*
X135649881Y-79600390D01*
X135649881Y-79600390D02*
X135687976Y-79638485D01*
X135687976Y-79638485D02*
X135726071Y-79714676D01*
X135726071Y-79714676D02*
X135726071Y-79790866D01*
X135726071Y-79790866D02*
X135687976Y-79905152D01*
X135687976Y-79905152D02*
X135230833Y-80362295D01*
X135230833Y-80362295D02*
X135726071Y-80362295D01*
X156812820Y-78825183D02*
X157378505Y-78259497D01*
X157109131Y-78528871D02*
X157432380Y-78852120D01*
X157136068Y-79148431D02*
X157701754Y-78582746D01*
X157917253Y-78798245D02*
X158267439Y-79148431D01*
X158267439Y-79148431D02*
X157863378Y-79175369D01*
X157863378Y-79175369D02*
X157944190Y-79256181D01*
X157944190Y-79256181D02*
X157971128Y-79336993D01*
X157971128Y-79336993D02*
X157971128Y-79390868D01*
X157971128Y-79390868D02*
X157944190Y-79471680D01*
X157944190Y-79471680D02*
X157809503Y-79606367D01*
X157809503Y-79606367D02*
X157728691Y-79633304D01*
X157728691Y-79633304D02*
X157674816Y-79633304D01*
X157674816Y-79633304D02*
X157594004Y-79606367D01*
X157594004Y-79606367D02*
X157432380Y-79444743D01*
X157432380Y-79444743D02*
X157405442Y-79363930D01*
X157405442Y-79363930D02*
X157405442Y-79310056D01*
X154562295Y-67766666D02*
X155133723Y-67766666D01*
X155133723Y-67766666D02*
X155248009Y-67804761D01*
X155248009Y-67804761D02*
X155324200Y-67880952D01*
X155324200Y-67880952D02*
X155362295Y-67995237D01*
X155362295Y-67995237D02*
X155362295Y-68071428D01*
X154562295Y-67461904D02*
X154562295Y-66966666D01*
X154562295Y-66966666D02*
X154867057Y-67233332D01*
X154867057Y-67233332D02*
X154867057Y-67119047D01*
X154867057Y-67119047D02*
X154905152Y-67042856D01*
X154905152Y-67042856D02*
X154943247Y-67004761D01*
X154943247Y-67004761D02*
X155019438Y-66966666D01*
X155019438Y-66966666D02*
X155209914Y-66966666D01*
X155209914Y-66966666D02*
X155286104Y-67004761D01*
X155286104Y-67004761D02*
X155324200Y-67042856D01*
X155324200Y-67042856D02*
X155362295Y-67119047D01*
X155362295Y-67119047D02*
X155362295Y-67347618D01*
X155362295Y-67347618D02*
X155324200Y-67423809D01*
X155324200Y-67423809D02*
X155286104Y-67461904D01*
X137233333Y-55562295D02*
X137233333Y-56133723D01*
X137233333Y-56133723D02*
X137195238Y-56248009D01*
X137195238Y-56248009D02*
X137119047Y-56324200D01*
X137119047Y-56324200D02*
X137004762Y-56362295D01*
X137004762Y-56362295D02*
X136928571Y-56362295D01*
X138033333Y-56362295D02*
X137576190Y-56362295D01*
X137804762Y-56362295D02*
X137804762Y-55562295D01*
X137804762Y-55562295D02*
X137728571Y-55676580D01*
X137728571Y-55676580D02*
X137652381Y-55752771D01*
X137652381Y-55752771D02*
X137576190Y-55790866D01*
X131857988Y-84133542D02*
X131819892Y-84171638D01*
X131819892Y-84171638D02*
X131705607Y-84209733D01*
X131705607Y-84209733D02*
X131629416Y-84209733D01*
X131629416Y-84209733D02*
X131515130Y-84171638D01*
X131515130Y-84171638D02*
X131438940Y-84095447D01*
X131438940Y-84095447D02*
X131400845Y-84019257D01*
X131400845Y-84019257D02*
X131362749Y-83866876D01*
X131362749Y-83866876D02*
X131362749Y-83752590D01*
X131362749Y-83752590D02*
X131400845Y-83600209D01*
X131400845Y-83600209D02*
X131438940Y-83524018D01*
X131438940Y-83524018D02*
X131515130Y-83447828D01*
X131515130Y-83447828D02*
X131629416Y-83409733D01*
X131629416Y-83409733D02*
X131705607Y-83409733D01*
X131705607Y-83409733D02*
X131819892Y-83447828D01*
X131819892Y-83447828D02*
X131857988Y-83485923D01*
X132543702Y-83676399D02*
X132543702Y-84209733D01*
X132353226Y-83371638D02*
X132162749Y-83943066D01*
X132162749Y-83943066D02*
X132657988Y-83943066D01*
X179710045Y-60283518D02*
X179710045Y-60997803D01*
X179710045Y-60997803D02*
X179662426Y-61140660D01*
X179662426Y-61140660D02*
X179567188Y-61235899D01*
X179567188Y-61235899D02*
X179424331Y-61283518D01*
X179424331Y-61283518D02*
X179329093Y-61283518D01*
X180614807Y-60616851D02*
X180614807Y-61283518D01*
X180376712Y-60235899D02*
X180138617Y-60950184D01*
X180138617Y-60950184D02*
X180757664Y-60950184D01*
X181238095Y-57454819D02*
X181238095Y-56454819D01*
X181238095Y-56931009D02*
X181809523Y-56931009D01*
X181809523Y-57454819D02*
X181809523Y-56454819D01*
X182761904Y-56454819D02*
X182285714Y-56454819D01*
X182285714Y-56454819D02*
X182238095Y-56931009D01*
X182238095Y-56931009D02*
X182285714Y-56883390D01*
X182285714Y-56883390D02*
X182380952Y-56835771D01*
X182380952Y-56835771D02*
X182619047Y-56835771D01*
X182619047Y-56835771D02*
X182714285Y-56883390D01*
X182714285Y-56883390D02*
X182761904Y-56931009D01*
X182761904Y-56931009D02*
X182809523Y-57026247D01*
X182809523Y-57026247D02*
X182809523Y-57264342D01*
X182809523Y-57264342D02*
X182761904Y-57359580D01*
X182761904Y-57359580D02*
X182714285Y-57407200D01*
X182714285Y-57407200D02*
X182619047Y-57454819D01*
X182619047Y-57454819D02*
X182380952Y-57454819D01*
X182380952Y-57454819D02*
X182285714Y-57407200D01*
X182285714Y-57407200D02*
X182238095Y-57359580D01*
D13*
%TO.C,U1*%
X130950000Y-78450000D02*
X130950000Y-78950000D01*
X130450000Y-78449999D01*
X130950000Y-78450000D01*
G36*
X130950000Y-78450000D02*
G01*
X130950000Y-78950000D01*
X130450000Y-78449999D01*
X130950000Y-78450000D01*
G37*
X149900000Y-78450000D02*
X148950000Y-78450000D01*
X149900000Y-77050000D02*
X149900000Y-78450000D01*
X149900000Y-61450000D02*
X149900000Y-60050000D01*
X149900000Y-60050000D02*
X148950000Y-60050000D01*
%TO.C,J2*%
X153911368Y-55211160D02*
X153911368Y-52451162D01*
X146181368Y-55211161D02*
X153911368Y-55211160D01*
X146181368Y-55211161D02*
X146181368Y-52451161D01*
X146181368Y-52451161D02*
X153911368Y-52451162D01*
X144911368Y-55211160D02*
X143531368Y-55211161D01*
X143531368Y-55211161D02*
X143531369Y-53831161D01*
%TO.C,J5*%
X154900765Y-54661227D02*
X154900764Y-53551227D01*
X156010765Y-54661228D02*
X154900765Y-54661227D01*
X157010765Y-52441227D02*
X163120765Y-52441227D01*
X157010765Y-54661227D02*
X157010765Y-52441227D01*
X157010765Y-54661227D02*
X163120765Y-54661227D01*
X163120765Y-54661227D02*
X163120765Y-52441227D01*
%TO.C,R25*%
X166667621Y-53619999D02*
X166332379Y-53619999D01*
X166667621Y-54380001D02*
X166332379Y-54380001D01*
%TO.C,R5*%
X136167621Y-57119999D02*
X135832379Y-57119999D01*
X136167621Y-57880001D02*
X135832379Y-57880001D01*
%TO.C,C5*%
X132115835Y-84640000D02*
X131884165Y-84640000D01*
X132115835Y-85360000D02*
X131884165Y-85360000D01*
%TO.C,R18*%
X178234879Y-56119999D02*
X178570121Y-56119999D01*
X178234879Y-56880001D02*
X178570121Y-56880001D01*
%TO.C,R19*%
X178570121Y-53619999D02*
X178234879Y-53619999D01*
X178570121Y-54380001D02*
X178234879Y-54380001D01*
%TO.C,R6*%
X139667621Y-57119999D02*
X139332379Y-57119999D01*
X139667621Y-57880001D02*
X139332379Y-57880001D01*
%TO.C,R23*%
X170570121Y-53619999D02*
X170234879Y-53619999D01*
X170570121Y-54380001D02*
X170234879Y-54380001D01*
%TO.C,C3*%
X132115835Y-80140000D02*
X131884165Y-80140000D01*
X132115835Y-80860000D02*
X131884165Y-80860000D01*
%TO.C,C2*%
X138140000Y-81884165D02*
X138140000Y-82115835D01*
X138860000Y-81884165D02*
X138860000Y-82115835D01*
%TO.C,SW2*%
X139950000Y-80800001D02*
X139950000Y-81850000D01*
X139950000Y-84150000D02*
X139950000Y-85199999D01*
X141550000Y-80800000D02*
X141450000Y-80800000D01*
X141550000Y-85200000D02*
X141450000Y-85200000D01*
X143050000Y-85199999D02*
X143050000Y-80800001D01*
%TO.C,R24*%
X166234879Y-56119999D02*
X166570121Y-56119999D01*
X166234879Y-56880001D02*
X166570121Y-56880001D01*
%TO.C,R22*%
X170234879Y-56119999D02*
X170570121Y-56119999D01*
X170234879Y-56880001D02*
X170570121Y-56880001D01*
%TO.C,R31*%
X132619999Y-57167621D02*
X132619999Y-56832379D01*
X133380001Y-57167621D02*
X133380001Y-56832379D01*
%TO.C,J6*%
X183390000Y-72890000D02*
X184500000Y-72890000D01*
X183390000Y-74000000D02*
X183390000Y-72890000D01*
X183390000Y-75000000D02*
X183390000Y-75110000D01*
X183390000Y-75000000D02*
X185610000Y-75000000D01*
X183390000Y-75110000D02*
X185610000Y-75110000D01*
X185610000Y-75000000D02*
X185610000Y-75110000D01*
%TO.C,R21*%
X174765121Y-53619999D02*
X174429879Y-53619999D01*
X174765121Y-54380001D02*
X174429879Y-54380001D01*
%TO.C,R20*%
X174429879Y-56119999D02*
X174765121Y-56119999D01*
X174429879Y-56880001D02*
X174765121Y-56880001D01*
%TO.C,R2*%
X134832379Y-80619999D02*
X135167621Y-80619999D01*
X134832379Y-81380001D02*
X135167621Y-81380001D01*
%TO.C,J3*%
X151890000Y-73500001D02*
X151890000Y-67390001D01*
X154110000Y-67390001D02*
X151890000Y-67390001D01*
X154110000Y-73500001D02*
X151890000Y-73500001D01*
X154110000Y-73500001D02*
X154110000Y-67390001D01*
X154110000Y-75610001D02*
X153000000Y-75610002D01*
X154110001Y-74500001D02*
X154110000Y-75610001D01*
%TO.C,J1*%
X138389999Y-52890000D02*
X138389999Y-55110000D01*
X140500000Y-52890000D02*
X138389999Y-52890000D01*
X140500000Y-52890000D02*
X140500000Y-55110000D01*
X140500000Y-55110000D02*
X138389999Y-55110000D01*
X141500000Y-52889999D02*
X142610000Y-52890000D01*
X142610000Y-52890000D02*
X142610001Y-54000000D01*
%TO.C,C4*%
X132107156Y-82327438D02*
X131875486Y-82327438D01*
X132107156Y-83047438D02*
X131875486Y-83047438D01*
%TO.C,J4*%
X178890000Y-61890000D02*
X180000000Y-61890000D01*
X178890000Y-63000000D02*
X178890000Y-61890000D01*
X178890000Y-64000000D02*
X178890000Y-76110000D01*
X178890000Y-64000000D02*
X181110000Y-64000000D01*
X178890000Y-76110000D02*
X181110000Y-76110000D01*
X181110000Y-64000000D02*
X181110000Y-76110000D01*
%TD*%
M02*
