M48
; DRILL file {KiCad 9.0.5} date 2026-09-27T21:23:36+0200
; FORMAT={-:-/ absolute / metric / decimal}
; #@! TF.CreationDate,2026-09-27T21:23:36+02:00
; #@! TF.GenerationSoftware,Kicad,Pcbnew,9.0.5
; #@! TF.FileFunction,Plated,1,4,PTH
FMAT,2
METRIC
; #@! TA.AperFunction,Plated,PTH,ComponentDrill
T1C0.200
; #@! TA.AperFunction,Plated,PTH,ViaDrill
T2C0.300
; #@! TA.AperFunction,Plated,PTH,ComponentDrill
T3C0.800
; #@! TA.AperFunction,Plated,PTH,ComponentDrill
T4C1.000
; #@! TA.AperFunction,Plated,PTH,ComponentDrill
T5C2.200
; #@! TA.AperFunction,Plated,PTH,ComponentDrill
T6C2.700
%
G90
G05
T1
X138.01Y-70.05
X138.01Y-71.45
X138.71Y-69.35
X138.71Y-70.75
X138.71Y-72.15
X139.41Y-70.05
X139.41Y-71.45
X140.11Y-69.35
X140.11Y-70.75
X140.11Y-72.15
X140.81Y-70.05
X140.81Y-71.45
T2
X131.0Y-76.0
X131.5Y-54.0
X131.5Y-59.0
X131.5Y-72.0
X133.0Y-55.5
X133.5Y-76.0
X133.961Y-71.539
X134.0Y-57.0
X134.0Y-63.5
X134.0Y-67.0
X134.0Y-80.5
X134.5Y-69.5
X135.0Y-65.0
X135.0Y-74.5
X135.0Y-76.0
X135.5Y-79.5
X136.0Y-59.0
X136.0Y-67.0
X136.5Y-69.5
X136.5Y-71.5
X136.5Y-74.5
X136.5Y-76.0
X137.0Y-57.0
X137.0Y-59.0
X137.0Y-62.5
X137.433Y-79.932
X137.5Y-64.5
X138.49Y-79.007
X138.5Y-56.0
X138.5Y-63.5
X138.5Y-67.5
X138.5Y-83.5
X139.0Y-74.5
X139.195Y-80.882
X139.5Y-76.5
X139.53Y-80.05
X140.5Y-57.0
X140.5Y-61.75
X140.5Y-79.2
X141.0Y-67.95
X141.5Y-74.5
X141.992Y-83.31
X142.0Y-57.0
X142.0Y-77.0
X142.0Y-82.0
X142.0Y-85.8
X143.5Y-66.5
X143.5Y-68.5
X143.5Y-71.0
X143.5Y-77.0
X143.5Y-81.0
X144.5Y-76.0
X144.5Y-83.0
X145.0Y-58.0
X145.0Y-66.5
X145.0Y-73.5
X145.5Y-64.0
X145.5Y-68.5
X145.5Y-70.0
X146.5Y-72.0
X147.0Y-76.45
X147.5Y-68.5
X147.5Y-70.0
X147.5Y-82.5
X148.0Y-59.0
X148.0Y-62.0
X148.0Y-65.0
X148.5Y-76.0
X148.5Y-84.0
X149.5Y-59.0
X149.5Y-80.55
X149.5Y-85.5
X150.95Y-73.0
X151.0Y-67.5
X151.0Y-69.0
X151.0Y-71.5
X151.0Y-81.0
X151.263Y-77.721
X152.0Y-55.95
X152.0Y-64.0
X152.5Y-65.0
X153.0Y-78.5
X153.0Y-81.0
X153.0Y-83.0
X154.0Y-59.0
X154.5Y-66.5
X154.82Y-76.871
X155.0Y-55.5
X155.5Y-63.0
X155.5Y-73.5
X156.0Y-85.0
X156.5Y-75.0
X156.5Y-79.0
X156.75Y-63.25
X157.0Y-72.0
X157.0Y-82.5
X158.0Y-67.5
X158.0Y-55.5
X158.0Y-73.5
X159.5Y-72.0
X159.95Y-69.0
X160.5Y-64.5
X160.5Y-68.0
X161.476Y-55.91
X161.5Y-72.5
X161.5Y-74.0
X162.0Y-68.5
X162.619Y-55.381
X164.0Y-72.5
X164.5Y-52.5
X164.5Y-54.0
X165.0Y-59.0
X165.0Y-60.5
X165.0Y-62.0
X165.0Y-63.5
X165.0Y-74.0
X165.5Y-73.0
X166.0Y-52.5
X167.0Y-59.0
X167.0Y-60.5
X167.0Y-62.0
X167.0Y-63.5
X167.0Y-81.0
X167.5Y-52.5
X168.5Y-83.0
X169.0Y-73.5
X169.0Y-80.0
X169.5Y-52.55
X169.5Y-64.5
X169.5Y-70.5
X169.5Y-72.0
X169.5Y-75.5
X169.5Y-82.5
X170.0Y-68.0
X170.5Y-62.0
X172.0Y-62.0
X172.0Y-81.0
X172.0Y-83.5
X172.5Y-72.5
X173.0Y-75.5
X174.0Y-74.0
X174.5Y-53.05
X174.5Y-81.5
X175.5Y-66.5
X175.5Y-73.5
X176.0Y-67.5
X176.5Y-57.5
X177.0Y-54.5
X177.5Y-64.0
X177.5Y-65.5
X178.0Y-73.0
X178.5Y-81.0
X182.5Y-81.5
X183.5Y-57.0
X184.5Y-72.0
X185.0Y-75.5
X185.0Y-79.5
X185.0Y-81.5
X185.21Y-65.127
X185.238Y-63.445
X185.242Y-66.73
X185.255Y-68.784
X185.283Y-60.097
X185.283Y-70.687
X185.297Y-61.545
X185.3Y-57.0
X185.3Y-58.5
T3
X139.5Y-54.0
X141.5Y-54.0
X153.0Y-68.5
X153.0Y-70.5
X153.0Y-72.5
X153.0Y-74.5
X156.011Y-53.551
X158.011Y-53.551
X160.011Y-53.551
X162.011Y-53.551
X180.0Y-63.0
X180.0Y-65.0
X180.0Y-67.0
X180.0Y-69.0
X180.0Y-71.0
X180.0Y-73.0
X180.0Y-75.0
X184.5Y-74.0
T4
X144.911Y-53.831
X147.451Y-53.831
X149.991Y-53.831
X152.531Y-53.831
T5
X135.5Y-54.0
X135.5Y-84.0
X183.5Y-54.0
X183.5Y-84.0
T6
X160.0Y-61.0
X160.0Y-77.0
X176.0Y-61.0
X176.0Y-77.0
M30
