%TF.GenerationSoftware,KiCad,Pcbnew,9.0.5*%
%TF.CreationDate,2026-09-27T21:22:05+02:00*%
%TF.ProjectId,Dron,44726f6e-2e6b-4696-9361-645f70636258,rev?*%
%TF.SameCoordinates,Original*%
%TF.FileFunction,Soldermask,Top*%
%TF.FilePolarity,Negative*%
%FSLAX46Y46*%
G04 Gerber Fmt 4.6, Leading zero omitted, Abs format (unit mm)*
G04 Created by KiCad (PCBNEW 9.0.5) date 2026-09-27 21:22:05*
%MOMM*%
%LPD*%
G01*
G04 APERTURE LIST*
G04 Aperture macros list*
%AMRoundRect*
0 Rectangle with rounded corners*
0 $1 Rounding radius*
0 $2 $3 $4 $5 $6 $7 $8 $9 X,Y pos of 4 corners*
0 Add a 4 corners polygon primitive as box body*
4,1,4,$2,$3,$4,$5,$6,$7,$8,$9,$2,$3,0*
0 Add four circle primitives for the rounded corners*
1,1,$1+$1,$2,$3*
1,1,$1+$1,$4,$5*
1,1,$1+$1,$6,$7*
1,1,$1+$1,$8,$9*
0 Add four rect primitives between the rounded corners*
20,1,$1+$1,$2,$3,$4,$5,0*
20,1,$1+$1,$4,$5,$6,$7,0*
20,1,$1+$1,$6,$7,$8,$9,0*
20,1,$1+$1,$8,$9,$2,$3,0*%
G04 Aperture macros list end*
%ADD10R,0.900000X0.900000*%
%ADD11C,0.600000*%
%ADD12R,0.900000X1.500000*%
%ADD13R,1.500000X0.900000*%
%ADD14C,1.700000*%
%ADD15R,1.700000X1.700000*%
%ADD16C,3.800000*%
%ADD17R,1.350000X1.350000*%
%ADD18C,1.350000*%
%ADD19C,4.700000*%
%ADD20RoundRect,0.160000X0.197500X0.160000X-0.197500X0.160000X-0.197500X-0.160000X0.197500X-0.160000X0*%
%ADD21RoundRect,0.155000X0.212500X0.155000X-0.212500X0.155000X-0.212500X-0.155000X0.212500X-0.155000X0*%
%ADD22RoundRect,0.160000X-0.197500X-0.160000X0.197500X-0.160000X0.197500X0.160000X-0.197500X0.160000X0*%
%ADD23RoundRect,0.155000X-0.155000X0.212500X-0.155000X-0.212500X0.155000X-0.212500X0.155000X0.212500X0*%
%ADD24R,1.000000X0.900000*%
%ADD25R,0.550000X1.700000*%
%ADD26RoundRect,0.160000X0.160000X-0.197500X0.160000X0.197500X-0.160000X0.197500X-0.160000X-0.197500X0*%
G04 APERTURE END LIST*
D10*
%TO.C,U1*%
X140810000Y-69350000D03*
D11*
X140110000Y-69350000D03*
D10*
X139410000Y-69350000D03*
D11*
X138710000Y-69350000D03*
D10*
X138010000Y-69350000D03*
D11*
X140810000Y-70050000D03*
X139410000Y-70050000D03*
X138010000Y-70050000D03*
D10*
X140810000Y-70750000D03*
D11*
X140110000Y-70750000D03*
D10*
X139410000Y-70750000D03*
D11*
X138710000Y-70750000D03*
D10*
X138010000Y-70750000D03*
D11*
X140810000Y-71450000D03*
X139410000Y-71450000D03*
X138010000Y-71450000D03*
D10*
X140810000Y-72150000D03*
D11*
X140110000Y-72150000D03*
D10*
X139410000Y-72150000D03*
D11*
X138710000Y-72150000D03*
D10*
X138010000Y-72150000D03*
D12*
X131690000Y-60500000D03*
X132960000Y-60500000D03*
X134230000Y-60500000D03*
X135500000Y-60500000D03*
X136770000Y-60500000D03*
X138040000Y-60500000D03*
X139310000Y-60500000D03*
X140580000Y-60500000D03*
X141850000Y-60500000D03*
X143120000Y-60500000D03*
X144390000Y-60500000D03*
X145660000Y-60500000D03*
X146930000Y-60500000D03*
X148200000Y-60500000D03*
D13*
X149450000Y-63535000D03*
X149450000Y-64805000D03*
X149450000Y-66075000D03*
X149450000Y-67345000D03*
X149450000Y-68615000D03*
X149450000Y-69885000D03*
X149450000Y-71155000D03*
X149450000Y-72425000D03*
X149450000Y-73695000D03*
X149450000Y-74965000D03*
D12*
X148200000Y-78000000D03*
X146930000Y-78000000D03*
X145660000Y-78000000D03*
X144390000Y-78000000D03*
X143120000Y-78000000D03*
X141850000Y-78000000D03*
X140580000Y-78000000D03*
X139310000Y-78000000D03*
X138040000Y-78000000D03*
X136770000Y-78000000D03*
X135500000Y-78000000D03*
X134230000Y-78000000D03*
X132960000Y-78000000D03*
X131690000Y-78000000D03*
%TD*%
D14*
%TO.C,J2*%
X152531368Y-53831161D03*
X149991367Y-53831161D03*
X147451368Y-53831161D03*
D15*
X144911368Y-53831161D03*
%TD*%
D16*
%TO.C,H7*%
X135499999Y-53999999D03*
%TD*%
D17*
%TO.C,J5*%
X156010765Y-53551227D03*
D18*
X158010766Y-53551227D03*
X160010765Y-53551227D03*
X162010765Y-53551227D03*
%TD*%
D19*
%TO.C,H1*%
X160000000Y-61000000D03*
%TD*%
D20*
%TO.C,R25*%
X167097500Y-54000000D03*
X165902500Y-54000000D03*
%TD*%
%TO.C,R5*%
X136597500Y-57500000D03*
X135402500Y-57500000D03*
%TD*%
D19*
%TO.C,H2*%
X176000000Y-61000000D03*
%TD*%
D21*
%TO.C,C5*%
X132567500Y-85000000D03*
X131432500Y-85000000D03*
%TD*%
D22*
%TO.C,R18*%
X177805000Y-56500000D03*
X179000000Y-56500000D03*
%TD*%
D20*
%TO.C,R19*%
X179000000Y-54000000D03*
X177805000Y-54000000D03*
%TD*%
%TO.C,R6*%
X140097500Y-57500000D03*
X138902500Y-57500000D03*
%TD*%
%TO.C,R23*%
X171000000Y-54000000D03*
X169805000Y-54000000D03*
%TD*%
D21*
%TO.C,C3*%
X132567500Y-80500000D03*
X131432500Y-80500000D03*
%TD*%
D23*
%TO.C,C2*%
X138500000Y-81432500D03*
X138500000Y-82567500D03*
%TD*%
D24*
%TO.C,SW2*%
X140700000Y-85049999D03*
X140700000Y-80950001D03*
X142300000Y-85049999D03*
X142300000Y-80950001D03*
D25*
X140075000Y-83000000D03*
%TD*%
D19*
%TO.C,H4*%
X176000000Y-77000000D03*
%TD*%
D22*
%TO.C,R24*%
X165805000Y-56500000D03*
X167000000Y-56500000D03*
%TD*%
D16*
%TO.C,H8*%
X183500000Y-84000000D03*
%TD*%
D22*
%TO.C,R22*%
X169805000Y-56500000D03*
X171000000Y-56500000D03*
%TD*%
D16*
%TO.C,H6*%
X135500000Y-84000000D03*
%TD*%
D26*
%TO.C,R31*%
X133000000Y-57597500D03*
X133000000Y-56402500D03*
%TD*%
D17*
%TO.C,J6*%
X184500000Y-74000000D03*
%TD*%
D20*
%TO.C,R21*%
X175195000Y-54000000D03*
X174000000Y-54000000D03*
%TD*%
D22*
%TO.C,R20*%
X174000000Y-56500000D03*
X175195000Y-56500000D03*
%TD*%
%TO.C,R2*%
X134402500Y-81000000D03*
X135597500Y-81000000D03*
%TD*%
D19*
%TO.C,H3*%
X160000000Y-77000000D03*
%TD*%
D17*
%TO.C,J3*%
X153000000Y-74500001D03*
D18*
X153000000Y-72500000D03*
X153000000Y-70500001D03*
X153000000Y-68500001D03*
%TD*%
D17*
%TO.C,J1*%
X141500000Y-54000000D03*
D18*
X139499999Y-54000000D03*
%TD*%
D21*
%TO.C,C4*%
X132558821Y-82687438D03*
X131423821Y-82687438D03*
%TD*%
D17*
%TO.C,J4*%
X180000000Y-63000000D03*
D18*
X180000000Y-65000000D03*
X180000000Y-67000000D03*
X180000000Y-69000000D03*
X180000000Y-71000000D03*
X180000000Y-73000000D03*
X180000000Y-75000000D03*
%TD*%
D16*
%TO.C,H5*%
X183500000Y-54000000D03*
%TD*%
M02*
