%TF.GenerationSoftware,KiCad,Pcbnew,9.0.5*%
%TF.CreationDate,2026-09-27T21:22:05+02:00*%
%TF.ProjectId,Dron,44726f6e-2e6b-4696-9361-645f70636258,rev?*%
%TF.SameCoordinates,Original*%
%TF.FileFunction,Legend,Bot*%
%TF.FilePolarity,Positive*%
%FSLAX46Y46*%
G04 Gerber Fmt 4.6, Leading zero omitted, Abs format (unit mm)*
G04 Created by KiCad (PCBNEW 9.0.5) date 2026-09-27 21:22:05*
%MOMM*%
%LPD*%
G01*
G04 APERTURE LIST*
%ADD10C,0.150000*%
%ADD11C,0.000000*%
%ADD12C,0.120000*%
%ADD13C,0.250000*%
%ADD14C,0.200000*%
%ADD15C,0.127000*%
%ADD16C,0.152400*%
G04 APERTURE END LIST*
D10*
X182367609Y-60291792D02*
X182405704Y-60367982D01*
X182405704Y-60367982D02*
X182405704Y-60482268D01*
X182405704Y-60482268D02*
X182367609Y-60596554D01*
X182367609Y-60596554D02*
X182291419Y-60672744D01*
X182291419Y-60672744D02*
X182215228Y-60710839D01*
X182215228Y-60710839D02*
X182062847Y-60748935D01*
X182062847Y-60748935D02*
X181948561Y-60748935D01*
X181948561Y-60748935D02*
X181796180Y-60710839D01*
X181796180Y-60710839D02*
X181719990Y-60672744D01*
X181719990Y-60672744D02*
X181643800Y-60596554D01*
X181643800Y-60596554D02*
X181605704Y-60482268D01*
X181605704Y-60482268D02*
X181605704Y-60406077D01*
X181605704Y-60406077D02*
X181643800Y-60291792D01*
X181643800Y-60291792D02*
X181681895Y-60253696D01*
X181681895Y-60253696D02*
X181948561Y-60253696D01*
X181948561Y-60253696D02*
X181948561Y-60406077D01*
X181605704Y-59910839D02*
X182405704Y-59910839D01*
X182405704Y-59910839D02*
X181605704Y-59453696D01*
X181605704Y-59453696D02*
X182405704Y-59453696D01*
X181605704Y-59072744D02*
X182405704Y-59072744D01*
X182405704Y-59072744D02*
X182405704Y-58882268D01*
X182405704Y-58882268D02*
X182367609Y-58767982D01*
X182367609Y-58767982D02*
X182291419Y-58691792D01*
X182291419Y-58691792D02*
X182215228Y-58653697D01*
X182215228Y-58653697D02*
X182062847Y-58615601D01*
X182062847Y-58615601D02*
X181948561Y-58615601D01*
X181948561Y-58615601D02*
X181796180Y-58653697D01*
X181796180Y-58653697D02*
X181719990Y-58691792D01*
X181719990Y-58691792D02*
X181643800Y-58767982D01*
X181643800Y-58767982D02*
X181605704Y-58882268D01*
X181605704Y-58882268D02*
X181605704Y-59072744D01*
X174478031Y-66411969D02*
X174820888Y-66411969D01*
X174649459Y-66411969D02*
X174649459Y-65811969D01*
X174649459Y-65811969D02*
X174706602Y-65897683D01*
X174706602Y-65897683D02*
X174763745Y-65954826D01*
X174763745Y-65954826D02*
X174820888Y-65983398D01*
X174220887Y-66354826D02*
X174192316Y-66383398D01*
X174192316Y-66383398D02*
X174220887Y-66411969D01*
X174220887Y-66411969D02*
X174249459Y-66383398D01*
X174249459Y-66383398D02*
X174220887Y-66354826D01*
X174220887Y-66354826D02*
X174220887Y-66411969D01*
X173849459Y-66069112D02*
X173906602Y-66040540D01*
X173906602Y-66040540D02*
X173935173Y-66011969D01*
X173935173Y-66011969D02*
X173963745Y-65954826D01*
X173963745Y-65954826D02*
X173963745Y-65926255D01*
X173963745Y-65926255D02*
X173935173Y-65869112D01*
X173935173Y-65869112D02*
X173906602Y-65840540D01*
X173906602Y-65840540D02*
X173849459Y-65811969D01*
X173849459Y-65811969D02*
X173735173Y-65811969D01*
X173735173Y-65811969D02*
X173678031Y-65840540D01*
X173678031Y-65840540D02*
X173649459Y-65869112D01*
X173649459Y-65869112D02*
X173620888Y-65926255D01*
X173620888Y-65926255D02*
X173620888Y-65954826D01*
X173620888Y-65954826D02*
X173649459Y-66011969D01*
X173649459Y-66011969D02*
X173678031Y-66040540D01*
X173678031Y-66040540D02*
X173735173Y-66069112D01*
X173735173Y-66069112D02*
X173849459Y-66069112D01*
X173849459Y-66069112D02*
X173906602Y-66097683D01*
X173906602Y-66097683D02*
X173935173Y-66126255D01*
X173935173Y-66126255D02*
X173963745Y-66183398D01*
X173963745Y-66183398D02*
X173963745Y-66297683D01*
X173963745Y-66297683D02*
X173935173Y-66354826D01*
X173935173Y-66354826D02*
X173906602Y-66383398D01*
X173906602Y-66383398D02*
X173849459Y-66411969D01*
X173849459Y-66411969D02*
X173735173Y-66411969D01*
X173735173Y-66411969D02*
X173678031Y-66383398D01*
X173678031Y-66383398D02*
X173649459Y-66354826D01*
X173649459Y-66354826D02*
X173620888Y-66297683D01*
X173620888Y-66297683D02*
X173620888Y-66183398D01*
X173620888Y-66183398D02*
X173649459Y-66126255D01*
X173649459Y-66126255D02*
X173678031Y-66097683D01*
X173678031Y-66097683D02*
X173735173Y-66069112D01*
X173449459Y-65811969D02*
X173249459Y-66411969D01*
X173249459Y-66411969D02*
X173049459Y-65811969D01*
X134489837Y-73208977D02*
X134139651Y-72858791D01*
X134139651Y-72858791D02*
X134112714Y-73262852D01*
X134112714Y-73262852D02*
X134031901Y-73182040D01*
X134031901Y-73182040D02*
X133951089Y-73155102D01*
X133951089Y-73155102D02*
X133897214Y-73155102D01*
X133897214Y-73155102D02*
X133816402Y-73182040D01*
X133816402Y-73182040D02*
X133681715Y-73316727D01*
X133681715Y-73316727D02*
X133654778Y-73397539D01*
X133654778Y-73397539D02*
X133654778Y-73451414D01*
X133654778Y-73451414D02*
X133681715Y-73532226D01*
X133681715Y-73532226D02*
X133843340Y-73693850D01*
X133843340Y-73693850D02*
X133924152Y-73720788D01*
X133924152Y-73720788D02*
X133978027Y-73720788D01*
X133385404Y-73128165D02*
X133331529Y-73128165D01*
X133331529Y-73128165D02*
X133331529Y-73182040D01*
X133331529Y-73182040D02*
X133385404Y-73182040D01*
X133385404Y-73182040D02*
X133385404Y-73128165D01*
X133385404Y-73128165D02*
X133331529Y-73182040D01*
X133681715Y-72400855D02*
X133331529Y-72050669D01*
X133331529Y-72050669D02*
X133304592Y-72454730D01*
X133304592Y-72454730D02*
X133223779Y-72373918D01*
X133223779Y-72373918D02*
X133142967Y-72346980D01*
X133142967Y-72346980D02*
X133089092Y-72346980D01*
X133089092Y-72346980D02*
X133008280Y-72373918D01*
X133008280Y-72373918D02*
X132873593Y-72508605D01*
X132873593Y-72508605D02*
X132846656Y-72589417D01*
X132846656Y-72589417D02*
X132846656Y-72643292D01*
X132846656Y-72643292D02*
X132873593Y-72724104D01*
X132873593Y-72724104D02*
X133035218Y-72885728D01*
X133035218Y-72885728D02*
X133116030Y-72912666D01*
X133116030Y-72912666D02*
X133169905Y-72912666D01*
X133169904Y-71889044D02*
X132415657Y-72266168D01*
X132415657Y-72266168D02*
X132792781Y-71511921D01*
X149385728Y-81833411D02*
X149655102Y-81564037D01*
X149655102Y-81564037D02*
X149951414Y-81806473D01*
X149951414Y-81806473D02*
X149897539Y-81806473D01*
X149897539Y-81806473D02*
X149816727Y-81833411D01*
X149816727Y-81833411D02*
X149682040Y-81968098D01*
X149682040Y-81968098D02*
X149655102Y-82048910D01*
X149655102Y-82048910D02*
X149655102Y-82102785D01*
X149655102Y-82102785D02*
X149682040Y-82183597D01*
X149682040Y-82183597D02*
X149816727Y-82318284D01*
X149816727Y-82318284D02*
X149897539Y-82345221D01*
X149897539Y-82345221D02*
X149951414Y-82345221D01*
X149951414Y-82345221D02*
X150032226Y-82318284D01*
X150032226Y-82318284D02*
X150166913Y-82183597D01*
X150166913Y-82183597D02*
X150193850Y-82102785D01*
X150193850Y-82102785D02*
X150193850Y-82048910D01*
X149197166Y-82021973D02*
X149574290Y-82776220D01*
X149574290Y-82776220D02*
X148820043Y-82399096D01*
X185024752Y-77944173D02*
X184986657Y-77829887D01*
X184986657Y-77829887D02*
X184948561Y-77791792D01*
X184948561Y-77791792D02*
X184872371Y-77753696D01*
X184872371Y-77753696D02*
X184758085Y-77753696D01*
X184758085Y-77753696D02*
X184681895Y-77791792D01*
X184681895Y-77791792D02*
X184643800Y-77829887D01*
X184643800Y-77829887D02*
X184605704Y-77906077D01*
X184605704Y-77906077D02*
X184605704Y-78210839D01*
X184605704Y-78210839D02*
X185405704Y-78210839D01*
X185405704Y-78210839D02*
X185405704Y-77944173D01*
X185405704Y-77944173D02*
X185367609Y-77867982D01*
X185367609Y-77867982D02*
X185329514Y-77829887D01*
X185329514Y-77829887D02*
X185253323Y-77791792D01*
X185253323Y-77791792D02*
X185177133Y-77791792D01*
X185177133Y-77791792D02*
X185100942Y-77829887D01*
X185100942Y-77829887D02*
X185062847Y-77867982D01*
X185062847Y-77867982D02*
X185024752Y-77944173D01*
X185024752Y-77944173D02*
X185024752Y-78210839D01*
X184834276Y-77448935D02*
X184834276Y-77067982D01*
X184605704Y-77525125D02*
X185405704Y-77258458D01*
X185405704Y-77258458D02*
X184605704Y-76991792D01*
X185405704Y-76839411D02*
X185405704Y-76382268D01*
X184605704Y-76610840D02*
X185405704Y-76610840D01*
X185405704Y-76229887D02*
X185405704Y-75772744D01*
X184605704Y-76001316D02*
X185405704Y-76001316D01*
D11*
G36*
X172896156Y-52230036D02*
G01*
X172948701Y-52234111D01*
X172979101Y-52238179D01*
X172999467Y-52240903D01*
X173048073Y-52250460D01*
X173094138Y-52262835D01*
X173163706Y-52287294D01*
X173230662Y-52317146D01*
X173294969Y-52352343D01*
X173356590Y-52392842D01*
X173415483Y-52438595D01*
X173471612Y-52489555D01*
X173503029Y-52522620D01*
X173524939Y-52545680D01*
X173575425Y-52606921D01*
X173623031Y-52673236D01*
X173667719Y-52744575D01*
X173709451Y-52820896D01*
X173748190Y-52902151D01*
X173783893Y-52988296D01*
X173816528Y-53079284D01*
X173846052Y-53175070D01*
X173872427Y-53275607D01*
X173888812Y-53348640D01*
X173902883Y-53422365D01*
X173914638Y-53496924D01*
X173924072Y-53572455D01*
X173931182Y-53649097D01*
X173935965Y-53726988D01*
X173938416Y-53806268D01*
X173938533Y-53887076D01*
X173936310Y-53969549D01*
X173931746Y-54053829D01*
X173924835Y-54140051D01*
X173915575Y-54228356D01*
X173903962Y-54318884D01*
X173889992Y-54411771D01*
X173873661Y-54507158D01*
X173854965Y-54605184D01*
X173832961Y-54710078D01*
X173809421Y-54811508D01*
X173783514Y-54912323D01*
X173754406Y-55015376D01*
X173721264Y-55123515D01*
X173683254Y-55239591D01*
X173639544Y-55366452D01*
X173589300Y-55506952D01*
X173571147Y-55557389D01*
X173555571Y-55601933D01*
X173542662Y-55641091D01*
X173532512Y-55675372D01*
X173528500Y-55690839D01*
X173525211Y-55705280D01*
X173522658Y-55718754D01*
X173520852Y-55731326D01*
X173519805Y-55743061D01*
X173519526Y-55754020D01*
X173520029Y-55764266D01*
X173521325Y-55773865D01*
X173523424Y-55782879D01*
X173526339Y-55791372D01*
X173530080Y-55799407D01*
X173534660Y-55807048D01*
X173540089Y-55814360D01*
X173546378Y-55821402D01*
X173553541Y-55828242D01*
X173561588Y-55834942D01*
X173570529Y-55841564D01*
X173580378Y-55848174D01*
X173602839Y-55861607D01*
X173629065Y-55875748D01*
X173659146Y-55891107D01*
X173697244Y-55911072D01*
X173733888Y-55932136D01*
X173769079Y-55954287D01*
X173802808Y-55977517D01*
X173835072Y-56001811D01*
X173865870Y-56027162D01*
X173895193Y-56053556D01*
X173923040Y-56080984D01*
X173949404Y-56109431D01*
X173974282Y-56138888D01*
X173997670Y-56169345D01*
X174019563Y-56200790D01*
X174039957Y-56233212D01*
X174058848Y-56266598D01*
X174076231Y-56300939D01*
X174092101Y-56336222D01*
X174106456Y-56372438D01*
X174119288Y-56409574D01*
X174130596Y-56447621D01*
X174140376Y-56486563D01*
X174148621Y-56526394D01*
X174155328Y-56567100D01*
X174160493Y-56608671D01*
X174164110Y-56651096D01*
X174166177Y-56694363D01*
X174166688Y-56738461D01*
X174165640Y-56783380D01*
X174163027Y-56829106D01*
X174158845Y-56875630D01*
X174153091Y-56922941D01*
X174145759Y-56971026D01*
X174136847Y-57019876D01*
X174130204Y-57057607D01*
X174124393Y-57094419D01*
X174119548Y-57129388D01*
X174117529Y-57145896D01*
X174115799Y-57161596D01*
X174114377Y-57176375D01*
X174113278Y-57190118D01*
X174112519Y-57202712D01*
X174112115Y-57214038D01*
X174112086Y-57223984D01*
X174112444Y-57232433D01*
X174113209Y-57239271D01*
X174113749Y-57242049D01*
X174114396Y-57244382D01*
X174119266Y-57257787D01*
X174125937Y-57271354D01*
X174134429Y-57285095D01*
X174144759Y-57299027D01*
X174156944Y-57313164D01*
X174171005Y-57327519D01*
X174186958Y-57342109D01*
X174204822Y-57356946D01*
X174224615Y-57372047D01*
X174246357Y-57387426D01*
X174270064Y-57403098D01*
X174295755Y-57419076D01*
X174323448Y-57435375D01*
X174353163Y-57452011D01*
X174418725Y-57486351D01*
X174493498Y-57522745D01*
X174565430Y-57554287D01*
X174634666Y-57580976D01*
X174701348Y-57602812D01*
X174765617Y-57619796D01*
X174796892Y-57626469D01*
X174827618Y-57631929D01*
X174857811Y-57636174D01*
X174887492Y-57639207D01*
X174916676Y-57641027D01*
X174945381Y-57641634D01*
X174973627Y-57641027D01*
X175001430Y-57639207D01*
X175028807Y-57636174D01*
X175055778Y-57631928D01*
X175082359Y-57626468D01*
X175108570Y-57619797D01*
X175134426Y-57611912D01*
X175159949Y-57602812D01*
X175185151Y-57592500D01*
X175210055Y-57580976D01*
X175234676Y-57568238D01*
X175259033Y-57554287D01*
X175283143Y-57539123D01*
X175307023Y-57522745D01*
X175330694Y-57505154D01*
X175354170Y-57486350D01*
X175364713Y-57477820D01*
X175375254Y-57469563D01*
X175385733Y-57461617D01*
X175396090Y-57454019D01*
X175406263Y-57446808D01*
X175416195Y-57440023D01*
X175425822Y-57433703D01*
X175435085Y-57427886D01*
X175443926Y-57422607D01*
X175452282Y-57417909D01*
X175460093Y-57413828D01*
X175467300Y-57410404D01*
X175473842Y-57407674D01*
X175479659Y-57405675D01*
X175484690Y-57404449D01*
X175486891Y-57404137D01*
X175488874Y-57404031D01*
X175494009Y-57404218D01*
X175499120Y-57404772D01*
X175504194Y-57405679D01*
X175509223Y-57406923D01*
X175514193Y-57408492D01*
X175519095Y-57410370D01*
X175523916Y-57412546D01*
X175528650Y-57415003D01*
X175533282Y-57417729D01*
X175537803Y-57420711D01*
X175542203Y-57423932D01*
X175546470Y-57427380D01*
X175550593Y-57431042D01*
X175554562Y-57434902D01*
X175558366Y-57438947D01*
X175561994Y-57443163D01*
X175565436Y-57447536D01*
X175568680Y-57452053D01*
X175571719Y-57456699D01*
X175574537Y-57461461D01*
X175577127Y-57466323D01*
X175579477Y-57471274D01*
X175581576Y-57476298D01*
X175583412Y-57481380D01*
X175584976Y-57486509D01*
X175586259Y-57491669D01*
X175587248Y-57496848D01*
X175587931Y-57502031D01*
X175588300Y-57507203D01*
X175588343Y-57512352D01*
X175588047Y-57517463D01*
X175587408Y-57522520D01*
X175585260Y-57532006D01*
X175582112Y-57541740D01*
X175572934Y-57561860D01*
X175560114Y-57582700D01*
X175543889Y-57604080D01*
X175524500Y-57625816D01*
X175502186Y-57647730D01*
X175477188Y-57669643D01*
X175449742Y-57691368D01*
X175420089Y-57712728D01*
X175388468Y-57733543D01*
X175355118Y-57753631D01*
X175320280Y-57772810D01*
X175284193Y-57790900D01*
X175247093Y-57807721D01*
X175209225Y-57823091D01*
X175170823Y-57836830D01*
X175118784Y-57850892D01*
X175063026Y-57860409D01*
X175003953Y-57865476D01*
X174941970Y-57866198D01*
X174877481Y-57862675D01*
X174810890Y-57855005D01*
X174742598Y-57843290D01*
X174673012Y-57827631D01*
X174602533Y-57808127D01*
X174531567Y-57784881D01*
X174460515Y-57757990D01*
X174389786Y-57727557D01*
X174319779Y-57693683D01*
X174250899Y-57656466D01*
X174183551Y-57616009D01*
X174118138Y-57572410D01*
X174108501Y-57565722D01*
X174098810Y-57559241D01*
X174089126Y-57553002D01*
X174079511Y-57547037D01*
X174070029Y-57541378D01*
X174060739Y-57536059D01*
X174051706Y-57531115D01*
X174042989Y-57526573D01*
X174034655Y-57522472D01*
X174026761Y-57518841D01*
X174019372Y-57515716D01*
X174012549Y-57513127D01*
X174006354Y-57511107D01*
X174000851Y-57509692D01*
X173996100Y-57508912D01*
X173994027Y-57508771D01*
X173992164Y-57508800D01*
X173987726Y-57509732D01*
X173982788Y-57511639D01*
X173977291Y-57514585D01*
X173971176Y-57518642D01*
X173964380Y-57523875D01*
X173956845Y-57530352D01*
X173939312Y-57547310D01*
X173918097Y-57570055D01*
X173892715Y-57599129D01*
X173862686Y-57635074D01*
X173827527Y-57678427D01*
X173788683Y-57725456D01*
X173753451Y-57766535D01*
X173720294Y-57803200D01*
X173687677Y-57836985D01*
X173654068Y-57869426D01*
X173617928Y-57902057D01*
X173577727Y-57936413D01*
X173531926Y-57974028D01*
X173500000Y-58000000D01*
X173470148Y-58025126D01*
X173443045Y-58048790D01*
X173419362Y-58070378D01*
X173409013Y-58080204D01*
X173399770Y-58089278D01*
X173391720Y-58097526D01*
X173384945Y-58104873D01*
X173379529Y-58111241D01*
X173375557Y-58116552D01*
X173373111Y-58120730D01*
X173372487Y-58122370D01*
X173372277Y-58123699D01*
X173372781Y-58126358D01*
X173374259Y-58130529D01*
X173379956Y-58143031D01*
X173388985Y-58160445D01*
X173400963Y-58182009D01*
X173415517Y-58206962D01*
X173432263Y-58234548D01*
X173450821Y-58264005D01*
X173470811Y-58294574D01*
X173500770Y-58342547D01*
X173528909Y-58390558D01*
X173555224Y-58438563D01*
X173579714Y-58486517D01*
X173602378Y-58534377D01*
X173623215Y-58582098D01*
X173642224Y-58629640D01*
X173659400Y-58676955D01*
X173674744Y-58724002D01*
X173688254Y-58770737D01*
X173699928Y-58817116D01*
X173709766Y-58863096D01*
X173717763Y-58908633D01*
X173723921Y-58953683D01*
X173728236Y-58998202D01*
X173730708Y-59042148D01*
X173731335Y-59085476D01*
X173730114Y-59128144D01*
X173727045Y-59170106D01*
X173722126Y-59211320D01*
X173715355Y-59251742D01*
X173706730Y-59291328D01*
X173696252Y-59330035D01*
X173683916Y-59367819D01*
X173669723Y-59404637D01*
X173653668Y-59440443D01*
X173635755Y-59475197D01*
X173615977Y-59508854D01*
X173594334Y-59541369D01*
X173570827Y-59572700D01*
X173545451Y-59602803D01*
X173518207Y-59631633D01*
X173464575Y-59685265D01*
X173403459Y-59624149D01*
X173391165Y-59611568D01*
X173380465Y-59599914D01*
X173371348Y-59589029D01*
X173367379Y-59583828D01*
X173363800Y-59578762D01*
X173360609Y-59573809D01*
X173357809Y-59568953D01*
X173355393Y-59564173D01*
X173353362Y-59559450D01*
X173351713Y-59554765D01*
X173350445Y-59550098D01*
X173349557Y-59545429D01*
X173349047Y-59540739D01*
X173348914Y-59536010D01*
X173349155Y-59531221D01*
X173349769Y-59526352D01*
X173350755Y-59521385D01*
X173352111Y-59516301D01*
X173353835Y-59511078D01*
X173355927Y-59505699D01*
X173358382Y-59500145D01*
X173364384Y-59488430D01*
X173371827Y-59475777D01*
X173380698Y-59462032D01*
X173390987Y-59447039D01*
X173402623Y-59430111D01*
X173414090Y-59411293D01*
X173425309Y-59390830D01*
X173436198Y-59368968D01*
X173446680Y-59345952D01*
X173456672Y-59322026D01*
X173466094Y-59297434D01*
X173474864Y-59272423D01*
X173482905Y-59247236D01*
X173490134Y-59222119D01*
X173496471Y-59197315D01*
X173501836Y-59173071D01*
X173506149Y-59149631D01*
X173509329Y-59127239D01*
X173511297Y-59106141D01*
X173511970Y-59086581D01*
X173510996Y-59049981D01*
X173508092Y-59012267D01*
X173503288Y-58973523D01*
X173496614Y-58933831D01*
X173488097Y-58893278D01*
X173477769Y-58851946D01*
X173465656Y-58809920D01*
X173451789Y-58767283D01*
X173436199Y-58724121D01*
X173418914Y-58680516D01*
X173399961Y-58636554D01*
X173379371Y-58592317D01*
X173357174Y-58547890D01*
X173333398Y-58503357D01*
X173308073Y-58458802D01*
X173281228Y-58414310D01*
X173263113Y-58385886D01*
X173246398Y-58360850D01*
X173230705Y-58339056D01*
X173223121Y-58329329D01*
X173215648Y-58320358D01*
X173208241Y-58312120D01*
X173200849Y-58304600D01*
X173193425Y-58297781D01*
X173185923Y-58291642D01*
X173178292Y-58286166D01*
X173170488Y-58281333D01*
X173162460Y-58277126D01*
X173154163Y-58273525D01*
X173145549Y-58270514D01*
X173136567Y-58268071D01*
X173127172Y-58266179D01*
X173117318Y-58264821D01*
X173106953Y-58263979D01*
X173096033Y-58263630D01*
X173084508Y-58263759D01*
X173072332Y-58264348D01*
X173045831Y-58266824D01*
X173016148Y-58270917D01*
X172982904Y-58276473D01*
X172945715Y-58283348D01*
X172910059Y-58289927D01*
X172873042Y-58296463D01*
X172799319Y-58308760D01*
X172733311Y-58318953D01*
X172705942Y-58322858D01*
X172683792Y-58325755D01*
X172658525Y-58327750D01*
X172631094Y-58328619D01*
X172601793Y-58328407D01*
X172570915Y-58327158D01*
X172538749Y-58324914D01*
X172505589Y-58321720D01*
X172471728Y-58317621D01*
X172437458Y-58312659D01*
X172403071Y-58306879D01*
X172368858Y-58300322D01*
X172335114Y-58293036D01*
X172302130Y-58285063D01*
X172270198Y-58276446D01*
X172239611Y-58267231D01*
X172210661Y-58257460D01*
X172183641Y-58247177D01*
X172147775Y-58232110D01*
X172131984Y-58224893D01*
X172117243Y-58217613D01*
X172103271Y-58210062D01*
X172089782Y-58202035D01*
X172076495Y-58193323D01*
X172063124Y-58183723D01*
X172049389Y-58173026D01*
X172035006Y-58161026D01*
X172019690Y-58147517D01*
X172003159Y-58132293D01*
X171965319Y-58095871D01*
X171919222Y-58050111D01*
X171880854Y-58011148D01*
X171847778Y-57976249D01*
X171833087Y-57960168D01*
X171819554Y-57944916D01*
X171807125Y-57930433D01*
X171795744Y-57916655D01*
X171785357Y-57903518D01*
X171775909Y-57890963D01*
X171767346Y-57878927D01*
X171759612Y-57867348D01*
X171752653Y-57856163D01*
X171746414Y-57845313D01*
X171740839Y-57834730D01*
X171735876Y-57824356D01*
X171732298Y-57816280D01*
X171728594Y-57808437D01*
X171724785Y-57800861D01*
X171720889Y-57793585D01*
X171716927Y-57786636D01*
X171712921Y-57780047D01*
X171708887Y-57773850D01*
X171704850Y-57768075D01*
X171700825Y-57762751D01*
X171696837Y-57757914D01*
X171692903Y-57753591D01*
X171689044Y-57749814D01*
X171685280Y-57746615D01*
X171681632Y-57744024D01*
X171679857Y-57742966D01*
X171678118Y-57742071D01*
X171676419Y-57741347D01*
X171674759Y-57740792D01*
X171670457Y-57740579D01*
X171663725Y-57741323D01*
X171643540Y-57745506D01*
X171615344Y-57753025D01*
X171580280Y-57763552D01*
X171539486Y-57776771D01*
X171494101Y-57792356D01*
X171445269Y-57809989D01*
X171394126Y-57829346D01*
X171269630Y-57874585D01*
X171144755Y-57917173D01*
X171019884Y-57957031D01*
X170895399Y-57994082D01*
X170771681Y-58028245D01*
X170649112Y-58059443D01*
X170528073Y-58087597D01*
X170408949Y-58112629D01*
X170292117Y-58134460D01*
X170177965Y-58153012D01*
X170066869Y-58168205D01*
X169959214Y-58179962D01*
X169855382Y-58188204D01*
X169755753Y-58192851D01*
X169660710Y-58193826D01*
X169570634Y-58191052D01*
X169482121Y-58184376D01*
X169393619Y-58174717D01*
X169305493Y-58162189D01*
X169218110Y-58146909D01*
X169131828Y-58128990D01*
X169047013Y-58108549D01*
X168964029Y-58085699D01*
X168883240Y-58060557D01*
X168805009Y-58033235D01*
X168729699Y-58003853D01*
X168657674Y-57972523D01*
X168589297Y-57939358D01*
X168524932Y-57904477D01*
X168464944Y-57867994D01*
X168409695Y-57830024D01*
X168359549Y-57790681D01*
X168325468Y-57760417D01*
X168293158Y-57728838D01*
X168262627Y-57696005D01*
X168233882Y-57661985D01*
X168206934Y-57626840D01*
X168181790Y-57590637D01*
X168158461Y-57553439D01*
X168136951Y-57515309D01*
X168117274Y-57476315D01*
X168099436Y-57436519D01*
X168083446Y-57395985D01*
X168069312Y-57354779D01*
X168057043Y-57312963D01*
X168046650Y-57270605D01*
X168038139Y-57227767D01*
X168031519Y-57184514D01*
X168026800Y-57140909D01*
X168023989Y-57097018D01*
X168023095Y-57052906D01*
X168023201Y-57048370D01*
X168495556Y-57048370D01*
X168495986Y-57072475D01*
X168497617Y-57096292D01*
X168500440Y-57119810D01*
X168504452Y-57143016D01*
X168509646Y-57165895D01*
X168516014Y-57188435D01*
X168523554Y-57210623D01*
X168532257Y-57232447D01*
X168542116Y-57253893D01*
X168553127Y-57274948D01*
X168565281Y-57295597D01*
X168578576Y-57315831D01*
X168593002Y-57335634D01*
X168608556Y-57354995D01*
X168625228Y-57373898D01*
X168661911Y-57410286D01*
X168703001Y-57444696D01*
X168748447Y-57477017D01*
X168798201Y-57507152D01*
X168852216Y-57534995D01*
X168903449Y-57558372D01*
X168954380Y-57579887D01*
X169005206Y-57599580D01*
X169056123Y-57617487D01*
X169107324Y-57633648D01*
X169159004Y-57648101D01*
X169211361Y-57660884D01*
X169264590Y-57672035D01*
X169318885Y-57681593D01*
X169374443Y-57689597D01*
X169431459Y-57696084D01*
X169490128Y-57701093D01*
X169550647Y-57704661D01*
X169613210Y-57706830D01*
X169678013Y-57707634D01*
X169745252Y-57707115D01*
X169852105Y-57703417D01*
X169961691Y-57695605D01*
X170073973Y-57683680D01*
X170188905Y-57667651D01*
X170306446Y-57647521D01*
X170426554Y-57623298D01*
X170549187Y-57594985D01*
X170674302Y-57562588D01*
X170801859Y-57526115D01*
X170931815Y-57485569D01*
X171064127Y-57440956D01*
X171198755Y-57392280D01*
X171335656Y-57339549D01*
X171474787Y-57282767D01*
X171616107Y-57221940D01*
X171759573Y-57157074D01*
X171807248Y-57135021D01*
X171849877Y-57115062D01*
X171887705Y-57097039D01*
X171920975Y-57080797D01*
X171949935Y-57066176D01*
X171962875Y-57059426D01*
X171974827Y-57053021D01*
X171985825Y-57046944D01*
X171995897Y-57041174D01*
X172005076Y-57035692D01*
X172013390Y-57030477D01*
X172020871Y-57025512D01*
X172027550Y-57020775D01*
X172033457Y-57016248D01*
X172038622Y-57011910D01*
X172043078Y-57007742D01*
X172046852Y-57003724D01*
X172049977Y-56999837D01*
X172052484Y-56996060D01*
X172054402Y-56992376D01*
X172055762Y-56988763D01*
X172056595Y-56985202D01*
X172056932Y-56981674D01*
X172056803Y-56978158D01*
X172056239Y-56974635D01*
X172055269Y-56971086D01*
X172053926Y-56967491D01*
X172049381Y-56959058D01*
X172042827Y-56949249D01*
X172034359Y-56938156D01*
X172024069Y-56925863D01*
X171998413Y-56898034D01*
X171966618Y-56866463D01*
X171929444Y-56831851D01*
X171887651Y-56794902D01*
X171841999Y-56756314D01*
X171793249Y-56716792D01*
X171716430Y-56658577D01*
X171638261Y-56603439D01*
X171478153Y-56502422D01*
X171313472Y-56413805D01*
X171144773Y-56337646D01*
X170972600Y-56274005D01*
X170797507Y-56222943D01*
X170620041Y-56184521D01*
X170440753Y-56158800D01*
X170260196Y-56145838D01*
X170078915Y-56145697D01*
X169897463Y-56158436D01*
X169716388Y-56184117D01*
X169536243Y-56222797D01*
X169357576Y-56274539D01*
X169268968Y-56305327D01*
X169180937Y-56339404D01*
X169093549Y-56376775D01*
X169006875Y-56417450D01*
X168951730Y-56444989D01*
X168906216Y-56468918D01*
X168886282Y-56480082D01*
X168867808Y-56491007D01*
X168850477Y-56501912D01*
X168833973Y-56513021D01*
X168817982Y-56524553D01*
X168802185Y-56536731D01*
X168786270Y-56549776D01*
X168769916Y-56563905D01*
X168734633Y-56596311D01*
X168693813Y-56635720D01*
X168653994Y-56675984D01*
X168637275Y-56693359D01*
X168622447Y-56709230D01*
X168609328Y-56723844D01*
X168597740Y-56737450D01*
X168587505Y-56750296D01*
X168578442Y-56762628D01*
X168570373Y-56774699D01*
X168563118Y-56786754D01*
X168556502Y-56799046D01*
X168550339Y-56811817D01*
X168544456Y-56825320D01*
X168538671Y-56839803D01*
X168532805Y-56855513D01*
X168526680Y-56872699D01*
X168511632Y-56924000D01*
X168505967Y-56949343D01*
X168501534Y-56974465D01*
X168498324Y-56999352D01*
X168496335Y-57023993D01*
X168495556Y-57048370D01*
X168023201Y-57048370D01*
X168024129Y-57008636D01*
X168027095Y-56964271D01*
X168032007Y-56919880D01*
X168038870Y-56875523D01*
X168047695Y-56831267D01*
X168058487Y-56787174D01*
X168071261Y-56743311D01*
X168086020Y-56699741D01*
X168102773Y-56656529D01*
X168121532Y-56613738D01*
X168142305Y-56571436D01*
X168165096Y-56529681D01*
X168189922Y-56488544D01*
X168216579Y-56449428D01*
X168246372Y-56410295D01*
X168279107Y-56371305D01*
X168314589Y-56332617D01*
X168352620Y-56294389D01*
X168393008Y-56256781D01*
X168435553Y-56219950D01*
X168480064Y-56184057D01*
X168526344Y-56149260D01*
X168574196Y-56115718D01*
X168623426Y-56083590D01*
X168673838Y-56053037D01*
X168725236Y-56024214D01*
X168777425Y-55997282D01*
X168830212Y-55972401D01*
X168883396Y-55949728D01*
X168943083Y-55925180D01*
X168966532Y-55914629D01*
X168985769Y-55904418D01*
X168993822Y-55899248D01*
X169000834Y-55893935D01*
X169006813Y-55888402D01*
X169011764Y-55882574D01*
X169015691Y-55876374D01*
X169018598Y-55869726D01*
X169020491Y-55862553D01*
X169021374Y-55854782D01*
X169021253Y-55846333D01*
X169020131Y-55837132D01*
X169018015Y-55827105D01*
X169014907Y-55816171D01*
X169005740Y-55791290D01*
X168992667Y-55761879D01*
X168975731Y-55727331D01*
X168954964Y-55687036D01*
X168952411Y-55682193D01*
X169604075Y-55682193D01*
X169605122Y-55693052D01*
X169607680Y-55701610D01*
X169611794Y-55707760D01*
X169613434Y-55708594D01*
X169616428Y-55709227D01*
X169620702Y-55709663D01*
X169626178Y-55709905D01*
X169640429Y-55709821D01*
X169658567Y-55709008D01*
X169679979Y-55707493D01*
X169704054Y-55705305D01*
X169730172Y-55702474D01*
X169757724Y-55699030D01*
X169766826Y-55697782D01*
X170851570Y-55697782D01*
X170851949Y-55703361D01*
X170852676Y-55708442D01*
X170853832Y-55713087D01*
X170855506Y-55717348D01*
X170857778Y-55721290D01*
X170859165Y-55723159D01*
X170860734Y-55724969D01*
X170864457Y-55728443D01*
X170869030Y-55731769D01*
X170874541Y-55735010D01*
X170881070Y-55738221D01*
X170888703Y-55741460D01*
X170897522Y-55744788D01*
X170907615Y-55748262D01*
X170919062Y-55751940D01*
X170946361Y-55760145D01*
X171066217Y-55796172D01*
X171181410Y-55835312D01*
X171293009Y-55877989D01*
X171402078Y-55924627D01*
X171509686Y-55975652D01*
X171616899Y-56031482D01*
X171724784Y-56092546D01*
X171834409Y-56159268D01*
X171864121Y-56177910D01*
X171892036Y-56195224D01*
X171917525Y-56210812D01*
X171939958Y-56224282D01*
X171958708Y-56235235D01*
X171973146Y-56243282D01*
X171978553Y-56246092D01*
X171982645Y-56248026D01*
X171985344Y-56249035D01*
X171986147Y-56249176D01*
X171986574Y-56249071D01*
X171986866Y-56248639D01*
X171987045Y-56248053D01*
X171987072Y-56246425D01*
X171986673Y-56244220D01*
X171985872Y-56241469D01*
X171984691Y-56238210D01*
X171983153Y-56234468D01*
X171979090Y-56225685D01*
X171973858Y-56215379D01*
X171967631Y-56203818D01*
X171960586Y-56191263D01*
X171952898Y-56177977D01*
X171871719Y-56038181D01*
X171798316Y-55904788D01*
X171732514Y-55777417D01*
X171674136Y-55655688D01*
X171647677Y-55596819D01*
X171623008Y-55539220D01*
X171600108Y-55482841D01*
X171578955Y-55427635D01*
X171559526Y-55373553D01*
X171541800Y-55320550D01*
X171525755Y-55268578D01*
X171511369Y-55217588D01*
X171507558Y-55203671D01*
X171503632Y-55190036D01*
X171499617Y-55176760D01*
X171495544Y-55163917D01*
X171491441Y-55151585D01*
X171487339Y-55139844D01*
X171483266Y-55128766D01*
X171479251Y-55118431D01*
X171475325Y-55108914D01*
X171471515Y-55100292D01*
X171467852Y-55092642D01*
X171464363Y-55086041D01*
X171461079Y-55080565D01*
X171458029Y-55076292D01*
X171456601Y-55074631D01*
X171455243Y-55073297D01*
X171453958Y-55072304D01*
X171452748Y-55071659D01*
X171445383Y-55069579D01*
X171436802Y-55069462D01*
X171426926Y-55071368D01*
X171415681Y-55075363D01*
X171402988Y-55081504D01*
X171388771Y-55089857D01*
X171372955Y-55100482D01*
X171355460Y-55113441D01*
X171315135Y-55146616D01*
X171267179Y-55189876D01*
X171210979Y-55243718D01*
X171145921Y-55308637D01*
X171112210Y-55342784D01*
X171080327Y-55375953D01*
X171050318Y-55408073D01*
X171022229Y-55439073D01*
X170996107Y-55468883D01*
X170971996Y-55497429D01*
X170949942Y-55524642D01*
X170929991Y-55550450D01*
X170912189Y-55574782D01*
X170896581Y-55597566D01*
X170883211Y-55618732D01*
X170872130Y-55638206D01*
X170863379Y-55655921D01*
X170857005Y-55671801D01*
X170854723Y-55679033D01*
X170853053Y-55685780D01*
X170852000Y-55692032D01*
X170851570Y-55697782D01*
X169766826Y-55697782D01*
X169788290Y-55694839D01*
X169822192Y-55690766D01*
X169858314Y-55686928D01*
X169895546Y-55683439D01*
X169932779Y-55680418D01*
X169968900Y-55677982D01*
X170002800Y-55676247D01*
X170033368Y-55675331D01*
X170047458Y-55674764D01*
X170061605Y-55674004D01*
X170089710Y-55671961D01*
X170116966Y-55669303D01*
X170142660Y-55666133D01*
X170154695Y-55664389D01*
X170166073Y-55662555D01*
X170176700Y-55660643D01*
X170186489Y-55658669D01*
X170195350Y-55656643D01*
X170203192Y-55654579D01*
X170209929Y-55652490D01*
X170215468Y-55650386D01*
X170232675Y-55643102D01*
X170245792Y-55636783D01*
X170251619Y-55632935D01*
X170257388Y-55628067D01*
X170263420Y-55621759D01*
X170270035Y-55613592D01*
X170277557Y-55603146D01*
X170286308Y-55589997D01*
X170308779Y-55553920D01*
X170382601Y-55430869D01*
X170405909Y-55392428D01*
X170431321Y-55351824D01*
X170458021Y-55310285D01*
X170485188Y-55269038D01*
X170512004Y-55229310D01*
X170537650Y-55192331D01*
X170561309Y-55159328D01*
X170582162Y-55131528D01*
X170607943Y-55099018D01*
X170636861Y-55064862D01*
X170702639Y-54992965D01*
X170776544Y-54918553D01*
X170855623Y-54844346D01*
X170936924Y-54773062D01*
X171017493Y-54707420D01*
X171056582Y-54677565D01*
X171094380Y-54650140D01*
X171130520Y-54625484D01*
X171164631Y-54603937D01*
X171243272Y-54555571D01*
X171274818Y-54535769D01*
X171301712Y-54518227D01*
X171313540Y-54510150D01*
X171324353Y-54502454D01*
X171334203Y-54495076D01*
X171343140Y-54487957D01*
X171351211Y-54481032D01*
X171358469Y-54474241D01*
X171364962Y-54467523D01*
X171370741Y-54460814D01*
X171375853Y-54454055D01*
X171380352Y-54447184D01*
X171384283Y-54440137D01*
X171384968Y-54438676D01*
X171887417Y-54438676D01*
X171896534Y-54619613D01*
X171898143Y-54633088D01*
X171918028Y-54799655D01*
X171951880Y-54978022D01*
X171998072Y-55153938D01*
X172056585Y-55326625D01*
X172127402Y-55495303D01*
X172210502Y-55659193D01*
X172305872Y-55817519D01*
X172328258Y-55850855D01*
X172352590Y-55885544D01*
X172405534Y-55957135D01*
X172461580Y-56028608D01*
X172517594Y-56096282D01*
X172570452Y-56156471D01*
X172594719Y-56182609D01*
X172617024Y-56205494D01*
X172636975Y-56224668D01*
X172654184Y-56239667D01*
X172655678Y-56240769D01*
X172668256Y-56250034D01*
X172673994Y-56253335D01*
X172678803Y-56255306D01*
X172682803Y-56256389D01*
X172686834Y-56257292D01*
X172690869Y-56258017D01*
X172694881Y-56258560D01*
X172698841Y-56258922D01*
X172702722Y-56259099D01*
X172706497Y-56259090D01*
X172710139Y-56258892D01*
X172713621Y-56258505D01*
X172716914Y-56257926D01*
X172718482Y-56257563D01*
X172719991Y-56257152D01*
X172721441Y-56256693D01*
X172722827Y-56256183D01*
X172724144Y-56255626D01*
X172725390Y-56255017D01*
X172726563Y-56254361D01*
X172727657Y-56253653D01*
X172728670Y-56252895D01*
X172729598Y-56252086D01*
X172730439Y-56251227D01*
X172731186Y-56250317D01*
X172744565Y-56231889D01*
X172762792Y-56200875D01*
X172811440Y-56106415D01*
X172872424Y-55977577D01*
X172941038Y-55825002D01*
X173012575Y-55659332D01*
X173082329Y-55491205D01*
X173145592Y-55331263D01*
X173197661Y-55190149D01*
X173254707Y-55018906D01*
X173304701Y-54851006D01*
X173347635Y-54686724D01*
X173383503Y-54526334D01*
X173412295Y-54370109D01*
X173434007Y-54218325D01*
X173448629Y-54071255D01*
X173456154Y-53929170D01*
X173456577Y-53792349D01*
X173449890Y-53661064D01*
X173436084Y-53535589D01*
X173415152Y-53416197D01*
X173387088Y-53303163D01*
X173370378Y-53249117D01*
X173351882Y-53196762D01*
X173331600Y-53146134D01*
X173309530Y-53097267D01*
X173285672Y-53050195D01*
X173260024Y-53004953D01*
X173245149Y-52981042D01*
X173229130Y-52957552D01*
X173212081Y-52934580D01*
X173194113Y-52912226D01*
X173175344Y-52890589D01*
X173155882Y-52869766D01*
X173135844Y-52849857D01*
X173115342Y-52830960D01*
X173094489Y-52813174D01*
X173073399Y-52796597D01*
X173052184Y-52781329D01*
X173030957Y-52767467D01*
X173009834Y-52755111D01*
X172988927Y-52744359D01*
X172968347Y-52735309D01*
X172948210Y-52728061D01*
X172901672Y-52715507D01*
X172854786Y-52707722D01*
X172807733Y-52704618D01*
X172760692Y-52706117D01*
X172713840Y-52712132D01*
X172667357Y-52722580D01*
X172621423Y-52737376D01*
X172576215Y-52756436D01*
X172531914Y-52779677D01*
X172488697Y-52807013D01*
X172446745Y-52838363D01*
X172406238Y-52873641D01*
X172367351Y-52912761D01*
X172330266Y-52955642D01*
X172295163Y-53002200D01*
X172262218Y-53052348D01*
X172171667Y-53212428D01*
X172093639Y-53377839D01*
X172028114Y-53547803D01*
X171975076Y-53721542D01*
X171934504Y-53898275D01*
X171906384Y-54077229D01*
X171890695Y-54257623D01*
X171887417Y-54438676D01*
X171384968Y-54438676D01*
X171387700Y-54432853D01*
X171390651Y-54425273D01*
X171393186Y-54417332D01*
X171395354Y-54408972D01*
X171397205Y-54400127D01*
X171398790Y-54390740D01*
X171400159Y-54380745D01*
X171402443Y-54358690D01*
X171406598Y-54304596D01*
X171412757Y-54232293D01*
X171421254Y-54144323D01*
X171431155Y-54051675D01*
X171441522Y-53965341D01*
X171444226Y-53945436D01*
X171446719Y-53926011D01*
X171448996Y-53907167D01*
X171451052Y-53889006D01*
X171452882Y-53871625D01*
X171454479Y-53855127D01*
X171455840Y-53839612D01*
X171456957Y-53825180D01*
X171457825Y-53811933D01*
X171458441Y-53799970D01*
X171458796Y-53789391D01*
X171458886Y-53780299D01*
X171458706Y-53772792D01*
X171458251Y-53766971D01*
X171457918Y-53764725D01*
X171457514Y-53762937D01*
X171457038Y-53761622D01*
X171456489Y-53760791D01*
X171452343Y-53758640D01*
X171445824Y-53757994D01*
X171426122Y-53760980D01*
X171398285Y-53769281D01*
X171363218Y-53782423D01*
X171274999Y-53821346D01*
X171168684Y-53873980D01*
X171051496Y-53936552D01*
X170930654Y-54005294D01*
X170813377Y-54076430D01*
X170706887Y-54146193D01*
X170666678Y-54175441D01*
X170623570Y-54209049D01*
X170530752Y-54287250D01*
X170432613Y-54376619D01*
X170333334Y-54472975D01*
X170237095Y-54572137D01*
X170148077Y-54669925D01*
X170070460Y-54762158D01*
X170037232Y-54804886D01*
X170008423Y-54844658D01*
X169965985Y-54908038D01*
X169924058Y-54974135D01*
X169883037Y-55042093D01*
X169843317Y-55111064D01*
X169805294Y-55180197D01*
X169769359Y-55248638D01*
X169735909Y-55315537D01*
X169705340Y-55380044D01*
X169678043Y-55441305D01*
X169654417Y-55498470D01*
X169634853Y-55550687D01*
X169619746Y-55597105D01*
X169609493Y-55636873D01*
X169606309Y-55653998D01*
X169604487Y-55669139D01*
X169604075Y-55682193D01*
X168952411Y-55682193D01*
X168902105Y-55586776D01*
X168867480Y-55518627D01*
X168835182Y-55450304D01*
X168805221Y-55381842D01*
X168777614Y-55313276D01*
X168752373Y-55244635D01*
X168729516Y-55175956D01*
X168709056Y-55107269D01*
X168691007Y-55038606D01*
X168675385Y-54970004D01*
X168662202Y-54901490D01*
X168651476Y-54833102D01*
X168643222Y-54764872D01*
X168637450Y-54696831D01*
X168634178Y-54629013D01*
X168633714Y-54587557D01*
X169107466Y-54587557D01*
X169107981Y-54636990D01*
X169110631Y-54685721D01*
X169115436Y-54733574D01*
X169122419Y-54780375D01*
X169131600Y-54825949D01*
X169137861Y-54852449D01*
X169144439Y-54878510D01*
X169151273Y-54903956D01*
X169158300Y-54928615D01*
X169165459Y-54952307D01*
X169172688Y-54974860D01*
X169179923Y-54996097D01*
X169187104Y-55015844D01*
X169194168Y-55033925D01*
X169201052Y-55050163D01*
X169207696Y-55064385D01*
X169214037Y-55076414D01*
X169220011Y-55086075D01*
X169222843Y-55089964D01*
X169225559Y-55093194D01*
X169228153Y-55095744D01*
X169230617Y-55097593D01*
X169232943Y-55098718D01*
X169235124Y-55099099D01*
X169236004Y-55099074D01*
X169237002Y-55098773D01*
X169239346Y-55097361D01*
X169242123Y-55094917D01*
X169245295Y-55091498D01*
X169248835Y-55087159D01*
X169252707Y-55081954D01*
X169261316Y-55069165D01*
X169270859Y-55053568D01*
X169281076Y-55035605D01*
X169291703Y-55015713D01*
X169302475Y-54994329D01*
X169328850Y-54944465D01*
X169363338Y-54883537D01*
X169403525Y-54815447D01*
X169447001Y-54744097D01*
X169491354Y-54673391D01*
X169534173Y-54607230D01*
X169573044Y-54549518D01*
X169605558Y-54504156D01*
X169665165Y-54426423D01*
X169727879Y-54349539D01*
X169793536Y-54273651D01*
X169861967Y-54198910D01*
X169933008Y-54125462D01*
X170006491Y-54053456D01*
X170082250Y-53983040D01*
X170160120Y-53914359D01*
X170239934Y-53847566D01*
X170321526Y-53782806D01*
X170404729Y-53720226D01*
X170489378Y-53659977D01*
X170575304Y-53602205D01*
X170662344Y-53547059D01*
X170750330Y-53494686D01*
X170839097Y-53445235D01*
X170913913Y-53404913D01*
X170978321Y-53370555D01*
X171047389Y-53334229D01*
X171052764Y-53331362D01*
X171056712Y-53328365D01*
X171058144Y-53326815D01*
X171059209Y-53325227D01*
X171059905Y-53323600D01*
X171060231Y-53321931D01*
X171060182Y-53320222D01*
X171059756Y-53318469D01*
X171058949Y-53316671D01*
X171057759Y-53314826D01*
X171054216Y-53310989D01*
X171049105Y-53306946D01*
X171042398Y-53302683D01*
X171034076Y-53298188D01*
X171024113Y-53293447D01*
X171012486Y-53288450D01*
X170999168Y-53283182D01*
X170984142Y-53277632D01*
X170967379Y-53271786D01*
X170948856Y-53265629D01*
X170890292Y-53247972D01*
X170830908Y-53233550D01*
X170770819Y-53222314D01*
X170710137Y-53214209D01*
X170648979Y-53209185D01*
X170587458Y-53207190D01*
X170463790Y-53212075D01*
X170340047Y-53228449D01*
X170217149Y-53255895D01*
X170096012Y-53293996D01*
X169977554Y-53342335D01*
X169862691Y-53400498D01*
X169752340Y-53468066D01*
X169647421Y-53544622D01*
X169548847Y-53629751D01*
X169457538Y-53723035D01*
X169374412Y-53824060D01*
X169336202Y-53877345D01*
X169300383Y-53932407D01*
X169267067Y-53989196D01*
X169236371Y-54047661D01*
X169214859Y-54093233D01*
X169195240Y-54140034D01*
X169177536Y-54187889D01*
X169161768Y-54236619D01*
X169147959Y-54286051D01*
X169136132Y-54336010D01*
X169126306Y-54386319D01*
X169118505Y-54436804D01*
X169112750Y-54487289D01*
X169109063Y-54537599D01*
X169107466Y-54587557D01*
X168633714Y-54587557D01*
X168633421Y-54561451D01*
X168635192Y-54494178D01*
X168638246Y-54438506D01*
X168643195Y-54383282D01*
X168650032Y-54328514D01*
X168658752Y-54274212D01*
X168669353Y-54220386D01*
X168681826Y-54167044D01*
X168696165Y-54114194D01*
X168712366Y-54061847D01*
X168730424Y-54010012D01*
X168750332Y-53958697D01*
X168772085Y-53907913D01*
X168795679Y-53857667D01*
X168821106Y-53807969D01*
X168848364Y-53758829D01*
X168877444Y-53710256D01*
X168908342Y-53662257D01*
X168946539Y-53603792D01*
X168980059Y-53551875D01*
X169005160Y-53512119D01*
X169013383Y-53498554D01*
X169018100Y-53490135D01*
X169021765Y-53481359D01*
X169023810Y-53471241D01*
X169024129Y-53459562D01*
X169022622Y-53446092D01*
X169019184Y-53430605D01*
X169013716Y-53412874D01*
X169006112Y-53392673D01*
X168996273Y-53369776D01*
X168969476Y-53314983D01*
X168932508Y-53246686D01*
X168884546Y-53163071D01*
X168824775Y-53062326D01*
X168755219Y-52946622D01*
X168727115Y-52899770D01*
X168703070Y-52859549D01*
X168692476Y-52841760D01*
X168682789Y-52825430D01*
X168673967Y-52810495D01*
X168665977Y-52796887D01*
X168658779Y-52784540D01*
X168652339Y-52773389D01*
X168646620Y-52763368D01*
X168641585Y-52754410D01*
X168637195Y-52746449D01*
X168633416Y-52739420D01*
X168630210Y-52733257D01*
X168628811Y-52730479D01*
X168627540Y-52727893D01*
X168626395Y-52725491D01*
X168625371Y-52723263D01*
X168624461Y-52721203D01*
X168623664Y-52719300D01*
X168622973Y-52717549D01*
X168622383Y-52715940D01*
X168621891Y-52714463D01*
X168621491Y-52713113D01*
X168621180Y-52711881D01*
X168620954Y-52710759D01*
X168620803Y-52709734D01*
X168620730Y-52708805D01*
X168620726Y-52707959D01*
X168620787Y-52707189D01*
X168620907Y-52706489D01*
X168621085Y-52705846D01*
X168621314Y-52705257D01*
X168621589Y-52704709D01*
X168621906Y-52704196D01*
X168622262Y-52703712D01*
X168623065Y-52702787D01*
X168623967Y-52701870D01*
X168626670Y-52702041D01*
X168632790Y-52704359D01*
X168654565Y-52715005D01*
X168731231Y-52757372D01*
X168842510Y-52822190D01*
X168976941Y-52902677D01*
X169047065Y-52944631D01*
X169114179Y-52983867D01*
X169176673Y-53019534D01*
X169232941Y-53050789D01*
X169281373Y-53076781D01*
X169320365Y-53096666D01*
X169335818Y-53104051D01*
X169348307Y-53109591D01*
X169357632Y-53113180D01*
X169363591Y-53114711D01*
X169368844Y-53114772D01*
X169375216Y-53114034D01*
X169382654Y-53112513D01*
X169391108Y-53110229D01*
X169400528Y-53107198D01*
X169410859Y-53103443D01*
X169434060Y-53093820D01*
X169460302Y-53081508D01*
X169489174Y-53066652D01*
X169520268Y-53049400D01*
X169553174Y-53029897D01*
X169616900Y-52992704D01*
X169679578Y-52958266D01*
X169741382Y-52926527D01*
X169802488Y-52897435D01*
X169863078Y-52870938D01*
X169923324Y-52846982D01*
X169983407Y-52825514D01*
X170043502Y-52806483D01*
X170103787Y-52789834D01*
X170164440Y-52775513D01*
X170225637Y-52763469D01*
X170287555Y-52753650D01*
X170350372Y-52746000D01*
X170414266Y-52740468D01*
X170479412Y-52737000D01*
X170545991Y-52735545D01*
X170604664Y-52736130D01*
X170663296Y-52738361D01*
X170721908Y-52742242D01*
X170780515Y-52747784D01*
X170839137Y-52754991D01*
X170897790Y-52763871D01*
X170956498Y-52774434D01*
X171015271Y-52786682D01*
X171074134Y-52800627D01*
X171133104Y-52816276D01*
X171192197Y-52833634D01*
X171251433Y-52852710D01*
X171310829Y-52873510D01*
X171370405Y-52896041D01*
X171430177Y-52920313D01*
X171440440Y-52924765D01*
X171490165Y-52946332D01*
X171528168Y-52962894D01*
X171562026Y-52976926D01*
X171592183Y-52988265D01*
X171619080Y-52996749D01*
X171631448Y-52999868D01*
X171643166Y-53002213D01*
X171654292Y-53003762D01*
X171664881Y-53004497D01*
X171674990Y-53004397D01*
X171684671Y-53003439D01*
X171693983Y-53001604D01*
X171702979Y-52998873D01*
X171711716Y-52995224D01*
X171720248Y-52990637D01*
X171728632Y-52985094D01*
X171736925Y-52978573D01*
X171745179Y-52971053D01*
X171753452Y-52962513D01*
X171761796Y-52952936D01*
X171770272Y-52942298D01*
X171787831Y-52917763D01*
X171806572Y-52888746D01*
X171826939Y-52855085D01*
X171849376Y-52816617D01*
X171866825Y-52787623D01*
X171886716Y-52757435D01*
X171908769Y-52726348D01*
X171932708Y-52694658D01*
X171958255Y-52662661D01*
X171985132Y-52630653D01*
X172013062Y-52598932D01*
X172041766Y-52567789D01*
X172070965Y-52537524D01*
X172100387Y-52508432D01*
X172129747Y-52480810D01*
X172158773Y-52454951D01*
X172187186Y-52431154D01*
X172214705Y-52409713D01*
X172241056Y-52390926D01*
X172265960Y-52375087D01*
X172310052Y-52350409D01*
X172356949Y-52327855D01*
X172406268Y-52307475D01*
X172457628Y-52289319D01*
X172510647Y-52273436D01*
X172564944Y-52259875D01*
X172620135Y-52248685D01*
X172675839Y-52239916D01*
X172731675Y-52233617D01*
X172787263Y-52229838D01*
X172842215Y-52228627D01*
X172896156Y-52230036D01*
G37*
D10*
X170289580Y-59357142D02*
X170337200Y-59309523D01*
X170337200Y-59309523D02*
X170384819Y-59166666D01*
X170384819Y-59166666D02*
X170384819Y-59071428D01*
X170384819Y-59071428D02*
X170337200Y-58928571D01*
X170337200Y-58928571D02*
X170241961Y-58833333D01*
X170241961Y-58833333D02*
X170146723Y-58785714D01*
X170146723Y-58785714D02*
X169956247Y-58738095D01*
X169956247Y-58738095D02*
X169813390Y-58738095D01*
X169813390Y-58738095D02*
X169622914Y-58785714D01*
X169622914Y-58785714D02*
X169527676Y-58833333D01*
X169527676Y-58833333D02*
X169432438Y-58928571D01*
X169432438Y-58928571D02*
X169384819Y-59071428D01*
X169384819Y-59071428D02*
X169384819Y-59166666D01*
X169384819Y-59166666D02*
X169432438Y-59309523D01*
X169432438Y-59309523D02*
X169480057Y-59357142D01*
X169384819Y-59690476D02*
X169384819Y-60309523D01*
X169384819Y-60309523D02*
X169765771Y-59976190D01*
X169765771Y-59976190D02*
X169765771Y-60119047D01*
X169765771Y-60119047D02*
X169813390Y-60214285D01*
X169813390Y-60214285D02*
X169861009Y-60261904D01*
X169861009Y-60261904D02*
X169956247Y-60309523D01*
X169956247Y-60309523D02*
X170194342Y-60309523D01*
X170194342Y-60309523D02*
X170289580Y-60261904D01*
X170289580Y-60261904D02*
X170337200Y-60214285D01*
X170337200Y-60214285D02*
X170384819Y-60119047D01*
X170384819Y-60119047D02*
X170384819Y-59833333D01*
X170384819Y-59833333D02*
X170337200Y-59738095D01*
X170337200Y-59738095D02*
X170289580Y-59690476D01*
X169480057Y-60690476D02*
X169432438Y-60738095D01*
X169432438Y-60738095D02*
X169384819Y-60833333D01*
X169384819Y-60833333D02*
X169384819Y-61071428D01*
X169384819Y-61071428D02*
X169432438Y-61166666D01*
X169432438Y-61166666D02*
X169480057Y-61214285D01*
X169480057Y-61214285D02*
X169575295Y-61261904D01*
X169575295Y-61261904D02*
X169670533Y-61261904D01*
X169670533Y-61261904D02*
X169813390Y-61214285D01*
X169813390Y-61214285D02*
X170384819Y-60642857D01*
X170384819Y-60642857D02*
X170384819Y-61261904D01*
X166359580Y-62357142D02*
X166407200Y-62309523D01*
X166407200Y-62309523D02*
X166454819Y-62166666D01*
X166454819Y-62166666D02*
X166454819Y-62071428D01*
X166454819Y-62071428D02*
X166407200Y-61928571D01*
X166407200Y-61928571D02*
X166311961Y-61833333D01*
X166311961Y-61833333D02*
X166216723Y-61785714D01*
X166216723Y-61785714D02*
X166026247Y-61738095D01*
X166026247Y-61738095D02*
X165883390Y-61738095D01*
X165883390Y-61738095D02*
X165692914Y-61785714D01*
X165692914Y-61785714D02*
X165597676Y-61833333D01*
X165597676Y-61833333D02*
X165502438Y-61928571D01*
X165502438Y-61928571D02*
X165454819Y-62071428D01*
X165454819Y-62071428D02*
X165454819Y-62166666D01*
X165454819Y-62166666D02*
X165502438Y-62309523D01*
X165502438Y-62309523D02*
X165550057Y-62357142D01*
X165550057Y-62738095D02*
X165502438Y-62785714D01*
X165502438Y-62785714D02*
X165454819Y-62880952D01*
X165454819Y-62880952D02*
X165454819Y-63119047D01*
X165454819Y-63119047D02*
X165502438Y-63214285D01*
X165502438Y-63214285D02*
X165550057Y-63261904D01*
X165550057Y-63261904D02*
X165645295Y-63309523D01*
X165645295Y-63309523D02*
X165740533Y-63309523D01*
X165740533Y-63309523D02*
X165883390Y-63261904D01*
X165883390Y-63261904D02*
X166454819Y-62690476D01*
X166454819Y-62690476D02*
X166454819Y-63309523D01*
X165454819Y-63642857D02*
X165454819Y-64309523D01*
X165454819Y-64309523D02*
X166454819Y-63880952D01*
X155610236Y-82474892D02*
X155657855Y-82522512D01*
X155657855Y-82522512D02*
X155800712Y-82570131D01*
X155800712Y-82570131D02*
X155895950Y-82570131D01*
X155895950Y-82570131D02*
X156038807Y-82522512D01*
X156038807Y-82522512D02*
X156134045Y-82427273D01*
X156134045Y-82427273D02*
X156181664Y-82332035D01*
X156181664Y-82332035D02*
X156229283Y-82141559D01*
X156229283Y-82141559D02*
X156229283Y-81998702D01*
X156229283Y-81998702D02*
X156181664Y-81808226D01*
X156181664Y-81808226D02*
X156134045Y-81712988D01*
X156134045Y-81712988D02*
X156038807Y-81617750D01*
X156038807Y-81617750D02*
X155895950Y-81570131D01*
X155895950Y-81570131D02*
X155800712Y-81570131D01*
X155800712Y-81570131D02*
X155657855Y-81617750D01*
X155657855Y-81617750D02*
X155610236Y-81665369D01*
X154657855Y-82570131D02*
X155229283Y-82570131D01*
X154943569Y-82570131D02*
X154943569Y-81570131D01*
X154943569Y-81570131D02*
X155038807Y-81712988D01*
X155038807Y-81712988D02*
X155134045Y-81808226D01*
X155134045Y-81808226D02*
X155229283Y-81855845D01*
X153800712Y-81570131D02*
X153991188Y-81570131D01*
X153991188Y-81570131D02*
X154086426Y-81617750D01*
X154086426Y-81617750D02*
X154134045Y-81665369D01*
X154134045Y-81665369D02*
X154229283Y-81808226D01*
X154229283Y-81808226D02*
X154276902Y-81998702D01*
X154276902Y-81998702D02*
X154276902Y-82379654D01*
X154276902Y-82379654D02*
X154229283Y-82474892D01*
X154229283Y-82474892D02*
X154181664Y-82522512D01*
X154181664Y-82522512D02*
X154086426Y-82570131D01*
X154086426Y-82570131D02*
X153895950Y-82570131D01*
X153895950Y-82570131D02*
X153800712Y-82522512D01*
X153800712Y-82522512D02*
X153753093Y-82474892D01*
X153753093Y-82474892D02*
X153705474Y-82379654D01*
X153705474Y-82379654D02*
X153705474Y-82141559D01*
X153705474Y-82141559D02*
X153753093Y-82046321D01*
X153753093Y-82046321D02*
X153800712Y-81998702D01*
X153800712Y-81998702D02*
X153895950Y-81951083D01*
X153895950Y-81951083D02*
X154086426Y-81951083D01*
X154086426Y-81951083D02*
X154181664Y-81998702D01*
X154181664Y-81998702D02*
X154229283Y-82046321D01*
X154229283Y-82046321D02*
X154276902Y-82141559D01*
X155642857Y-79429580D02*
X155690476Y-79477200D01*
X155690476Y-79477200D02*
X155833333Y-79524819D01*
X155833333Y-79524819D02*
X155928571Y-79524819D01*
X155928571Y-79524819D02*
X156071428Y-79477200D01*
X156071428Y-79477200D02*
X156166666Y-79381961D01*
X156166666Y-79381961D02*
X156214285Y-79286723D01*
X156214285Y-79286723D02*
X156261904Y-79096247D01*
X156261904Y-79096247D02*
X156261904Y-78953390D01*
X156261904Y-78953390D02*
X156214285Y-78762914D01*
X156214285Y-78762914D02*
X156166666Y-78667676D01*
X156166666Y-78667676D02*
X156071428Y-78572438D01*
X156071428Y-78572438D02*
X155928571Y-78524819D01*
X155928571Y-78524819D02*
X155833333Y-78524819D01*
X155833333Y-78524819D02*
X155690476Y-78572438D01*
X155690476Y-78572438D02*
X155642857Y-78620057D01*
X154690476Y-79524819D02*
X155261904Y-79524819D01*
X154976190Y-79524819D02*
X154976190Y-78524819D01*
X154976190Y-78524819D02*
X155071428Y-78667676D01*
X155071428Y-78667676D02*
X155166666Y-78762914D01*
X155166666Y-78762914D02*
X155261904Y-78810533D01*
X153785714Y-78524819D02*
X154261904Y-78524819D01*
X154261904Y-78524819D02*
X154309523Y-79001009D01*
X154309523Y-79001009D02*
X154261904Y-78953390D01*
X154261904Y-78953390D02*
X154166666Y-78905771D01*
X154166666Y-78905771D02*
X153928571Y-78905771D01*
X153928571Y-78905771D02*
X153833333Y-78953390D01*
X153833333Y-78953390D02*
X153785714Y-79001009D01*
X153785714Y-79001009D02*
X153738095Y-79096247D01*
X153738095Y-79096247D02*
X153738095Y-79334342D01*
X153738095Y-79334342D02*
X153785714Y-79429580D01*
X153785714Y-79429580D02*
X153833333Y-79477200D01*
X153833333Y-79477200D02*
X153928571Y-79524819D01*
X153928571Y-79524819D02*
X154166666Y-79524819D01*
X154166666Y-79524819D02*
X154261904Y-79477200D01*
X154261904Y-79477200D02*
X154309523Y-79429580D01*
X180039580Y-82857142D02*
X180087200Y-82809523D01*
X180087200Y-82809523D02*
X180134819Y-82666666D01*
X180134819Y-82666666D02*
X180134819Y-82571428D01*
X180134819Y-82571428D02*
X180087200Y-82428571D01*
X180087200Y-82428571D02*
X179991961Y-82333333D01*
X179991961Y-82333333D02*
X179896723Y-82285714D01*
X179896723Y-82285714D02*
X179706247Y-82238095D01*
X179706247Y-82238095D02*
X179563390Y-82238095D01*
X179563390Y-82238095D02*
X179372914Y-82285714D01*
X179372914Y-82285714D02*
X179277676Y-82333333D01*
X179277676Y-82333333D02*
X179182438Y-82428571D01*
X179182438Y-82428571D02*
X179134819Y-82571428D01*
X179134819Y-82571428D02*
X179134819Y-82666666D01*
X179134819Y-82666666D02*
X179182438Y-82809523D01*
X179182438Y-82809523D02*
X179230057Y-82857142D01*
X180134819Y-83809523D02*
X180134819Y-83238095D01*
X180134819Y-83523809D02*
X179134819Y-83523809D01*
X179134819Y-83523809D02*
X179277676Y-83428571D01*
X179277676Y-83428571D02*
X179372914Y-83333333D01*
X179372914Y-83333333D02*
X179420533Y-83238095D01*
X180134819Y-84761904D02*
X180134819Y-84190476D01*
X180134819Y-84476190D02*
X179134819Y-84476190D01*
X179134819Y-84476190D02*
X179277676Y-84380952D01*
X179277676Y-84380952D02*
X179372914Y-84285714D01*
X179372914Y-84285714D02*
X179420533Y-84190476D01*
X164362295Y-78409524D02*
X163562295Y-78409524D01*
X163562295Y-78409524D02*
X163562295Y-78600000D01*
X163562295Y-78600000D02*
X163600390Y-78714286D01*
X163600390Y-78714286D02*
X163676580Y-78790476D01*
X163676580Y-78790476D02*
X163752771Y-78828571D01*
X163752771Y-78828571D02*
X163905152Y-78866667D01*
X163905152Y-78866667D02*
X164019438Y-78866667D01*
X164019438Y-78866667D02*
X164171819Y-78828571D01*
X164171819Y-78828571D02*
X164248009Y-78790476D01*
X164248009Y-78790476D02*
X164324200Y-78714286D01*
X164324200Y-78714286D02*
X164362295Y-78600000D01*
X164362295Y-78600000D02*
X164362295Y-78409524D01*
X163562295Y-79133333D02*
X163562295Y-79628571D01*
X163562295Y-79628571D02*
X163867057Y-79361905D01*
X163867057Y-79361905D02*
X163867057Y-79476190D01*
X163867057Y-79476190D02*
X163905152Y-79552381D01*
X163905152Y-79552381D02*
X163943247Y-79590476D01*
X163943247Y-79590476D02*
X164019438Y-79628571D01*
X164019438Y-79628571D02*
X164209914Y-79628571D01*
X164209914Y-79628571D02*
X164286104Y-79590476D01*
X164286104Y-79590476D02*
X164324200Y-79552381D01*
X164324200Y-79552381D02*
X164362295Y-79476190D01*
X164362295Y-79476190D02*
X164362295Y-79247619D01*
X164362295Y-79247619D02*
X164324200Y-79171428D01*
X164324200Y-79171428D02*
X164286104Y-79133333D01*
X180514285Y-80362295D02*
X180780952Y-79981342D01*
X180971428Y-80362295D02*
X180971428Y-79562295D01*
X180971428Y-79562295D02*
X180666666Y-79562295D01*
X180666666Y-79562295D02*
X180590476Y-79600390D01*
X180590476Y-79600390D02*
X180552381Y-79638485D01*
X180552381Y-79638485D02*
X180514285Y-79714676D01*
X180514285Y-79714676D02*
X180514285Y-79828961D01*
X180514285Y-79828961D02*
X180552381Y-79905152D01*
X180552381Y-79905152D02*
X180590476Y-79943247D01*
X180590476Y-79943247D02*
X180666666Y-79981342D01*
X180666666Y-79981342D02*
X180971428Y-79981342D01*
X179752381Y-80362295D02*
X180209524Y-80362295D01*
X179980952Y-80362295D02*
X179980952Y-79562295D01*
X179980952Y-79562295D02*
X180057143Y-79676580D01*
X180057143Y-79676580D02*
X180133333Y-79752771D01*
X180133333Y-79752771D02*
X180209524Y-79790866D01*
X179257142Y-79562295D02*
X179180952Y-79562295D01*
X179180952Y-79562295D02*
X179104761Y-79600390D01*
X179104761Y-79600390D02*
X179066666Y-79638485D01*
X179066666Y-79638485D02*
X179028571Y-79714676D01*
X179028571Y-79714676D02*
X178990476Y-79867057D01*
X178990476Y-79867057D02*
X178990476Y-80057533D01*
X178990476Y-80057533D02*
X179028571Y-80209914D01*
X179028571Y-80209914D02*
X179066666Y-80286104D01*
X179066666Y-80286104D02*
X179104761Y-80324200D01*
X179104761Y-80324200D02*
X179180952Y-80362295D01*
X179180952Y-80362295D02*
X179257142Y-80362295D01*
X179257142Y-80362295D02*
X179333333Y-80324200D01*
X179333333Y-80324200D02*
X179371428Y-80286104D01*
X179371428Y-80286104D02*
X179409523Y-80209914D01*
X179409523Y-80209914D02*
X179447619Y-80057533D01*
X179447619Y-80057533D02*
X179447619Y-79867057D01*
X179447619Y-79867057D02*
X179409523Y-79714676D01*
X179409523Y-79714676D02*
X179371428Y-79638485D01*
X179371428Y-79638485D02*
X179333333Y-79600390D01*
X179333333Y-79600390D02*
X179257142Y-79562295D01*
X153066667Y-63824200D02*
X152952381Y-63862295D01*
X152952381Y-63862295D02*
X152761905Y-63862295D01*
X152761905Y-63862295D02*
X152685714Y-63824200D01*
X152685714Y-63824200D02*
X152647619Y-63786104D01*
X152647619Y-63786104D02*
X152609524Y-63709914D01*
X152609524Y-63709914D02*
X152609524Y-63633723D01*
X152609524Y-63633723D02*
X152647619Y-63557533D01*
X152647619Y-63557533D02*
X152685714Y-63519438D01*
X152685714Y-63519438D02*
X152761905Y-63481342D01*
X152761905Y-63481342D02*
X152914286Y-63443247D01*
X152914286Y-63443247D02*
X152990476Y-63405152D01*
X152990476Y-63405152D02*
X153028571Y-63367057D01*
X153028571Y-63367057D02*
X153066667Y-63290866D01*
X153066667Y-63290866D02*
X153066667Y-63214676D01*
X153066667Y-63214676D02*
X153028571Y-63138485D01*
X153028571Y-63138485D02*
X152990476Y-63100390D01*
X152990476Y-63100390D02*
X152914286Y-63062295D01*
X152914286Y-63062295D02*
X152723809Y-63062295D01*
X152723809Y-63062295D02*
X152609524Y-63100390D01*
X152342857Y-63062295D02*
X152152381Y-63862295D01*
X152152381Y-63862295D02*
X152000000Y-63290866D01*
X152000000Y-63290866D02*
X151847619Y-63862295D01*
X151847619Y-63862295D02*
X151657143Y-63062295D01*
X150933333Y-63862295D02*
X151390476Y-63862295D01*
X151161904Y-63862295D02*
X151161904Y-63062295D01*
X151161904Y-63062295D02*
X151238095Y-63176580D01*
X151238095Y-63176580D02*
X151314285Y-63252771D01*
X151314285Y-63252771D02*
X151390476Y-63290866D01*
X172014285Y-77362295D02*
X172280952Y-76981342D01*
X172471428Y-77362295D02*
X172471428Y-76562295D01*
X172471428Y-76562295D02*
X172166666Y-76562295D01*
X172166666Y-76562295D02*
X172090476Y-76600390D01*
X172090476Y-76600390D02*
X172052381Y-76638485D01*
X172052381Y-76638485D02*
X172014285Y-76714676D01*
X172014285Y-76714676D02*
X172014285Y-76828961D01*
X172014285Y-76828961D02*
X172052381Y-76905152D01*
X172052381Y-76905152D02*
X172090476Y-76943247D01*
X172090476Y-76943247D02*
X172166666Y-76981342D01*
X172166666Y-76981342D02*
X172471428Y-76981342D01*
X171252381Y-77362295D02*
X171709524Y-77362295D01*
X171480952Y-77362295D02*
X171480952Y-76562295D01*
X171480952Y-76562295D02*
X171557143Y-76676580D01*
X171557143Y-76676580D02*
X171633333Y-76752771D01*
X171633333Y-76752771D02*
X171709524Y-76790866D01*
X170566666Y-76828961D02*
X170566666Y-77362295D01*
X170757142Y-76524200D02*
X170947619Y-77095628D01*
X170947619Y-77095628D02*
X170452380Y-77095628D01*
X142589932Y-64184069D02*
X141789932Y-64184069D01*
X142513741Y-65022164D02*
X142551837Y-64984068D01*
X142551837Y-64984068D02*
X142589932Y-64869783D01*
X142589932Y-64869783D02*
X142589932Y-64793592D01*
X142589932Y-64793592D02*
X142551837Y-64679306D01*
X142551837Y-64679306D02*
X142475646Y-64603116D01*
X142475646Y-64603116D02*
X142399456Y-64565021D01*
X142399456Y-64565021D02*
X142247075Y-64526925D01*
X142247075Y-64526925D02*
X142132789Y-64526925D01*
X142132789Y-64526925D02*
X141980408Y-64565021D01*
X141980408Y-64565021D02*
X141904217Y-64603116D01*
X141904217Y-64603116D02*
X141828027Y-64679306D01*
X141828027Y-64679306D02*
X141789932Y-64793592D01*
X141789932Y-64793592D02*
X141789932Y-64869783D01*
X141789932Y-64869783D02*
X141828027Y-64984068D01*
X141828027Y-64984068D02*
X141866122Y-65022164D01*
X141789932Y-65288830D02*
X141789932Y-65784068D01*
X141789932Y-65784068D02*
X142094694Y-65517402D01*
X142094694Y-65517402D02*
X142094694Y-65631687D01*
X142094694Y-65631687D02*
X142132789Y-65707878D01*
X142132789Y-65707878D02*
X142170884Y-65745973D01*
X142170884Y-65745973D02*
X142247075Y-65784068D01*
X142247075Y-65784068D02*
X142437551Y-65784068D01*
X142437551Y-65784068D02*
X142513741Y-65745973D01*
X142513741Y-65745973D02*
X142551837Y-65707878D01*
X142551837Y-65707878D02*
X142589932Y-65631687D01*
X142589932Y-65631687D02*
X142589932Y-65403116D01*
X142589932Y-65403116D02*
X142551837Y-65326925D01*
X142551837Y-65326925D02*
X142513741Y-65288830D01*
X147030951Y-78912295D02*
X147030951Y-78112295D01*
X146192856Y-78836104D02*
X146230952Y-78874200D01*
X146230952Y-78874200D02*
X146345237Y-78912295D01*
X146345237Y-78912295D02*
X146421428Y-78912295D01*
X146421428Y-78912295D02*
X146535714Y-78874200D01*
X146535714Y-78874200D02*
X146611904Y-78798009D01*
X146611904Y-78798009D02*
X146649999Y-78721819D01*
X146649999Y-78721819D02*
X146688095Y-78569438D01*
X146688095Y-78569438D02*
X146688095Y-78455152D01*
X146688095Y-78455152D02*
X146649999Y-78302771D01*
X146649999Y-78302771D02*
X146611904Y-78226580D01*
X146611904Y-78226580D02*
X146535714Y-78150390D01*
X146535714Y-78150390D02*
X146421428Y-78112295D01*
X146421428Y-78112295D02*
X146345237Y-78112295D01*
X146345237Y-78112295D02*
X146230952Y-78150390D01*
X146230952Y-78150390D02*
X146192856Y-78188485D01*
X145888095Y-78188485D02*
X145849999Y-78150390D01*
X145849999Y-78150390D02*
X145773809Y-78112295D01*
X145773809Y-78112295D02*
X145583333Y-78112295D01*
X145583333Y-78112295D02*
X145507142Y-78150390D01*
X145507142Y-78150390D02*
X145469047Y-78188485D01*
X145469047Y-78188485D02*
X145430952Y-78264676D01*
X145430952Y-78264676D02*
X145430952Y-78340866D01*
X145430952Y-78340866D02*
X145469047Y-78455152D01*
X145469047Y-78455152D02*
X145926190Y-78912295D01*
X145926190Y-78912295D02*
X145430952Y-78912295D01*
X178286104Y-66985714D02*
X178324200Y-66947618D01*
X178324200Y-66947618D02*
X178362295Y-66833333D01*
X178362295Y-66833333D02*
X178362295Y-66757142D01*
X178362295Y-66757142D02*
X178324200Y-66642856D01*
X178324200Y-66642856D02*
X178248009Y-66566666D01*
X178248009Y-66566666D02*
X178171819Y-66528571D01*
X178171819Y-66528571D02*
X178019438Y-66490475D01*
X178019438Y-66490475D02*
X177905152Y-66490475D01*
X177905152Y-66490475D02*
X177752771Y-66528571D01*
X177752771Y-66528571D02*
X177676580Y-66566666D01*
X177676580Y-66566666D02*
X177600390Y-66642856D01*
X177600390Y-66642856D02*
X177562295Y-66757142D01*
X177562295Y-66757142D02*
X177562295Y-66833333D01*
X177562295Y-66833333D02*
X177600390Y-66947618D01*
X177600390Y-66947618D02*
X177638485Y-66985714D01*
X177638485Y-67290475D02*
X177600390Y-67328571D01*
X177600390Y-67328571D02*
X177562295Y-67404761D01*
X177562295Y-67404761D02*
X177562295Y-67595237D01*
X177562295Y-67595237D02*
X177600390Y-67671428D01*
X177600390Y-67671428D02*
X177638485Y-67709523D01*
X177638485Y-67709523D02*
X177714676Y-67747618D01*
X177714676Y-67747618D02*
X177790866Y-67747618D01*
X177790866Y-67747618D02*
X177905152Y-67709523D01*
X177905152Y-67709523D02*
X178362295Y-67252380D01*
X178362295Y-67252380D02*
X178362295Y-67747618D01*
X177905152Y-68204761D02*
X177867057Y-68128571D01*
X177867057Y-68128571D02*
X177828961Y-68090476D01*
X177828961Y-68090476D02*
X177752771Y-68052380D01*
X177752771Y-68052380D02*
X177714676Y-68052380D01*
X177714676Y-68052380D02*
X177638485Y-68090476D01*
X177638485Y-68090476D02*
X177600390Y-68128571D01*
X177600390Y-68128571D02*
X177562295Y-68204761D01*
X177562295Y-68204761D02*
X177562295Y-68357142D01*
X177562295Y-68357142D02*
X177600390Y-68433333D01*
X177600390Y-68433333D02*
X177638485Y-68471428D01*
X177638485Y-68471428D02*
X177714676Y-68509523D01*
X177714676Y-68509523D02*
X177752771Y-68509523D01*
X177752771Y-68509523D02*
X177828961Y-68471428D01*
X177828961Y-68471428D02*
X177867057Y-68433333D01*
X177867057Y-68433333D02*
X177905152Y-68357142D01*
X177905152Y-68357142D02*
X177905152Y-68204761D01*
X177905152Y-68204761D02*
X177943247Y-68128571D01*
X177943247Y-68128571D02*
X177981342Y-68090476D01*
X177981342Y-68090476D02*
X178057533Y-68052380D01*
X178057533Y-68052380D02*
X178209914Y-68052380D01*
X178209914Y-68052380D02*
X178286104Y-68090476D01*
X178286104Y-68090476D02*
X178324200Y-68128571D01*
X178324200Y-68128571D02*
X178362295Y-68204761D01*
X178362295Y-68204761D02*
X178362295Y-68357142D01*
X178362295Y-68357142D02*
X178324200Y-68433333D01*
X178324200Y-68433333D02*
X178286104Y-68471428D01*
X178286104Y-68471428D02*
X178209914Y-68509523D01*
X178209914Y-68509523D02*
X178057533Y-68509523D01*
X178057533Y-68509523D02*
X177981342Y-68471428D01*
X177981342Y-68471428D02*
X177943247Y-68433333D01*
X177943247Y-68433333D02*
X177905152Y-68357142D01*
X175014285Y-68446104D02*
X175052381Y-68484200D01*
X175052381Y-68484200D02*
X175166666Y-68522295D01*
X175166666Y-68522295D02*
X175242857Y-68522295D01*
X175242857Y-68522295D02*
X175357143Y-68484200D01*
X175357143Y-68484200D02*
X175433333Y-68408009D01*
X175433333Y-68408009D02*
X175471428Y-68331819D01*
X175471428Y-68331819D02*
X175509524Y-68179438D01*
X175509524Y-68179438D02*
X175509524Y-68065152D01*
X175509524Y-68065152D02*
X175471428Y-67912771D01*
X175471428Y-67912771D02*
X175433333Y-67836580D01*
X175433333Y-67836580D02*
X175357143Y-67760390D01*
X175357143Y-67760390D02*
X175242857Y-67722295D01*
X175242857Y-67722295D02*
X175166666Y-67722295D01*
X175166666Y-67722295D02*
X175052381Y-67760390D01*
X175052381Y-67760390D02*
X175014285Y-67798485D01*
X174709524Y-67798485D02*
X174671428Y-67760390D01*
X174671428Y-67760390D02*
X174595238Y-67722295D01*
X174595238Y-67722295D02*
X174404762Y-67722295D01*
X174404762Y-67722295D02*
X174328571Y-67760390D01*
X174328571Y-67760390D02*
X174290476Y-67798485D01*
X174290476Y-67798485D02*
X174252381Y-67874676D01*
X174252381Y-67874676D02*
X174252381Y-67950866D01*
X174252381Y-67950866D02*
X174290476Y-68065152D01*
X174290476Y-68065152D02*
X174747619Y-68522295D01*
X174747619Y-68522295D02*
X174252381Y-68522295D01*
X173871428Y-68522295D02*
X173719047Y-68522295D01*
X173719047Y-68522295D02*
X173642857Y-68484200D01*
X173642857Y-68484200D02*
X173604761Y-68446104D01*
X173604761Y-68446104D02*
X173528571Y-68331819D01*
X173528571Y-68331819D02*
X173490476Y-68179438D01*
X173490476Y-68179438D02*
X173490476Y-67874676D01*
X173490476Y-67874676D02*
X173528571Y-67798485D01*
X173528571Y-67798485D02*
X173566666Y-67760390D01*
X173566666Y-67760390D02*
X173642857Y-67722295D01*
X173642857Y-67722295D02*
X173795238Y-67722295D01*
X173795238Y-67722295D02*
X173871428Y-67760390D01*
X173871428Y-67760390D02*
X173909523Y-67798485D01*
X173909523Y-67798485D02*
X173947619Y-67874676D01*
X173947619Y-67874676D02*
X173947619Y-68065152D01*
X173947619Y-68065152D02*
X173909523Y-68141342D01*
X173909523Y-68141342D02*
X173871428Y-68179438D01*
X173871428Y-68179438D02*
X173795238Y-68217533D01*
X173795238Y-68217533D02*
X173642857Y-68217533D01*
X173642857Y-68217533D02*
X173566666Y-68179438D01*
X173566666Y-68179438D02*
X173528571Y-68141342D01*
X173528571Y-68141342D02*
X173490476Y-68065152D01*
X141014285Y-85362295D02*
X141280952Y-84981342D01*
X141471428Y-85362295D02*
X141471428Y-84562295D01*
X141471428Y-84562295D02*
X141166666Y-84562295D01*
X141166666Y-84562295D02*
X141090476Y-84600390D01*
X141090476Y-84600390D02*
X141052381Y-84638485D01*
X141052381Y-84638485D02*
X141014285Y-84714676D01*
X141014285Y-84714676D02*
X141014285Y-84828961D01*
X141014285Y-84828961D02*
X141052381Y-84905152D01*
X141052381Y-84905152D02*
X141090476Y-84943247D01*
X141090476Y-84943247D02*
X141166666Y-84981342D01*
X141166666Y-84981342D02*
X141471428Y-84981342D01*
X140252381Y-85362295D02*
X140709524Y-85362295D01*
X140480952Y-85362295D02*
X140480952Y-84562295D01*
X140480952Y-84562295D02*
X140557143Y-84676580D01*
X140557143Y-84676580D02*
X140633333Y-84752771D01*
X140633333Y-84752771D02*
X140709524Y-84790866D01*
X139985714Y-84562295D02*
X139452380Y-84562295D01*
X139452380Y-84562295D02*
X139795238Y-85362295D01*
X138692295Y-74485714D02*
X138311342Y-74219047D01*
X138692295Y-74028571D02*
X137892295Y-74028571D01*
X137892295Y-74028571D02*
X137892295Y-74333333D01*
X137892295Y-74333333D02*
X137930390Y-74409523D01*
X137930390Y-74409523D02*
X137968485Y-74447618D01*
X137968485Y-74447618D02*
X138044676Y-74485714D01*
X138044676Y-74485714D02*
X138158961Y-74485714D01*
X138158961Y-74485714D02*
X138235152Y-74447618D01*
X138235152Y-74447618D02*
X138273247Y-74409523D01*
X138273247Y-74409523D02*
X138311342Y-74333333D01*
X138311342Y-74333333D02*
X138311342Y-74028571D01*
X137968485Y-74790475D02*
X137930390Y-74828571D01*
X137930390Y-74828571D02*
X137892295Y-74904761D01*
X137892295Y-74904761D02*
X137892295Y-75095237D01*
X137892295Y-75095237D02*
X137930390Y-75171428D01*
X137930390Y-75171428D02*
X137968485Y-75209523D01*
X137968485Y-75209523D02*
X138044676Y-75247618D01*
X138044676Y-75247618D02*
X138120866Y-75247618D01*
X138120866Y-75247618D02*
X138235152Y-75209523D01*
X138235152Y-75209523D02*
X138692295Y-74752380D01*
X138692295Y-74752380D02*
X138692295Y-75247618D01*
X138235152Y-75704761D02*
X138197057Y-75628571D01*
X138197057Y-75628571D02*
X138158961Y-75590476D01*
X138158961Y-75590476D02*
X138082771Y-75552380D01*
X138082771Y-75552380D02*
X138044676Y-75552380D01*
X138044676Y-75552380D02*
X137968485Y-75590476D01*
X137968485Y-75590476D02*
X137930390Y-75628571D01*
X137930390Y-75628571D02*
X137892295Y-75704761D01*
X137892295Y-75704761D02*
X137892295Y-75857142D01*
X137892295Y-75857142D02*
X137930390Y-75933333D01*
X137930390Y-75933333D02*
X137968485Y-75971428D01*
X137968485Y-75971428D02*
X138044676Y-76009523D01*
X138044676Y-76009523D02*
X138082771Y-76009523D01*
X138082771Y-76009523D02*
X138158961Y-75971428D01*
X138158961Y-75971428D02*
X138197057Y-75933333D01*
X138197057Y-75933333D02*
X138235152Y-75857142D01*
X138235152Y-75857142D02*
X138235152Y-75704761D01*
X138235152Y-75704761D02*
X138273247Y-75628571D01*
X138273247Y-75628571D02*
X138311342Y-75590476D01*
X138311342Y-75590476D02*
X138387533Y-75552380D01*
X138387533Y-75552380D02*
X138539914Y-75552380D01*
X138539914Y-75552380D02*
X138616104Y-75590476D01*
X138616104Y-75590476D02*
X138654200Y-75628571D01*
X138654200Y-75628571D02*
X138692295Y-75704761D01*
X138692295Y-75704761D02*
X138692295Y-75857142D01*
X138692295Y-75857142D02*
X138654200Y-75933333D01*
X138654200Y-75933333D02*
X138616104Y-75971428D01*
X138616104Y-75971428D02*
X138539914Y-76009523D01*
X138539914Y-76009523D02*
X138387533Y-76009523D01*
X138387533Y-76009523D02*
X138311342Y-75971428D01*
X138311342Y-75971428D02*
X138273247Y-75933333D01*
X138273247Y-75933333D02*
X138235152Y-75857142D01*
X140514285Y-83286104D02*
X140552381Y-83324200D01*
X140552381Y-83324200D02*
X140666666Y-83362295D01*
X140666666Y-83362295D02*
X140742857Y-83362295D01*
X140742857Y-83362295D02*
X140857143Y-83324200D01*
X140857143Y-83324200D02*
X140933333Y-83248009D01*
X140933333Y-83248009D02*
X140971428Y-83171819D01*
X140971428Y-83171819D02*
X141009524Y-83019438D01*
X141009524Y-83019438D02*
X141009524Y-82905152D01*
X141009524Y-82905152D02*
X140971428Y-82752771D01*
X140971428Y-82752771D02*
X140933333Y-82676580D01*
X140933333Y-82676580D02*
X140857143Y-82600390D01*
X140857143Y-82600390D02*
X140742857Y-82562295D01*
X140742857Y-82562295D02*
X140666666Y-82562295D01*
X140666666Y-82562295D02*
X140552381Y-82600390D01*
X140552381Y-82600390D02*
X140514285Y-82638485D01*
X140209524Y-82638485D02*
X140171428Y-82600390D01*
X140171428Y-82600390D02*
X140095238Y-82562295D01*
X140095238Y-82562295D02*
X139904762Y-82562295D01*
X139904762Y-82562295D02*
X139828571Y-82600390D01*
X139828571Y-82600390D02*
X139790476Y-82638485D01*
X139790476Y-82638485D02*
X139752381Y-82714676D01*
X139752381Y-82714676D02*
X139752381Y-82790866D01*
X139752381Y-82790866D02*
X139790476Y-82905152D01*
X139790476Y-82905152D02*
X140247619Y-83362295D01*
X140247619Y-83362295D02*
X139752381Y-83362295D01*
X139257142Y-82562295D02*
X139180952Y-82562295D01*
X139180952Y-82562295D02*
X139104761Y-82600390D01*
X139104761Y-82600390D02*
X139066666Y-82638485D01*
X139066666Y-82638485D02*
X139028571Y-82714676D01*
X139028571Y-82714676D02*
X138990476Y-82867057D01*
X138990476Y-82867057D02*
X138990476Y-83057533D01*
X138990476Y-83057533D02*
X139028571Y-83209914D01*
X139028571Y-83209914D02*
X139066666Y-83286104D01*
X139066666Y-83286104D02*
X139104761Y-83324200D01*
X139104761Y-83324200D02*
X139180952Y-83362295D01*
X139180952Y-83362295D02*
X139257142Y-83362295D01*
X139257142Y-83362295D02*
X139333333Y-83324200D01*
X139333333Y-83324200D02*
X139371428Y-83286104D01*
X139371428Y-83286104D02*
X139409523Y-83209914D01*
X139409523Y-83209914D02*
X139447619Y-83057533D01*
X139447619Y-83057533D02*
X139447619Y-82867057D01*
X139447619Y-82867057D02*
X139409523Y-82714676D01*
X139409523Y-82714676D02*
X139371428Y-82638485D01*
X139371428Y-82638485D02*
X139333333Y-82600390D01*
X139333333Y-82600390D02*
X139257142Y-82562295D01*
X172446104Y-59485714D02*
X172484200Y-59447618D01*
X172484200Y-59447618D02*
X172522295Y-59333333D01*
X172522295Y-59333333D02*
X172522295Y-59257142D01*
X172522295Y-59257142D02*
X172484200Y-59142856D01*
X172484200Y-59142856D02*
X172408009Y-59066666D01*
X172408009Y-59066666D02*
X172331819Y-59028571D01*
X172331819Y-59028571D02*
X172179438Y-58990475D01*
X172179438Y-58990475D02*
X172065152Y-58990475D01*
X172065152Y-58990475D02*
X171912771Y-59028571D01*
X171912771Y-59028571D02*
X171836580Y-59066666D01*
X171836580Y-59066666D02*
X171760390Y-59142856D01*
X171760390Y-59142856D02*
X171722295Y-59257142D01*
X171722295Y-59257142D02*
X171722295Y-59333333D01*
X171722295Y-59333333D02*
X171760390Y-59447618D01*
X171760390Y-59447618D02*
X171798485Y-59485714D01*
X171798485Y-59790475D02*
X171760390Y-59828571D01*
X171760390Y-59828571D02*
X171722295Y-59904761D01*
X171722295Y-59904761D02*
X171722295Y-60095237D01*
X171722295Y-60095237D02*
X171760390Y-60171428D01*
X171760390Y-60171428D02*
X171798485Y-60209523D01*
X171798485Y-60209523D02*
X171874676Y-60247618D01*
X171874676Y-60247618D02*
X171950866Y-60247618D01*
X171950866Y-60247618D02*
X172065152Y-60209523D01*
X172065152Y-60209523D02*
X172522295Y-59752380D01*
X172522295Y-59752380D02*
X172522295Y-60247618D01*
X171722295Y-60933333D02*
X171722295Y-60780952D01*
X171722295Y-60780952D02*
X171760390Y-60704761D01*
X171760390Y-60704761D02*
X171798485Y-60666666D01*
X171798485Y-60666666D02*
X171912771Y-60590476D01*
X171912771Y-60590476D02*
X172065152Y-60552380D01*
X172065152Y-60552380D02*
X172369914Y-60552380D01*
X172369914Y-60552380D02*
X172446104Y-60590476D01*
X172446104Y-60590476D02*
X172484200Y-60628571D01*
X172484200Y-60628571D02*
X172522295Y-60704761D01*
X172522295Y-60704761D02*
X172522295Y-60857142D01*
X172522295Y-60857142D02*
X172484200Y-60933333D01*
X172484200Y-60933333D02*
X172446104Y-60971428D01*
X172446104Y-60971428D02*
X172369914Y-61009523D01*
X172369914Y-61009523D02*
X172179438Y-61009523D01*
X172179438Y-61009523D02*
X172103247Y-60971428D01*
X172103247Y-60971428D02*
X172065152Y-60933333D01*
X172065152Y-60933333D02*
X172027057Y-60857142D01*
X172027057Y-60857142D02*
X172027057Y-60704761D01*
X172027057Y-60704761D02*
X172065152Y-60628571D01*
X172065152Y-60628571D02*
X172103247Y-60590476D01*
X172103247Y-60590476D02*
X172179438Y-60552380D01*
X136286104Y-79985714D02*
X136324200Y-79947618D01*
X136324200Y-79947618D02*
X136362295Y-79833333D01*
X136362295Y-79833333D02*
X136362295Y-79757142D01*
X136362295Y-79757142D02*
X136324200Y-79642856D01*
X136324200Y-79642856D02*
X136248009Y-79566666D01*
X136248009Y-79566666D02*
X136171819Y-79528571D01*
X136171819Y-79528571D02*
X136019438Y-79490475D01*
X136019438Y-79490475D02*
X135905152Y-79490475D01*
X135905152Y-79490475D02*
X135752771Y-79528571D01*
X135752771Y-79528571D02*
X135676580Y-79566666D01*
X135676580Y-79566666D02*
X135600390Y-79642856D01*
X135600390Y-79642856D02*
X135562295Y-79757142D01*
X135562295Y-79757142D02*
X135562295Y-79833333D01*
X135562295Y-79833333D02*
X135600390Y-79947618D01*
X135600390Y-79947618D02*
X135638485Y-79985714D01*
X135638485Y-80290475D02*
X135600390Y-80328571D01*
X135600390Y-80328571D02*
X135562295Y-80404761D01*
X135562295Y-80404761D02*
X135562295Y-80595237D01*
X135562295Y-80595237D02*
X135600390Y-80671428D01*
X135600390Y-80671428D02*
X135638485Y-80709523D01*
X135638485Y-80709523D02*
X135714676Y-80747618D01*
X135714676Y-80747618D02*
X135790866Y-80747618D01*
X135790866Y-80747618D02*
X135905152Y-80709523D01*
X135905152Y-80709523D02*
X136362295Y-80252380D01*
X136362295Y-80252380D02*
X136362295Y-80747618D01*
X136362295Y-81509523D02*
X136362295Y-81052380D01*
X136362295Y-81280952D02*
X135562295Y-81280952D01*
X135562295Y-81280952D02*
X135676580Y-81204761D01*
X135676580Y-81204761D02*
X135752771Y-81128571D01*
X135752771Y-81128571D02*
X135790866Y-81052380D01*
X174286104Y-79985714D02*
X174324200Y-79947618D01*
X174324200Y-79947618D02*
X174362295Y-79833333D01*
X174362295Y-79833333D02*
X174362295Y-79757142D01*
X174362295Y-79757142D02*
X174324200Y-79642856D01*
X174324200Y-79642856D02*
X174248009Y-79566666D01*
X174248009Y-79566666D02*
X174171819Y-79528571D01*
X174171819Y-79528571D02*
X174019438Y-79490475D01*
X174019438Y-79490475D02*
X173905152Y-79490475D01*
X173905152Y-79490475D02*
X173752771Y-79528571D01*
X173752771Y-79528571D02*
X173676580Y-79566666D01*
X173676580Y-79566666D02*
X173600390Y-79642856D01*
X173600390Y-79642856D02*
X173562295Y-79757142D01*
X173562295Y-79757142D02*
X173562295Y-79833333D01*
X173562295Y-79833333D02*
X173600390Y-79947618D01*
X173600390Y-79947618D02*
X173638485Y-79985714D01*
X174362295Y-80747618D02*
X174362295Y-80290475D01*
X174362295Y-80519047D02*
X173562295Y-80519047D01*
X173562295Y-80519047D02*
X173676580Y-80442856D01*
X173676580Y-80442856D02*
X173752771Y-80366666D01*
X173752771Y-80366666D02*
X173790866Y-80290475D01*
X173638485Y-81052380D02*
X173600390Y-81090476D01*
X173600390Y-81090476D02*
X173562295Y-81166666D01*
X173562295Y-81166666D02*
X173562295Y-81357142D01*
X173562295Y-81357142D02*
X173600390Y-81433333D01*
X173600390Y-81433333D02*
X173638485Y-81471428D01*
X173638485Y-81471428D02*
X173714676Y-81509523D01*
X173714676Y-81509523D02*
X173790866Y-81509523D01*
X173790866Y-81509523D02*
X173905152Y-81471428D01*
X173905152Y-81471428D02*
X174362295Y-81014285D01*
X174362295Y-81014285D02*
X174362295Y-81509523D01*
X168286104Y-75485714D02*
X168324200Y-75447618D01*
X168324200Y-75447618D02*
X168362295Y-75333333D01*
X168362295Y-75333333D02*
X168362295Y-75257142D01*
X168362295Y-75257142D02*
X168324200Y-75142856D01*
X168324200Y-75142856D02*
X168248009Y-75066666D01*
X168248009Y-75066666D02*
X168171819Y-75028571D01*
X168171819Y-75028571D02*
X168019438Y-74990475D01*
X168019438Y-74990475D02*
X167905152Y-74990475D01*
X167905152Y-74990475D02*
X167752771Y-75028571D01*
X167752771Y-75028571D02*
X167676580Y-75066666D01*
X167676580Y-75066666D02*
X167600390Y-75142856D01*
X167600390Y-75142856D02*
X167562295Y-75257142D01*
X167562295Y-75257142D02*
X167562295Y-75333333D01*
X167562295Y-75333333D02*
X167600390Y-75447618D01*
X167600390Y-75447618D02*
X167638485Y-75485714D01*
X168362295Y-76247618D02*
X168362295Y-75790475D01*
X168362295Y-76019047D02*
X167562295Y-76019047D01*
X167562295Y-76019047D02*
X167676580Y-75942856D01*
X167676580Y-75942856D02*
X167752771Y-75866666D01*
X167752771Y-75866666D02*
X167790866Y-75790475D01*
X167562295Y-76514285D02*
X167562295Y-77009523D01*
X167562295Y-77009523D02*
X167867057Y-76742857D01*
X167867057Y-76742857D02*
X167867057Y-76857142D01*
X167867057Y-76857142D02*
X167905152Y-76933333D01*
X167905152Y-76933333D02*
X167943247Y-76971428D01*
X167943247Y-76971428D02*
X168019438Y-77009523D01*
X168019438Y-77009523D02*
X168209914Y-77009523D01*
X168209914Y-77009523D02*
X168286104Y-76971428D01*
X168286104Y-76971428D02*
X168324200Y-76933333D01*
X168324200Y-76933333D02*
X168362295Y-76857142D01*
X168362295Y-76857142D02*
X168362295Y-76628571D01*
X168362295Y-76628571D02*
X168324200Y-76552380D01*
X168324200Y-76552380D02*
X168286104Y-76514285D01*
X172014285Y-75216104D02*
X172052381Y-75254200D01*
X172052381Y-75254200D02*
X172166666Y-75292295D01*
X172166666Y-75292295D02*
X172242857Y-75292295D01*
X172242857Y-75292295D02*
X172357143Y-75254200D01*
X172357143Y-75254200D02*
X172433333Y-75178009D01*
X172433333Y-75178009D02*
X172471428Y-75101819D01*
X172471428Y-75101819D02*
X172509524Y-74949438D01*
X172509524Y-74949438D02*
X172509524Y-74835152D01*
X172509524Y-74835152D02*
X172471428Y-74682771D01*
X172471428Y-74682771D02*
X172433333Y-74606580D01*
X172433333Y-74606580D02*
X172357143Y-74530390D01*
X172357143Y-74530390D02*
X172242857Y-74492295D01*
X172242857Y-74492295D02*
X172166666Y-74492295D01*
X172166666Y-74492295D02*
X172052381Y-74530390D01*
X172052381Y-74530390D02*
X172014285Y-74568485D01*
X171709524Y-74568485D02*
X171671428Y-74530390D01*
X171671428Y-74530390D02*
X171595238Y-74492295D01*
X171595238Y-74492295D02*
X171404762Y-74492295D01*
X171404762Y-74492295D02*
X171328571Y-74530390D01*
X171328571Y-74530390D02*
X171290476Y-74568485D01*
X171290476Y-74568485D02*
X171252381Y-74644676D01*
X171252381Y-74644676D02*
X171252381Y-74720866D01*
X171252381Y-74720866D02*
X171290476Y-74835152D01*
X171290476Y-74835152D02*
X171747619Y-75292295D01*
X171747619Y-75292295D02*
X171252381Y-75292295D01*
X170528571Y-74492295D02*
X170909523Y-74492295D01*
X170909523Y-74492295D02*
X170947619Y-74873247D01*
X170947619Y-74873247D02*
X170909523Y-74835152D01*
X170909523Y-74835152D02*
X170833333Y-74797057D01*
X170833333Y-74797057D02*
X170642857Y-74797057D01*
X170642857Y-74797057D02*
X170566666Y-74835152D01*
X170566666Y-74835152D02*
X170528571Y-74873247D01*
X170528571Y-74873247D02*
X170490476Y-74949438D01*
X170490476Y-74949438D02*
X170490476Y-75139914D01*
X170490476Y-75139914D02*
X170528571Y-75216104D01*
X170528571Y-75216104D02*
X170566666Y-75254200D01*
X170566666Y-75254200D02*
X170642857Y-75292295D01*
X170642857Y-75292295D02*
X170833333Y-75292295D01*
X170833333Y-75292295D02*
X170909523Y-75254200D01*
X170909523Y-75254200D02*
X170947619Y-75216104D01*
X131739024Y-72311343D02*
X131415776Y-72634591D01*
X132143085Y-73038652D02*
X131577400Y-72472967D01*
X131792899Y-73388839D02*
X131227214Y-72823153D01*
X131227214Y-72823153D02*
X131011714Y-73038653D01*
X131011714Y-73038653D02*
X130984777Y-73119465D01*
X130984777Y-73119465D02*
X130984777Y-73173340D01*
X130984777Y-73173340D02*
X131011714Y-73254152D01*
X131011714Y-73254152D02*
X131092527Y-73334964D01*
X131092527Y-73334964D02*
X131173339Y-73361901D01*
X131173339Y-73361901D02*
X131227214Y-73361901D01*
X131227214Y-73361901D02*
X131308026Y-73334964D01*
X131308026Y-73334964D02*
X131523525Y-73119465D01*
X130392154Y-73658213D02*
X130661528Y-73388839D01*
X130661528Y-73388839D02*
X130957840Y-73631275D01*
X130957840Y-73631275D02*
X130903965Y-73631275D01*
X130903965Y-73631275D02*
X130823153Y-73658213D01*
X130823153Y-73658213D02*
X130688466Y-73792900D01*
X130688466Y-73792900D02*
X130661528Y-73873712D01*
X130661528Y-73873712D02*
X130661528Y-73927587D01*
X130661528Y-73927587D02*
X130688466Y-74008399D01*
X130688466Y-74008399D02*
X130823153Y-74143086D01*
X130823153Y-74143086D02*
X130903965Y-74170023D01*
X130903965Y-74170023D02*
X130957840Y-74170023D01*
X130957840Y-74170023D02*
X131038652Y-74143086D01*
X131038652Y-74143086D02*
X131173339Y-74008399D01*
X131173339Y-74008399D02*
X131200276Y-73927587D01*
X131200276Y-73927587D02*
X131200276Y-73873712D01*
X182251671Y-75218190D02*
X181928423Y-75541438D01*
X182655732Y-75945499D02*
X182090047Y-75379814D01*
X182305546Y-76295686D02*
X181739861Y-75730000D01*
X181739861Y-75730000D02*
X181524361Y-75945500D01*
X181524361Y-75945500D02*
X181497424Y-76026312D01*
X181497424Y-76026312D02*
X181497424Y-76080187D01*
X181497424Y-76080187D02*
X181524361Y-76160999D01*
X181524361Y-76160999D02*
X181605174Y-76241811D01*
X181605174Y-76241811D02*
X181685986Y-76268748D01*
X181685986Y-76268748D02*
X181739861Y-76268748D01*
X181739861Y-76268748D02*
X181820673Y-76241811D01*
X181820673Y-76241811D02*
X182036172Y-76026312D01*
X181228050Y-76241811D02*
X180877864Y-76591997D01*
X180877864Y-76591997D02*
X181281925Y-76618935D01*
X181281925Y-76618935D02*
X181201113Y-76699747D01*
X181201113Y-76699747D02*
X181174175Y-76780559D01*
X181174175Y-76780559D02*
X181174175Y-76834434D01*
X181174175Y-76834434D02*
X181201113Y-76915246D01*
X181201113Y-76915246D02*
X181335800Y-77049933D01*
X181335800Y-77049933D02*
X181416612Y-77076870D01*
X181416612Y-77076870D02*
X181470487Y-77076870D01*
X181470487Y-77076870D02*
X181551299Y-77049933D01*
X181551299Y-77049933D02*
X181712923Y-76888309D01*
X181712923Y-76888309D02*
X181739861Y-76807496D01*
X181739861Y-76807496D02*
X181739861Y-76753622D01*
X134562295Y-67890476D02*
X135209914Y-67890476D01*
X135209914Y-67890476D02*
X135286104Y-67928571D01*
X135286104Y-67928571D02*
X135324200Y-67966666D01*
X135324200Y-67966666D02*
X135362295Y-68042857D01*
X135362295Y-68042857D02*
X135362295Y-68195238D01*
X135362295Y-68195238D02*
X135324200Y-68271428D01*
X135324200Y-68271428D02*
X135286104Y-68309523D01*
X135286104Y-68309523D02*
X135209914Y-68347619D01*
X135209914Y-68347619D02*
X134562295Y-68347619D01*
X134562295Y-68652380D02*
X134562295Y-69147618D01*
X134562295Y-69147618D02*
X134867057Y-68880952D01*
X134867057Y-68880952D02*
X134867057Y-68995237D01*
X134867057Y-68995237D02*
X134905152Y-69071428D01*
X134905152Y-69071428D02*
X134943247Y-69109523D01*
X134943247Y-69109523D02*
X135019438Y-69147618D01*
X135019438Y-69147618D02*
X135209914Y-69147618D01*
X135209914Y-69147618D02*
X135286104Y-69109523D01*
X135286104Y-69109523D02*
X135324200Y-69071428D01*
X135324200Y-69071428D02*
X135362295Y-68995237D01*
X135362295Y-68995237D02*
X135362295Y-68766666D01*
X135362295Y-68766666D02*
X135324200Y-68690475D01*
X135324200Y-68690475D02*
X135286104Y-68652380D01*
X175317521Y-63856299D02*
X175317521Y-64313442D01*
X176117521Y-64084870D02*
X175317521Y-64084870D01*
X176117521Y-64580109D02*
X175317521Y-64580109D01*
X175317521Y-64580109D02*
X175317521Y-64884871D01*
X175317521Y-64884871D02*
X175355616Y-64961061D01*
X175355616Y-64961061D02*
X175393711Y-64999156D01*
X175393711Y-64999156D02*
X175469902Y-65037252D01*
X175469902Y-65037252D02*
X175584187Y-65037252D01*
X175584187Y-65037252D02*
X175660378Y-64999156D01*
X175660378Y-64999156D02*
X175698473Y-64961061D01*
X175698473Y-64961061D02*
X175736568Y-64884871D01*
X175736568Y-64884871D02*
X175736568Y-64580109D01*
X175317521Y-65722966D02*
X175317521Y-65570585D01*
X175317521Y-65570585D02*
X175355616Y-65494394D01*
X175355616Y-65494394D02*
X175393711Y-65456299D01*
X175393711Y-65456299D02*
X175507997Y-65380109D01*
X175507997Y-65380109D02*
X175660378Y-65342013D01*
X175660378Y-65342013D02*
X175965140Y-65342013D01*
X175965140Y-65342013D02*
X176041330Y-65380109D01*
X176041330Y-65380109D02*
X176079426Y-65418204D01*
X176079426Y-65418204D02*
X176117521Y-65494394D01*
X176117521Y-65494394D02*
X176117521Y-65646775D01*
X176117521Y-65646775D02*
X176079426Y-65722966D01*
X176079426Y-65722966D02*
X176041330Y-65761061D01*
X176041330Y-65761061D02*
X175965140Y-65799156D01*
X175965140Y-65799156D02*
X175774664Y-65799156D01*
X175774664Y-65799156D02*
X175698473Y-65761061D01*
X175698473Y-65761061D02*
X175660378Y-65722966D01*
X175660378Y-65722966D02*
X175622283Y-65646775D01*
X175622283Y-65646775D02*
X175622283Y-65494394D01*
X175622283Y-65494394D02*
X175660378Y-65418204D01*
X175660378Y-65418204D02*
X175698473Y-65380109D01*
X175698473Y-65380109D02*
X175774664Y-65342013D01*
X165362295Y-74985714D02*
X164981342Y-74719047D01*
X165362295Y-74528571D02*
X164562295Y-74528571D01*
X164562295Y-74528571D02*
X164562295Y-74833333D01*
X164562295Y-74833333D02*
X164600390Y-74909523D01*
X164600390Y-74909523D02*
X164638485Y-74947618D01*
X164638485Y-74947618D02*
X164714676Y-74985714D01*
X164714676Y-74985714D02*
X164828961Y-74985714D01*
X164828961Y-74985714D02*
X164905152Y-74947618D01*
X164905152Y-74947618D02*
X164943247Y-74909523D01*
X164943247Y-74909523D02*
X164981342Y-74833333D01*
X164981342Y-74833333D02*
X164981342Y-74528571D01*
X165362295Y-75747618D02*
X165362295Y-75290475D01*
X165362295Y-75519047D02*
X164562295Y-75519047D01*
X164562295Y-75519047D02*
X164676580Y-75442856D01*
X164676580Y-75442856D02*
X164752771Y-75366666D01*
X164752771Y-75366666D02*
X164790866Y-75290475D01*
X164638485Y-76052380D02*
X164600390Y-76090476D01*
X164600390Y-76090476D02*
X164562295Y-76166666D01*
X164562295Y-76166666D02*
X164562295Y-76357142D01*
X164562295Y-76357142D02*
X164600390Y-76433333D01*
X164600390Y-76433333D02*
X164638485Y-76471428D01*
X164638485Y-76471428D02*
X164714676Y-76509523D01*
X164714676Y-76509523D02*
X164790866Y-76509523D01*
X164790866Y-76509523D02*
X164905152Y-76471428D01*
X164905152Y-76471428D02*
X165362295Y-76014285D01*
X165362295Y-76014285D02*
X165362295Y-76509523D01*
X172252719Y-81479621D02*
X171452719Y-81479621D01*
X172176528Y-82317716D02*
X172214624Y-82279620D01*
X172214624Y-82279620D02*
X172252719Y-82165335D01*
X172252719Y-82165335D02*
X172252719Y-82089144D01*
X172252719Y-82089144D02*
X172214624Y-81974858D01*
X172214624Y-81974858D02*
X172138433Y-81898668D01*
X172138433Y-81898668D02*
X172062243Y-81860573D01*
X172062243Y-81860573D02*
X171909862Y-81822477D01*
X171909862Y-81822477D02*
X171795576Y-81822477D01*
X171795576Y-81822477D02*
X171643195Y-81860573D01*
X171643195Y-81860573D02*
X171567004Y-81898668D01*
X171567004Y-81898668D02*
X171490814Y-81974858D01*
X171490814Y-81974858D02*
X171452719Y-82089144D01*
X171452719Y-82089144D02*
X171452719Y-82165335D01*
X171452719Y-82165335D02*
X171490814Y-82279620D01*
X171490814Y-82279620D02*
X171528909Y-82317716D01*
X172252719Y-83079620D02*
X172252719Y-82622477D01*
X172252719Y-82851049D02*
X171452719Y-82851049D01*
X171452719Y-82851049D02*
X171567004Y-82774858D01*
X171567004Y-82774858D02*
X171643195Y-82698668D01*
X171643195Y-82698668D02*
X171681290Y-82622477D01*
X184014285Y-81532295D02*
X184280952Y-81151342D01*
X184471428Y-81532295D02*
X184471428Y-80732295D01*
X184471428Y-80732295D02*
X184166666Y-80732295D01*
X184166666Y-80732295D02*
X184090476Y-80770390D01*
X184090476Y-80770390D02*
X184052381Y-80808485D01*
X184052381Y-80808485D02*
X184014285Y-80884676D01*
X184014285Y-80884676D02*
X184014285Y-80998961D01*
X184014285Y-80998961D02*
X184052381Y-81075152D01*
X184052381Y-81075152D02*
X184090476Y-81113247D01*
X184090476Y-81113247D02*
X184166666Y-81151342D01*
X184166666Y-81151342D02*
X184471428Y-81151342D01*
X183252381Y-81532295D02*
X183709524Y-81532295D01*
X183480952Y-81532295D02*
X183480952Y-80732295D01*
X183480952Y-80732295D02*
X183557143Y-80846580D01*
X183557143Y-80846580D02*
X183633333Y-80922771D01*
X183633333Y-80922771D02*
X183709524Y-80960866D01*
X182566666Y-80732295D02*
X182719047Y-80732295D01*
X182719047Y-80732295D02*
X182795238Y-80770390D01*
X182795238Y-80770390D02*
X182833333Y-80808485D01*
X182833333Y-80808485D02*
X182909523Y-80922771D01*
X182909523Y-80922771D02*
X182947619Y-81075152D01*
X182947619Y-81075152D02*
X182947619Y-81379914D01*
X182947619Y-81379914D02*
X182909523Y-81456104D01*
X182909523Y-81456104D02*
X182871428Y-81494200D01*
X182871428Y-81494200D02*
X182795238Y-81532295D01*
X182795238Y-81532295D02*
X182642857Y-81532295D01*
X182642857Y-81532295D02*
X182566666Y-81494200D01*
X182566666Y-81494200D02*
X182528571Y-81456104D01*
X182528571Y-81456104D02*
X182490476Y-81379914D01*
X182490476Y-81379914D02*
X182490476Y-81189438D01*
X182490476Y-81189438D02*
X182528571Y-81113247D01*
X182528571Y-81113247D02*
X182566666Y-81075152D01*
X182566666Y-81075152D02*
X182642857Y-81037057D01*
X182642857Y-81037057D02*
X182795238Y-81037057D01*
X182795238Y-81037057D02*
X182871428Y-81075152D01*
X182871428Y-81075152D02*
X182909523Y-81113247D01*
X182909523Y-81113247D02*
X182947619Y-81189438D01*
X154946104Y-64866667D02*
X154984200Y-64828571D01*
X154984200Y-64828571D02*
X155022295Y-64714286D01*
X155022295Y-64714286D02*
X155022295Y-64638095D01*
X155022295Y-64638095D02*
X154984200Y-64523809D01*
X154984200Y-64523809D02*
X154908009Y-64447619D01*
X154908009Y-64447619D02*
X154831819Y-64409524D01*
X154831819Y-64409524D02*
X154679438Y-64371428D01*
X154679438Y-64371428D02*
X154565152Y-64371428D01*
X154565152Y-64371428D02*
X154412771Y-64409524D01*
X154412771Y-64409524D02*
X154336580Y-64447619D01*
X154336580Y-64447619D02*
X154260390Y-64523809D01*
X154260390Y-64523809D02*
X154222295Y-64638095D01*
X154222295Y-64638095D02*
X154222295Y-64714286D01*
X154222295Y-64714286D02*
X154260390Y-64828571D01*
X154260390Y-64828571D02*
X154298485Y-64866667D01*
X154222295Y-65133333D02*
X154222295Y-65666667D01*
X154222295Y-65666667D02*
X155022295Y-65323809D01*
X153362295Y-57269167D02*
X152981342Y-57002500D01*
X153362295Y-56812024D02*
X152562295Y-56812024D01*
X152562295Y-56812024D02*
X152562295Y-57116786D01*
X152562295Y-57116786D02*
X152600390Y-57192976D01*
X152600390Y-57192976D02*
X152638485Y-57231071D01*
X152638485Y-57231071D02*
X152714676Y-57269167D01*
X152714676Y-57269167D02*
X152828961Y-57269167D01*
X152828961Y-57269167D02*
X152905152Y-57231071D01*
X152905152Y-57231071D02*
X152943247Y-57192976D01*
X152943247Y-57192976D02*
X152981342Y-57116786D01*
X152981342Y-57116786D02*
X152981342Y-56812024D01*
X153362295Y-58031071D02*
X153362295Y-57573928D01*
X153362295Y-57802500D02*
X152562295Y-57802500D01*
X152562295Y-57802500D02*
X152676580Y-57726309D01*
X152676580Y-57726309D02*
X152752771Y-57650119D01*
X152752771Y-57650119D02*
X152790866Y-57573928D01*
X144692295Y-70866667D02*
X144311342Y-70600000D01*
X144692295Y-70409524D02*
X143892295Y-70409524D01*
X143892295Y-70409524D02*
X143892295Y-70714286D01*
X143892295Y-70714286D02*
X143930390Y-70790476D01*
X143930390Y-70790476D02*
X143968485Y-70828571D01*
X143968485Y-70828571D02*
X144044676Y-70866667D01*
X144044676Y-70866667D02*
X144158961Y-70866667D01*
X144158961Y-70866667D02*
X144235152Y-70828571D01*
X144235152Y-70828571D02*
X144273247Y-70790476D01*
X144273247Y-70790476D02*
X144311342Y-70714286D01*
X144311342Y-70714286D02*
X144311342Y-70409524D01*
X144235152Y-71323809D02*
X144197057Y-71247619D01*
X144197057Y-71247619D02*
X144158961Y-71209524D01*
X144158961Y-71209524D02*
X144082771Y-71171428D01*
X144082771Y-71171428D02*
X144044676Y-71171428D01*
X144044676Y-71171428D02*
X143968485Y-71209524D01*
X143968485Y-71209524D02*
X143930390Y-71247619D01*
X143930390Y-71247619D02*
X143892295Y-71323809D01*
X143892295Y-71323809D02*
X143892295Y-71476190D01*
X143892295Y-71476190D02*
X143930390Y-71552381D01*
X143930390Y-71552381D02*
X143968485Y-71590476D01*
X143968485Y-71590476D02*
X144044676Y-71628571D01*
X144044676Y-71628571D02*
X144082771Y-71628571D01*
X144082771Y-71628571D02*
X144158961Y-71590476D01*
X144158961Y-71590476D02*
X144197057Y-71552381D01*
X144197057Y-71552381D02*
X144235152Y-71476190D01*
X144235152Y-71476190D02*
X144235152Y-71323809D01*
X144235152Y-71323809D02*
X144273247Y-71247619D01*
X144273247Y-71247619D02*
X144311342Y-71209524D01*
X144311342Y-71209524D02*
X144387533Y-71171428D01*
X144387533Y-71171428D02*
X144539914Y-71171428D01*
X144539914Y-71171428D02*
X144616104Y-71209524D01*
X144616104Y-71209524D02*
X144654200Y-71247619D01*
X144654200Y-71247619D02*
X144692295Y-71323809D01*
X144692295Y-71323809D02*
X144692295Y-71476190D01*
X144692295Y-71476190D02*
X144654200Y-71552381D01*
X144654200Y-71552381D02*
X144616104Y-71590476D01*
X144616104Y-71590476D02*
X144539914Y-71628571D01*
X144539914Y-71628571D02*
X144387533Y-71628571D01*
X144387533Y-71628571D02*
X144311342Y-71590476D01*
X144311342Y-71590476D02*
X144273247Y-71552381D01*
X144273247Y-71552381D02*
X144235152Y-71476190D01*
X157446104Y-57299167D02*
X157484200Y-57261071D01*
X157484200Y-57261071D02*
X157522295Y-57146786D01*
X157522295Y-57146786D02*
X157522295Y-57070595D01*
X157522295Y-57070595D02*
X157484200Y-56956309D01*
X157484200Y-56956309D02*
X157408009Y-56880119D01*
X157408009Y-56880119D02*
X157331819Y-56842024D01*
X157331819Y-56842024D02*
X157179438Y-56803928D01*
X157179438Y-56803928D02*
X157065152Y-56803928D01*
X157065152Y-56803928D02*
X156912771Y-56842024D01*
X156912771Y-56842024D02*
X156836580Y-56880119D01*
X156836580Y-56880119D02*
X156760390Y-56956309D01*
X156760390Y-56956309D02*
X156722295Y-57070595D01*
X156722295Y-57070595D02*
X156722295Y-57146786D01*
X156722295Y-57146786D02*
X156760390Y-57261071D01*
X156760390Y-57261071D02*
X156798485Y-57299167D01*
X157522295Y-58061071D02*
X157522295Y-57603928D01*
X157522295Y-57832500D02*
X156722295Y-57832500D01*
X156722295Y-57832500D02*
X156836580Y-57756309D01*
X156836580Y-57756309D02*
X156912771Y-57680119D01*
X156912771Y-57680119D02*
X156950866Y-57603928D01*
X147032295Y-62485714D02*
X146651342Y-62219047D01*
X147032295Y-62028571D02*
X146232295Y-62028571D01*
X146232295Y-62028571D02*
X146232295Y-62333333D01*
X146232295Y-62333333D02*
X146270390Y-62409523D01*
X146270390Y-62409523D02*
X146308485Y-62447618D01*
X146308485Y-62447618D02*
X146384676Y-62485714D01*
X146384676Y-62485714D02*
X146498961Y-62485714D01*
X146498961Y-62485714D02*
X146575152Y-62447618D01*
X146575152Y-62447618D02*
X146613247Y-62409523D01*
X146613247Y-62409523D02*
X146651342Y-62333333D01*
X146651342Y-62333333D02*
X146651342Y-62028571D01*
X146308485Y-62790475D02*
X146270390Y-62828571D01*
X146270390Y-62828571D02*
X146232295Y-62904761D01*
X146232295Y-62904761D02*
X146232295Y-63095237D01*
X146232295Y-63095237D02*
X146270390Y-63171428D01*
X146270390Y-63171428D02*
X146308485Y-63209523D01*
X146308485Y-63209523D02*
X146384676Y-63247618D01*
X146384676Y-63247618D02*
X146460866Y-63247618D01*
X146460866Y-63247618D02*
X146575152Y-63209523D01*
X146575152Y-63209523D02*
X147032295Y-62752380D01*
X147032295Y-62752380D02*
X147032295Y-63247618D01*
X147032295Y-63628571D02*
X147032295Y-63780952D01*
X147032295Y-63780952D02*
X146994200Y-63857142D01*
X146994200Y-63857142D02*
X146956104Y-63895238D01*
X146956104Y-63895238D02*
X146841819Y-63971428D01*
X146841819Y-63971428D02*
X146689438Y-64009523D01*
X146689438Y-64009523D02*
X146384676Y-64009523D01*
X146384676Y-64009523D02*
X146308485Y-63971428D01*
X146308485Y-63971428D02*
X146270390Y-63933333D01*
X146270390Y-63933333D02*
X146232295Y-63857142D01*
X146232295Y-63857142D02*
X146232295Y-63704761D01*
X146232295Y-63704761D02*
X146270390Y-63628571D01*
X146270390Y-63628571D02*
X146308485Y-63590476D01*
X146308485Y-63590476D02*
X146384676Y-63552380D01*
X146384676Y-63552380D02*
X146575152Y-63552380D01*
X146575152Y-63552380D02*
X146651342Y-63590476D01*
X146651342Y-63590476D02*
X146689438Y-63628571D01*
X146689438Y-63628571D02*
X146727533Y-63704761D01*
X146727533Y-63704761D02*
X146727533Y-63857142D01*
X146727533Y-63857142D02*
X146689438Y-63933333D01*
X146689438Y-63933333D02*
X146651342Y-63971428D01*
X146651342Y-63971428D02*
X146575152Y-64009523D01*
X172021441Y-67448523D02*
X172059537Y-67486619D01*
X172059537Y-67486619D02*
X172173822Y-67524714D01*
X172173822Y-67524714D02*
X172250013Y-67524714D01*
X172250013Y-67524714D02*
X172364299Y-67486619D01*
X172364299Y-67486619D02*
X172440489Y-67410428D01*
X172440489Y-67410428D02*
X172478584Y-67334238D01*
X172478584Y-67334238D02*
X172516680Y-67181857D01*
X172516680Y-67181857D02*
X172516680Y-67067571D01*
X172516680Y-67067571D02*
X172478584Y-66915190D01*
X172478584Y-66915190D02*
X172440489Y-66838999D01*
X172440489Y-66838999D02*
X172364299Y-66762809D01*
X172364299Y-66762809D02*
X172250013Y-66724714D01*
X172250013Y-66724714D02*
X172173822Y-66724714D01*
X172173822Y-66724714D02*
X172059537Y-66762809D01*
X172059537Y-66762809D02*
X172021441Y-66800904D01*
X171754775Y-66724714D02*
X171259537Y-66724714D01*
X171259537Y-66724714D02*
X171526203Y-67029476D01*
X171526203Y-67029476D02*
X171411918Y-67029476D01*
X171411918Y-67029476D02*
X171335727Y-67067571D01*
X171335727Y-67067571D02*
X171297632Y-67105666D01*
X171297632Y-67105666D02*
X171259537Y-67181857D01*
X171259537Y-67181857D02*
X171259537Y-67372333D01*
X171259537Y-67372333D02*
X171297632Y-67448523D01*
X171297632Y-67448523D02*
X171335727Y-67486619D01*
X171335727Y-67486619D02*
X171411918Y-67524714D01*
X171411918Y-67524714D02*
X171640489Y-67524714D01*
X171640489Y-67524714D02*
X171716680Y-67486619D01*
X171716680Y-67486619D02*
X171754775Y-67448523D01*
X170992870Y-66724714D02*
X170497632Y-66724714D01*
X170497632Y-66724714D02*
X170764298Y-67029476D01*
X170764298Y-67029476D02*
X170650013Y-67029476D01*
X170650013Y-67029476D02*
X170573822Y-67067571D01*
X170573822Y-67067571D02*
X170535727Y-67105666D01*
X170535727Y-67105666D02*
X170497632Y-67181857D01*
X170497632Y-67181857D02*
X170497632Y-67372333D01*
X170497632Y-67372333D02*
X170535727Y-67448523D01*
X170535727Y-67448523D02*
X170573822Y-67486619D01*
X170573822Y-67486619D02*
X170650013Y-67524714D01*
X170650013Y-67524714D02*
X170878584Y-67524714D01*
X170878584Y-67524714D02*
X170954775Y-67486619D01*
X170954775Y-67486619D02*
X170992870Y-67448523D01*
X179862295Y-77485714D02*
X179481342Y-77219047D01*
X179862295Y-77028571D02*
X179062295Y-77028571D01*
X179062295Y-77028571D02*
X179062295Y-77333333D01*
X179062295Y-77333333D02*
X179100390Y-77409523D01*
X179100390Y-77409523D02*
X179138485Y-77447618D01*
X179138485Y-77447618D02*
X179214676Y-77485714D01*
X179214676Y-77485714D02*
X179328961Y-77485714D01*
X179328961Y-77485714D02*
X179405152Y-77447618D01*
X179405152Y-77447618D02*
X179443247Y-77409523D01*
X179443247Y-77409523D02*
X179481342Y-77333333D01*
X179481342Y-77333333D02*
X179481342Y-77028571D01*
X179862295Y-78247618D02*
X179862295Y-77790475D01*
X179862295Y-78019047D02*
X179062295Y-78019047D01*
X179062295Y-78019047D02*
X179176580Y-77942856D01*
X179176580Y-77942856D02*
X179252771Y-77866666D01*
X179252771Y-77866666D02*
X179290866Y-77790475D01*
X179062295Y-78971428D02*
X179062295Y-78590476D01*
X179062295Y-78590476D02*
X179443247Y-78552380D01*
X179443247Y-78552380D02*
X179405152Y-78590476D01*
X179405152Y-78590476D02*
X179367057Y-78666666D01*
X179367057Y-78666666D02*
X179367057Y-78857142D01*
X179367057Y-78857142D02*
X179405152Y-78933333D01*
X179405152Y-78933333D02*
X179443247Y-78971428D01*
X179443247Y-78971428D02*
X179519438Y-79009523D01*
X179519438Y-79009523D02*
X179709914Y-79009523D01*
X179709914Y-79009523D02*
X179786104Y-78971428D01*
X179786104Y-78971428D02*
X179824200Y-78933333D01*
X179824200Y-78933333D02*
X179862295Y-78857142D01*
X179862295Y-78857142D02*
X179862295Y-78666666D01*
X179862295Y-78666666D02*
X179824200Y-78590476D01*
X179824200Y-78590476D02*
X179786104Y-78552380D01*
X177609523Y-73062295D02*
X177609523Y-73709914D01*
X177609523Y-73709914D02*
X177571428Y-73786104D01*
X177571428Y-73786104D02*
X177533333Y-73824200D01*
X177533333Y-73824200D02*
X177457142Y-73862295D01*
X177457142Y-73862295D02*
X177304761Y-73862295D01*
X177304761Y-73862295D02*
X177228571Y-73824200D01*
X177228571Y-73824200D02*
X177190476Y-73786104D01*
X177190476Y-73786104D02*
X177152380Y-73709914D01*
X177152380Y-73709914D02*
X177152380Y-73062295D01*
X176390476Y-73062295D02*
X176771428Y-73062295D01*
X176771428Y-73062295D02*
X176809524Y-73443247D01*
X176809524Y-73443247D02*
X176771428Y-73405152D01*
X176771428Y-73405152D02*
X176695238Y-73367057D01*
X176695238Y-73367057D02*
X176504762Y-73367057D01*
X176504762Y-73367057D02*
X176428571Y-73405152D01*
X176428571Y-73405152D02*
X176390476Y-73443247D01*
X176390476Y-73443247D02*
X176352381Y-73519438D01*
X176352381Y-73519438D02*
X176352381Y-73709914D01*
X176352381Y-73709914D02*
X176390476Y-73786104D01*
X176390476Y-73786104D02*
X176428571Y-73824200D01*
X176428571Y-73824200D02*
X176504762Y-73862295D01*
X176504762Y-73862295D02*
X176695238Y-73862295D01*
X176695238Y-73862295D02*
X176771428Y-73824200D01*
X176771428Y-73824200D02*
X176809524Y-73786104D01*
X143862295Y-74366667D02*
X143481342Y-74100000D01*
X143862295Y-73909524D02*
X143062295Y-73909524D01*
X143062295Y-73909524D02*
X143062295Y-74214286D01*
X143062295Y-74214286D02*
X143100390Y-74290476D01*
X143100390Y-74290476D02*
X143138485Y-74328571D01*
X143138485Y-74328571D02*
X143214676Y-74366667D01*
X143214676Y-74366667D02*
X143328961Y-74366667D01*
X143328961Y-74366667D02*
X143405152Y-74328571D01*
X143405152Y-74328571D02*
X143443247Y-74290476D01*
X143443247Y-74290476D02*
X143481342Y-74214286D01*
X143481342Y-74214286D02*
X143481342Y-73909524D01*
X143062295Y-74633333D02*
X143062295Y-75166667D01*
X143062295Y-75166667D02*
X143862295Y-74823809D01*
X164054409Y-74062967D02*
X164092505Y-74101063D01*
X164092505Y-74101063D02*
X164206790Y-74139158D01*
X164206790Y-74139158D02*
X164282981Y-74139158D01*
X164282981Y-74139158D02*
X164397267Y-74101063D01*
X164397267Y-74101063D02*
X164473457Y-74024872D01*
X164473457Y-74024872D02*
X164511552Y-73948682D01*
X164511552Y-73948682D02*
X164549648Y-73796301D01*
X164549648Y-73796301D02*
X164549648Y-73682015D01*
X164549648Y-73682015D02*
X164511552Y-73529634D01*
X164511552Y-73529634D02*
X164473457Y-73453443D01*
X164473457Y-73453443D02*
X164397267Y-73377253D01*
X164397267Y-73377253D02*
X164282981Y-73339158D01*
X164282981Y-73339158D02*
X164206790Y-73339158D01*
X164206790Y-73339158D02*
X164092505Y-73377253D01*
X164092505Y-73377253D02*
X164054409Y-73415348D01*
X163292505Y-74139158D02*
X163749648Y-74139158D01*
X163521076Y-74139158D02*
X163521076Y-73339158D01*
X163521076Y-73339158D02*
X163597267Y-73453443D01*
X163597267Y-73453443D02*
X163673457Y-73529634D01*
X163673457Y-73529634D02*
X163749648Y-73567729D01*
X163025838Y-73339158D02*
X162492504Y-73339158D01*
X162492504Y-73339158D02*
X162835362Y-74139158D01*
X167514285Y-74362295D02*
X167780952Y-73981342D01*
X167971428Y-74362295D02*
X167971428Y-73562295D01*
X167971428Y-73562295D02*
X167666666Y-73562295D01*
X167666666Y-73562295D02*
X167590476Y-73600390D01*
X167590476Y-73600390D02*
X167552381Y-73638485D01*
X167552381Y-73638485D02*
X167514285Y-73714676D01*
X167514285Y-73714676D02*
X167514285Y-73828961D01*
X167514285Y-73828961D02*
X167552381Y-73905152D01*
X167552381Y-73905152D02*
X167590476Y-73943247D01*
X167590476Y-73943247D02*
X167666666Y-73981342D01*
X167666666Y-73981342D02*
X167971428Y-73981342D01*
X167209524Y-73638485D02*
X167171428Y-73600390D01*
X167171428Y-73600390D02*
X167095238Y-73562295D01*
X167095238Y-73562295D02*
X166904762Y-73562295D01*
X166904762Y-73562295D02*
X166828571Y-73600390D01*
X166828571Y-73600390D02*
X166790476Y-73638485D01*
X166790476Y-73638485D02*
X166752381Y-73714676D01*
X166752381Y-73714676D02*
X166752381Y-73790866D01*
X166752381Y-73790866D02*
X166790476Y-73905152D01*
X166790476Y-73905152D02*
X167247619Y-74362295D01*
X167247619Y-74362295D02*
X166752381Y-74362295D01*
X166066666Y-73562295D02*
X166219047Y-73562295D01*
X166219047Y-73562295D02*
X166295238Y-73600390D01*
X166295238Y-73600390D02*
X166333333Y-73638485D01*
X166333333Y-73638485D02*
X166409523Y-73752771D01*
X166409523Y-73752771D02*
X166447619Y-73905152D01*
X166447619Y-73905152D02*
X166447619Y-74209914D01*
X166447619Y-74209914D02*
X166409523Y-74286104D01*
X166409523Y-74286104D02*
X166371428Y-74324200D01*
X166371428Y-74324200D02*
X166295238Y-74362295D01*
X166295238Y-74362295D02*
X166142857Y-74362295D01*
X166142857Y-74362295D02*
X166066666Y-74324200D01*
X166066666Y-74324200D02*
X166028571Y-74286104D01*
X166028571Y-74286104D02*
X165990476Y-74209914D01*
X165990476Y-74209914D02*
X165990476Y-74019438D01*
X165990476Y-74019438D02*
X166028571Y-73943247D01*
X166028571Y-73943247D02*
X166066666Y-73905152D01*
X166066666Y-73905152D02*
X166142857Y-73867057D01*
X166142857Y-73867057D02*
X166295238Y-73867057D01*
X166295238Y-73867057D02*
X166371428Y-73905152D01*
X166371428Y-73905152D02*
X166409523Y-73943247D01*
X166409523Y-73943247D02*
X166447619Y-74019438D01*
X147800882Y-80601549D02*
X147838978Y-80563453D01*
X147838978Y-80563453D02*
X147877073Y-80449168D01*
X147877073Y-80449168D02*
X147877073Y-80372977D01*
X147877073Y-80372977D02*
X147838978Y-80258691D01*
X147838978Y-80258691D02*
X147762787Y-80182501D01*
X147762787Y-80182501D02*
X147686597Y-80144406D01*
X147686597Y-80144406D02*
X147534216Y-80106310D01*
X147534216Y-80106310D02*
X147419930Y-80106310D01*
X147419930Y-80106310D02*
X147267549Y-80144406D01*
X147267549Y-80144406D02*
X147191358Y-80182501D01*
X147191358Y-80182501D02*
X147115168Y-80258691D01*
X147115168Y-80258691D02*
X147077073Y-80372977D01*
X147077073Y-80372977D02*
X147077073Y-80449168D01*
X147077073Y-80449168D02*
X147115168Y-80563453D01*
X147115168Y-80563453D02*
X147153263Y-80601549D01*
X147877073Y-81363453D02*
X147877073Y-80906310D01*
X147877073Y-81134882D02*
X147077073Y-81134882D01*
X147077073Y-81134882D02*
X147191358Y-81058691D01*
X147191358Y-81058691D02*
X147267549Y-80982501D01*
X147267549Y-80982501D02*
X147305644Y-80906310D01*
X147877073Y-81744406D02*
X147877073Y-81896787D01*
X147877073Y-81896787D02*
X147838978Y-81972977D01*
X147838978Y-81972977D02*
X147800882Y-82011073D01*
X147800882Y-82011073D02*
X147686597Y-82087263D01*
X147686597Y-82087263D02*
X147534216Y-82125358D01*
X147534216Y-82125358D02*
X147229454Y-82125358D01*
X147229454Y-82125358D02*
X147153263Y-82087263D01*
X147153263Y-82087263D02*
X147115168Y-82049168D01*
X147115168Y-82049168D02*
X147077073Y-81972977D01*
X147077073Y-81972977D02*
X147077073Y-81820596D01*
X147077073Y-81820596D02*
X147115168Y-81744406D01*
X147115168Y-81744406D02*
X147153263Y-81706311D01*
X147153263Y-81706311D02*
X147229454Y-81668215D01*
X147229454Y-81668215D02*
X147419930Y-81668215D01*
X147419930Y-81668215D02*
X147496120Y-81706311D01*
X147496120Y-81706311D02*
X147534216Y-81744406D01*
X147534216Y-81744406D02*
X147572311Y-81820596D01*
X147572311Y-81820596D02*
X147572311Y-81972977D01*
X147572311Y-81972977D02*
X147534216Y-82049168D01*
X147534216Y-82049168D02*
X147496120Y-82087263D01*
X147496120Y-82087263D02*
X147419930Y-82125358D01*
X153023344Y-82404336D02*
X152700096Y-82081088D01*
X152296035Y-82808397D02*
X152861720Y-82242712D01*
X151945848Y-82458211D02*
X152511534Y-81892526D01*
X152511534Y-81892526D02*
X152296034Y-81677026D01*
X152296034Y-81677026D02*
X152215222Y-81650089D01*
X152215222Y-81650089D02*
X152161347Y-81650089D01*
X152161347Y-81650089D02*
X152080535Y-81677026D01*
X152080535Y-81677026D02*
X151999723Y-81757839D01*
X151999723Y-81757839D02*
X151972786Y-81838651D01*
X151972786Y-81838651D02*
X151972786Y-81892526D01*
X151972786Y-81892526D02*
X151999723Y-81973338D01*
X151999723Y-81973338D02*
X152215222Y-82188837D01*
X151514850Y-81272965D02*
X151137726Y-81650089D01*
X151865036Y-81192153D02*
X151595662Y-81730901D01*
X151595662Y-81730901D02*
X151245476Y-81380715D01*
X158101523Y-70593695D02*
X158101523Y-71241314D01*
X158101523Y-71241314D02*
X158063428Y-71317504D01*
X158063428Y-71317504D02*
X158025333Y-71355600D01*
X158025333Y-71355600D02*
X157949142Y-71393695D01*
X157949142Y-71393695D02*
X157796761Y-71393695D01*
X157796761Y-71393695D02*
X157720571Y-71355600D01*
X157720571Y-71355600D02*
X157682476Y-71317504D01*
X157682476Y-71317504D02*
X157644380Y-71241314D01*
X157644380Y-71241314D02*
X157644380Y-70593695D01*
X157301524Y-70669885D02*
X157263428Y-70631790D01*
X157263428Y-70631790D02*
X157187238Y-70593695D01*
X157187238Y-70593695D02*
X156996762Y-70593695D01*
X156996762Y-70593695D02*
X156920571Y-70631790D01*
X156920571Y-70631790D02*
X156882476Y-70669885D01*
X156882476Y-70669885D02*
X156844381Y-70746076D01*
X156844381Y-70746076D02*
X156844381Y-70822266D01*
X156844381Y-70822266D02*
X156882476Y-70936552D01*
X156882476Y-70936552D02*
X157339619Y-71393695D01*
X157339619Y-71393695D02*
X156844381Y-71393695D01*
X156946104Y-64866667D02*
X156984200Y-64828571D01*
X156984200Y-64828571D02*
X157022295Y-64714286D01*
X157022295Y-64714286D02*
X157022295Y-64638095D01*
X157022295Y-64638095D02*
X156984200Y-64523809D01*
X156984200Y-64523809D02*
X156908009Y-64447619D01*
X156908009Y-64447619D02*
X156831819Y-64409524D01*
X156831819Y-64409524D02*
X156679438Y-64371428D01*
X156679438Y-64371428D02*
X156565152Y-64371428D01*
X156565152Y-64371428D02*
X156412771Y-64409524D01*
X156412771Y-64409524D02*
X156336580Y-64447619D01*
X156336580Y-64447619D02*
X156260390Y-64523809D01*
X156260390Y-64523809D02*
X156222295Y-64638095D01*
X156222295Y-64638095D02*
X156222295Y-64714286D01*
X156222295Y-64714286D02*
X156260390Y-64828571D01*
X156260390Y-64828571D02*
X156298485Y-64866667D01*
X156222295Y-65552381D02*
X156222295Y-65400000D01*
X156222295Y-65400000D02*
X156260390Y-65323809D01*
X156260390Y-65323809D02*
X156298485Y-65285714D01*
X156298485Y-65285714D02*
X156412771Y-65209524D01*
X156412771Y-65209524D02*
X156565152Y-65171428D01*
X156565152Y-65171428D02*
X156869914Y-65171428D01*
X156869914Y-65171428D02*
X156946104Y-65209524D01*
X156946104Y-65209524D02*
X156984200Y-65247619D01*
X156984200Y-65247619D02*
X157022295Y-65323809D01*
X157022295Y-65323809D02*
X157022295Y-65476190D01*
X157022295Y-65476190D02*
X156984200Y-65552381D01*
X156984200Y-65552381D02*
X156946104Y-65590476D01*
X156946104Y-65590476D02*
X156869914Y-65628571D01*
X156869914Y-65628571D02*
X156679438Y-65628571D01*
X156679438Y-65628571D02*
X156603247Y-65590476D01*
X156603247Y-65590476D02*
X156565152Y-65552381D01*
X156565152Y-65552381D02*
X156527057Y-65476190D01*
X156527057Y-65476190D02*
X156527057Y-65323809D01*
X156527057Y-65323809D02*
X156565152Y-65247619D01*
X156565152Y-65247619D02*
X156603247Y-65209524D01*
X156603247Y-65209524D02*
X156679438Y-65171428D01*
X172014285Y-72446104D02*
X172052381Y-72484200D01*
X172052381Y-72484200D02*
X172166666Y-72522295D01*
X172166666Y-72522295D02*
X172242857Y-72522295D01*
X172242857Y-72522295D02*
X172357143Y-72484200D01*
X172357143Y-72484200D02*
X172433333Y-72408009D01*
X172433333Y-72408009D02*
X172471428Y-72331819D01*
X172471428Y-72331819D02*
X172509524Y-72179438D01*
X172509524Y-72179438D02*
X172509524Y-72065152D01*
X172509524Y-72065152D02*
X172471428Y-71912771D01*
X172471428Y-71912771D02*
X172433333Y-71836580D01*
X172433333Y-71836580D02*
X172357143Y-71760390D01*
X172357143Y-71760390D02*
X172242857Y-71722295D01*
X172242857Y-71722295D02*
X172166666Y-71722295D01*
X172166666Y-71722295D02*
X172052381Y-71760390D01*
X172052381Y-71760390D02*
X172014285Y-71798485D01*
X171709524Y-71798485D02*
X171671428Y-71760390D01*
X171671428Y-71760390D02*
X171595238Y-71722295D01*
X171595238Y-71722295D02*
X171404762Y-71722295D01*
X171404762Y-71722295D02*
X171328571Y-71760390D01*
X171328571Y-71760390D02*
X171290476Y-71798485D01*
X171290476Y-71798485D02*
X171252381Y-71874676D01*
X171252381Y-71874676D02*
X171252381Y-71950866D01*
X171252381Y-71950866D02*
X171290476Y-72065152D01*
X171290476Y-72065152D02*
X171747619Y-72522295D01*
X171747619Y-72522295D02*
X171252381Y-72522295D01*
X170566666Y-71988961D02*
X170566666Y-72522295D01*
X170757142Y-71684200D02*
X170947619Y-72255628D01*
X170947619Y-72255628D02*
X170452380Y-72255628D01*
X141514285Y-81286104D02*
X141552381Y-81324200D01*
X141552381Y-81324200D02*
X141666666Y-81362295D01*
X141666666Y-81362295D02*
X141742857Y-81362295D01*
X141742857Y-81362295D02*
X141857143Y-81324200D01*
X141857143Y-81324200D02*
X141933333Y-81248009D01*
X141933333Y-81248009D02*
X141971428Y-81171819D01*
X141971428Y-81171819D02*
X142009524Y-81019438D01*
X142009524Y-81019438D02*
X142009524Y-80905152D01*
X142009524Y-80905152D02*
X141971428Y-80752771D01*
X141971428Y-80752771D02*
X141933333Y-80676580D01*
X141933333Y-80676580D02*
X141857143Y-80600390D01*
X141857143Y-80600390D02*
X141742857Y-80562295D01*
X141742857Y-80562295D02*
X141666666Y-80562295D01*
X141666666Y-80562295D02*
X141552381Y-80600390D01*
X141552381Y-80600390D02*
X141514285Y-80638485D01*
X140752381Y-81362295D02*
X141209524Y-81362295D01*
X140980952Y-81362295D02*
X140980952Y-80562295D01*
X140980952Y-80562295D02*
X141057143Y-80676580D01*
X141057143Y-80676580D02*
X141133333Y-80752771D01*
X141133333Y-80752771D02*
X141209524Y-80790866D01*
X140295238Y-80905152D02*
X140371428Y-80867057D01*
X140371428Y-80867057D02*
X140409523Y-80828961D01*
X140409523Y-80828961D02*
X140447619Y-80752771D01*
X140447619Y-80752771D02*
X140447619Y-80714676D01*
X140447619Y-80714676D02*
X140409523Y-80638485D01*
X140409523Y-80638485D02*
X140371428Y-80600390D01*
X140371428Y-80600390D02*
X140295238Y-80562295D01*
X140295238Y-80562295D02*
X140142857Y-80562295D01*
X140142857Y-80562295D02*
X140066666Y-80600390D01*
X140066666Y-80600390D02*
X140028571Y-80638485D01*
X140028571Y-80638485D02*
X139990476Y-80714676D01*
X139990476Y-80714676D02*
X139990476Y-80752771D01*
X139990476Y-80752771D02*
X140028571Y-80828961D01*
X140028571Y-80828961D02*
X140066666Y-80867057D01*
X140066666Y-80867057D02*
X140142857Y-80905152D01*
X140142857Y-80905152D02*
X140295238Y-80905152D01*
X140295238Y-80905152D02*
X140371428Y-80943247D01*
X140371428Y-80943247D02*
X140409523Y-80981342D01*
X140409523Y-80981342D02*
X140447619Y-81057533D01*
X140447619Y-81057533D02*
X140447619Y-81209914D01*
X140447619Y-81209914D02*
X140409523Y-81286104D01*
X140409523Y-81286104D02*
X140371428Y-81324200D01*
X140371428Y-81324200D02*
X140295238Y-81362295D01*
X140295238Y-81362295D02*
X140142857Y-81362295D01*
X140142857Y-81362295D02*
X140066666Y-81324200D01*
X140066666Y-81324200D02*
X140028571Y-81286104D01*
X140028571Y-81286104D02*
X139990476Y-81209914D01*
X139990476Y-81209914D02*
X139990476Y-81057533D01*
X139990476Y-81057533D02*
X140028571Y-80981342D01*
X140028571Y-80981342D02*
X140066666Y-80943247D01*
X140066666Y-80943247D02*
X140142857Y-80905152D01*
X146133332Y-65862295D02*
X146399999Y-65481342D01*
X146590475Y-65862295D02*
X146590475Y-65062295D01*
X146590475Y-65062295D02*
X146285713Y-65062295D01*
X146285713Y-65062295D02*
X146209523Y-65100390D01*
X146209523Y-65100390D02*
X146171428Y-65138485D01*
X146171428Y-65138485D02*
X146133332Y-65214676D01*
X146133332Y-65214676D02*
X146133332Y-65328961D01*
X146133332Y-65328961D02*
X146171428Y-65405152D01*
X146171428Y-65405152D02*
X146209523Y-65443247D01*
X146209523Y-65443247D02*
X146285713Y-65481342D01*
X146285713Y-65481342D02*
X146590475Y-65481342D01*
X145866666Y-65062295D02*
X145371428Y-65062295D01*
X145371428Y-65062295D02*
X145638094Y-65367057D01*
X145638094Y-65367057D02*
X145523809Y-65367057D01*
X145523809Y-65367057D02*
X145447618Y-65405152D01*
X145447618Y-65405152D02*
X145409523Y-65443247D01*
X145409523Y-65443247D02*
X145371428Y-65519438D01*
X145371428Y-65519438D02*
X145371428Y-65709914D01*
X145371428Y-65709914D02*
X145409523Y-65786104D01*
X145409523Y-65786104D02*
X145447618Y-65824200D01*
X145447618Y-65824200D02*
X145523809Y-65862295D01*
X145523809Y-65862295D02*
X145752380Y-65862295D01*
X145752380Y-65862295D02*
X145828571Y-65824200D01*
X145828571Y-65824200D02*
X145866666Y-65786104D01*
X132133332Y-64786104D02*
X132171428Y-64824200D01*
X132171428Y-64824200D02*
X132285713Y-64862295D01*
X132285713Y-64862295D02*
X132361904Y-64862295D01*
X132361904Y-64862295D02*
X132476190Y-64824200D01*
X132476190Y-64824200D02*
X132552380Y-64748009D01*
X132552380Y-64748009D02*
X132590475Y-64671819D01*
X132590475Y-64671819D02*
X132628571Y-64519438D01*
X132628571Y-64519438D02*
X132628571Y-64405152D01*
X132628571Y-64405152D02*
X132590475Y-64252771D01*
X132590475Y-64252771D02*
X132552380Y-64176580D01*
X132552380Y-64176580D02*
X132476190Y-64100390D01*
X132476190Y-64100390D02*
X132361904Y-64062295D01*
X132361904Y-64062295D02*
X132285713Y-64062295D01*
X132285713Y-64062295D02*
X132171428Y-64100390D01*
X132171428Y-64100390D02*
X132133332Y-64138485D01*
X131676190Y-64405152D02*
X131752380Y-64367057D01*
X131752380Y-64367057D02*
X131790475Y-64328961D01*
X131790475Y-64328961D02*
X131828571Y-64252771D01*
X131828571Y-64252771D02*
X131828571Y-64214676D01*
X131828571Y-64214676D02*
X131790475Y-64138485D01*
X131790475Y-64138485D02*
X131752380Y-64100390D01*
X131752380Y-64100390D02*
X131676190Y-64062295D01*
X131676190Y-64062295D02*
X131523809Y-64062295D01*
X131523809Y-64062295D02*
X131447618Y-64100390D01*
X131447618Y-64100390D02*
X131409523Y-64138485D01*
X131409523Y-64138485D02*
X131371428Y-64214676D01*
X131371428Y-64214676D02*
X131371428Y-64252771D01*
X131371428Y-64252771D02*
X131409523Y-64328961D01*
X131409523Y-64328961D02*
X131447618Y-64367057D01*
X131447618Y-64367057D02*
X131523809Y-64405152D01*
X131523809Y-64405152D02*
X131676190Y-64405152D01*
X131676190Y-64405152D02*
X131752380Y-64443247D01*
X131752380Y-64443247D02*
X131790475Y-64481342D01*
X131790475Y-64481342D02*
X131828571Y-64557533D01*
X131828571Y-64557533D02*
X131828571Y-64709914D01*
X131828571Y-64709914D02*
X131790475Y-64786104D01*
X131790475Y-64786104D02*
X131752380Y-64824200D01*
X131752380Y-64824200D02*
X131676190Y-64862295D01*
X131676190Y-64862295D02*
X131523809Y-64862295D01*
X131523809Y-64862295D02*
X131447618Y-64824200D01*
X131447618Y-64824200D02*
X131409523Y-64786104D01*
X131409523Y-64786104D02*
X131371428Y-64709914D01*
X131371428Y-64709914D02*
X131371428Y-64557533D01*
X131371428Y-64557533D02*
X131409523Y-64481342D01*
X131409523Y-64481342D02*
X131447618Y-64443247D01*
X131447618Y-64443247D02*
X131523809Y-64405152D01*
X159514285Y-64356104D02*
X159552381Y-64394200D01*
X159552381Y-64394200D02*
X159666666Y-64432295D01*
X159666666Y-64432295D02*
X159742857Y-64432295D01*
X159742857Y-64432295D02*
X159857143Y-64394200D01*
X159857143Y-64394200D02*
X159933333Y-64318009D01*
X159933333Y-64318009D02*
X159971428Y-64241819D01*
X159971428Y-64241819D02*
X160009524Y-64089438D01*
X160009524Y-64089438D02*
X160009524Y-63975152D01*
X160009524Y-63975152D02*
X159971428Y-63822771D01*
X159971428Y-63822771D02*
X159933333Y-63746580D01*
X159933333Y-63746580D02*
X159857143Y-63670390D01*
X159857143Y-63670390D02*
X159742857Y-63632295D01*
X159742857Y-63632295D02*
X159666666Y-63632295D01*
X159666666Y-63632295D02*
X159552381Y-63670390D01*
X159552381Y-63670390D02*
X159514285Y-63708485D01*
X159209524Y-63708485D02*
X159171428Y-63670390D01*
X159171428Y-63670390D02*
X159095238Y-63632295D01*
X159095238Y-63632295D02*
X158904762Y-63632295D01*
X158904762Y-63632295D02*
X158828571Y-63670390D01*
X158828571Y-63670390D02*
X158790476Y-63708485D01*
X158790476Y-63708485D02*
X158752381Y-63784676D01*
X158752381Y-63784676D02*
X158752381Y-63860866D01*
X158752381Y-63860866D02*
X158790476Y-63975152D01*
X158790476Y-63975152D02*
X159247619Y-64432295D01*
X159247619Y-64432295D02*
X158752381Y-64432295D01*
X158447619Y-63708485D02*
X158409523Y-63670390D01*
X158409523Y-63670390D02*
X158333333Y-63632295D01*
X158333333Y-63632295D02*
X158142857Y-63632295D01*
X158142857Y-63632295D02*
X158066666Y-63670390D01*
X158066666Y-63670390D02*
X158028571Y-63708485D01*
X158028571Y-63708485D02*
X157990476Y-63784676D01*
X157990476Y-63784676D02*
X157990476Y-63860866D01*
X157990476Y-63860866D02*
X158028571Y-63975152D01*
X158028571Y-63975152D02*
X158485714Y-64432295D01*
X158485714Y-64432295D02*
X157990476Y-64432295D01*
X164609523Y-63562295D02*
X164609523Y-64209914D01*
X164609523Y-64209914D02*
X164571428Y-64286104D01*
X164571428Y-64286104D02*
X164533333Y-64324200D01*
X164533333Y-64324200D02*
X164457142Y-64362295D01*
X164457142Y-64362295D02*
X164304761Y-64362295D01*
X164304761Y-64362295D02*
X164228571Y-64324200D01*
X164228571Y-64324200D02*
X164190476Y-64286104D01*
X164190476Y-64286104D02*
X164152380Y-64209914D01*
X164152380Y-64209914D02*
X164152380Y-63562295D01*
X163428571Y-63562295D02*
X163580952Y-63562295D01*
X163580952Y-63562295D02*
X163657143Y-63600390D01*
X163657143Y-63600390D02*
X163695238Y-63638485D01*
X163695238Y-63638485D02*
X163771428Y-63752771D01*
X163771428Y-63752771D02*
X163809524Y-63905152D01*
X163809524Y-63905152D02*
X163809524Y-64209914D01*
X163809524Y-64209914D02*
X163771428Y-64286104D01*
X163771428Y-64286104D02*
X163733333Y-64324200D01*
X163733333Y-64324200D02*
X163657143Y-64362295D01*
X163657143Y-64362295D02*
X163504762Y-64362295D01*
X163504762Y-64362295D02*
X163428571Y-64324200D01*
X163428571Y-64324200D02*
X163390476Y-64286104D01*
X163390476Y-64286104D02*
X163352381Y-64209914D01*
X163352381Y-64209914D02*
X163352381Y-64019438D01*
X163352381Y-64019438D02*
X163390476Y-63943247D01*
X163390476Y-63943247D02*
X163428571Y-63905152D01*
X163428571Y-63905152D02*
X163504762Y-63867057D01*
X163504762Y-63867057D02*
X163657143Y-63867057D01*
X163657143Y-63867057D02*
X163733333Y-63905152D01*
X163733333Y-63905152D02*
X163771428Y-63943247D01*
X163771428Y-63943247D02*
X163809524Y-64019438D01*
X169500000Y-64936615D02*
X169500000Y-65127091D01*
X169690476Y-65050900D02*
X169500000Y-65127091D01*
X169500000Y-65127091D02*
X169309523Y-65050900D01*
X169614285Y-65279472D02*
X169500000Y-65127091D01*
X169500000Y-65127091D02*
X169385714Y-65279472D01*
X171980073Y-65056395D02*
X172246740Y-64675442D01*
X172437216Y-65056395D02*
X172437216Y-64256395D01*
X172437216Y-64256395D02*
X172132454Y-64256395D01*
X172132454Y-64256395D02*
X172056264Y-64294490D01*
X172056264Y-64294490D02*
X172018169Y-64332585D01*
X172018169Y-64332585D02*
X171980073Y-64408776D01*
X171980073Y-64408776D02*
X171980073Y-64523061D01*
X171980073Y-64523061D02*
X172018169Y-64599252D01*
X172018169Y-64599252D02*
X172056264Y-64637347D01*
X172056264Y-64637347D02*
X172132454Y-64675442D01*
X172132454Y-64675442D02*
X172437216Y-64675442D01*
X171675312Y-64332585D02*
X171637216Y-64294490D01*
X171637216Y-64294490D02*
X171561026Y-64256395D01*
X171561026Y-64256395D02*
X171370550Y-64256395D01*
X171370550Y-64256395D02*
X171294359Y-64294490D01*
X171294359Y-64294490D02*
X171256264Y-64332585D01*
X171256264Y-64332585D02*
X171218169Y-64408776D01*
X171218169Y-64408776D02*
X171218169Y-64484966D01*
X171218169Y-64484966D02*
X171256264Y-64599252D01*
X171256264Y-64599252D02*
X171713407Y-65056395D01*
X171713407Y-65056395D02*
X171218169Y-65056395D01*
X170951502Y-64256395D02*
X170418168Y-64256395D01*
X170418168Y-64256395D02*
X170761026Y-65056395D01*
X174786104Y-83053214D02*
X174824200Y-83015118D01*
X174824200Y-83015118D02*
X174862295Y-82900833D01*
X174862295Y-82900833D02*
X174862295Y-82824642D01*
X174862295Y-82824642D02*
X174824200Y-82710356D01*
X174824200Y-82710356D02*
X174748009Y-82634166D01*
X174748009Y-82634166D02*
X174671819Y-82596071D01*
X174671819Y-82596071D02*
X174519438Y-82557975D01*
X174519438Y-82557975D02*
X174405152Y-82557975D01*
X174405152Y-82557975D02*
X174252771Y-82596071D01*
X174252771Y-82596071D02*
X174176580Y-82634166D01*
X174176580Y-82634166D02*
X174100390Y-82710356D01*
X174100390Y-82710356D02*
X174062295Y-82824642D01*
X174062295Y-82824642D02*
X174062295Y-82900833D01*
X174062295Y-82900833D02*
X174100390Y-83015118D01*
X174100390Y-83015118D02*
X174138485Y-83053214D01*
X174862295Y-83815118D02*
X174862295Y-83357975D01*
X174862295Y-83586547D02*
X174062295Y-83586547D01*
X174062295Y-83586547D02*
X174176580Y-83510356D01*
X174176580Y-83510356D02*
X174252771Y-83434166D01*
X174252771Y-83434166D02*
X174290866Y-83357975D01*
X174062295Y-84310357D02*
X174062295Y-84386547D01*
X174062295Y-84386547D02*
X174100390Y-84462738D01*
X174100390Y-84462738D02*
X174138485Y-84500833D01*
X174138485Y-84500833D02*
X174214676Y-84538928D01*
X174214676Y-84538928D02*
X174367057Y-84577023D01*
X174367057Y-84577023D02*
X174557533Y-84577023D01*
X174557533Y-84577023D02*
X174709914Y-84538928D01*
X174709914Y-84538928D02*
X174786104Y-84500833D01*
X174786104Y-84500833D02*
X174824200Y-84462738D01*
X174824200Y-84462738D02*
X174862295Y-84386547D01*
X174862295Y-84386547D02*
X174862295Y-84310357D01*
X174862295Y-84310357D02*
X174824200Y-84234166D01*
X174824200Y-84234166D02*
X174786104Y-84196071D01*
X174786104Y-84196071D02*
X174709914Y-84157976D01*
X174709914Y-84157976D02*
X174557533Y-84119880D01*
X174557533Y-84119880D02*
X174367057Y-84119880D01*
X174367057Y-84119880D02*
X174214676Y-84157976D01*
X174214676Y-84157976D02*
X174138485Y-84196071D01*
X174138485Y-84196071D02*
X174100390Y-84234166D01*
X174100390Y-84234166D02*
X174062295Y-84310357D01*
X148590475Y-85862295D02*
X148590475Y-85062295D01*
X148590475Y-85062295D02*
X148399999Y-85062295D01*
X148399999Y-85062295D02*
X148285713Y-85100390D01*
X148285713Y-85100390D02*
X148209523Y-85176580D01*
X148209523Y-85176580D02*
X148171428Y-85252771D01*
X148171428Y-85252771D02*
X148133332Y-85405152D01*
X148133332Y-85405152D02*
X148133332Y-85519438D01*
X148133332Y-85519438D02*
X148171428Y-85671819D01*
X148171428Y-85671819D02*
X148209523Y-85748009D01*
X148209523Y-85748009D02*
X148285713Y-85824200D01*
X148285713Y-85824200D02*
X148399999Y-85862295D01*
X148399999Y-85862295D02*
X148590475Y-85862295D01*
X147371428Y-85862295D02*
X147828571Y-85862295D01*
X147599999Y-85862295D02*
X147599999Y-85062295D01*
X147599999Y-85062295D02*
X147676190Y-85176580D01*
X147676190Y-85176580D02*
X147752380Y-85252771D01*
X147752380Y-85252771D02*
X147828571Y-85290866D01*
X172014285Y-69946104D02*
X172052381Y-69984200D01*
X172052381Y-69984200D02*
X172166666Y-70022295D01*
X172166666Y-70022295D02*
X172242857Y-70022295D01*
X172242857Y-70022295D02*
X172357143Y-69984200D01*
X172357143Y-69984200D02*
X172433333Y-69908009D01*
X172433333Y-69908009D02*
X172471428Y-69831819D01*
X172471428Y-69831819D02*
X172509524Y-69679438D01*
X172509524Y-69679438D02*
X172509524Y-69565152D01*
X172509524Y-69565152D02*
X172471428Y-69412771D01*
X172471428Y-69412771D02*
X172433333Y-69336580D01*
X172433333Y-69336580D02*
X172357143Y-69260390D01*
X172357143Y-69260390D02*
X172242857Y-69222295D01*
X172242857Y-69222295D02*
X172166666Y-69222295D01*
X172166666Y-69222295D02*
X172052381Y-69260390D01*
X172052381Y-69260390D02*
X172014285Y-69298485D01*
X171747619Y-69222295D02*
X171252381Y-69222295D01*
X171252381Y-69222295D02*
X171519047Y-69527057D01*
X171519047Y-69527057D02*
X171404762Y-69527057D01*
X171404762Y-69527057D02*
X171328571Y-69565152D01*
X171328571Y-69565152D02*
X171290476Y-69603247D01*
X171290476Y-69603247D02*
X171252381Y-69679438D01*
X171252381Y-69679438D02*
X171252381Y-69869914D01*
X171252381Y-69869914D02*
X171290476Y-69946104D01*
X171290476Y-69946104D02*
X171328571Y-69984200D01*
X171328571Y-69984200D02*
X171404762Y-70022295D01*
X171404762Y-70022295D02*
X171633333Y-70022295D01*
X171633333Y-70022295D02*
X171709524Y-69984200D01*
X171709524Y-69984200D02*
X171747619Y-69946104D01*
X170566666Y-69488961D02*
X170566666Y-70022295D01*
X170757142Y-69184200D02*
X170947619Y-69755628D01*
X170947619Y-69755628D02*
X170452380Y-69755628D01*
X132281553Y-62595608D02*
X132319649Y-62633704D01*
X132319649Y-62633704D02*
X132433934Y-62671799D01*
X132433934Y-62671799D02*
X132510125Y-62671799D01*
X132510125Y-62671799D02*
X132624411Y-62633704D01*
X132624411Y-62633704D02*
X132700601Y-62557513D01*
X132700601Y-62557513D02*
X132738696Y-62481323D01*
X132738696Y-62481323D02*
X132776792Y-62328942D01*
X132776792Y-62328942D02*
X132776792Y-62214656D01*
X132776792Y-62214656D02*
X132738696Y-62062275D01*
X132738696Y-62062275D02*
X132700601Y-61986084D01*
X132700601Y-61986084D02*
X132624411Y-61909894D01*
X132624411Y-61909894D02*
X132510125Y-61871799D01*
X132510125Y-61871799D02*
X132433934Y-61871799D01*
X132433934Y-61871799D02*
X132319649Y-61909894D01*
X132319649Y-61909894D02*
X132281553Y-61947989D01*
X131900601Y-62671799D02*
X131748220Y-62671799D01*
X131748220Y-62671799D02*
X131672030Y-62633704D01*
X131672030Y-62633704D02*
X131633934Y-62595608D01*
X131633934Y-62595608D02*
X131557744Y-62481323D01*
X131557744Y-62481323D02*
X131519649Y-62328942D01*
X131519649Y-62328942D02*
X131519649Y-62024180D01*
X131519649Y-62024180D02*
X131557744Y-61947989D01*
X131557744Y-61947989D02*
X131595839Y-61909894D01*
X131595839Y-61909894D02*
X131672030Y-61871799D01*
X131672030Y-61871799D02*
X131824411Y-61871799D01*
X131824411Y-61871799D02*
X131900601Y-61909894D01*
X131900601Y-61909894D02*
X131938696Y-61947989D01*
X131938696Y-61947989D02*
X131976792Y-62024180D01*
X131976792Y-62024180D02*
X131976792Y-62214656D01*
X131976792Y-62214656D02*
X131938696Y-62290846D01*
X131938696Y-62290846D02*
X131900601Y-62328942D01*
X131900601Y-62328942D02*
X131824411Y-62367037D01*
X131824411Y-62367037D02*
X131672030Y-62367037D01*
X131672030Y-62367037D02*
X131595839Y-62328942D01*
X131595839Y-62328942D02*
X131557744Y-62290846D01*
X131557744Y-62290846D02*
X131519649Y-62214656D01*
X141192295Y-74485714D02*
X140811342Y-74219047D01*
X141192295Y-74028571D02*
X140392295Y-74028571D01*
X140392295Y-74028571D02*
X140392295Y-74333333D01*
X140392295Y-74333333D02*
X140430390Y-74409523D01*
X140430390Y-74409523D02*
X140468485Y-74447618D01*
X140468485Y-74447618D02*
X140544676Y-74485714D01*
X140544676Y-74485714D02*
X140658961Y-74485714D01*
X140658961Y-74485714D02*
X140735152Y-74447618D01*
X140735152Y-74447618D02*
X140773247Y-74409523D01*
X140773247Y-74409523D02*
X140811342Y-74333333D01*
X140811342Y-74333333D02*
X140811342Y-74028571D01*
X140392295Y-74752380D02*
X140392295Y-75247618D01*
X140392295Y-75247618D02*
X140697057Y-74980952D01*
X140697057Y-74980952D02*
X140697057Y-75095237D01*
X140697057Y-75095237D02*
X140735152Y-75171428D01*
X140735152Y-75171428D02*
X140773247Y-75209523D01*
X140773247Y-75209523D02*
X140849438Y-75247618D01*
X140849438Y-75247618D02*
X141039914Y-75247618D01*
X141039914Y-75247618D02*
X141116104Y-75209523D01*
X141116104Y-75209523D02*
X141154200Y-75171428D01*
X141154200Y-75171428D02*
X141192295Y-75095237D01*
X141192295Y-75095237D02*
X141192295Y-74866666D01*
X141192295Y-74866666D02*
X141154200Y-74790475D01*
X141154200Y-74790475D02*
X141116104Y-74752380D01*
X140392295Y-75742857D02*
X140392295Y-75819047D01*
X140392295Y-75819047D02*
X140430390Y-75895238D01*
X140430390Y-75895238D02*
X140468485Y-75933333D01*
X140468485Y-75933333D02*
X140544676Y-75971428D01*
X140544676Y-75971428D02*
X140697057Y-76009523D01*
X140697057Y-76009523D02*
X140887533Y-76009523D01*
X140887533Y-76009523D02*
X141039914Y-75971428D01*
X141039914Y-75971428D02*
X141116104Y-75933333D01*
X141116104Y-75933333D02*
X141154200Y-75895238D01*
X141154200Y-75895238D02*
X141192295Y-75819047D01*
X141192295Y-75819047D02*
X141192295Y-75742857D01*
X141192295Y-75742857D02*
X141154200Y-75666666D01*
X141154200Y-75666666D02*
X141116104Y-75628571D01*
X141116104Y-75628571D02*
X141039914Y-75590476D01*
X141039914Y-75590476D02*
X140887533Y-75552380D01*
X140887533Y-75552380D02*
X140697057Y-75552380D01*
X140697057Y-75552380D02*
X140544676Y-75590476D01*
X140544676Y-75590476D02*
X140468485Y-75628571D01*
X140468485Y-75628571D02*
X140430390Y-75666666D01*
X140430390Y-75666666D02*
X140392295Y-75742857D01*
X164338084Y-84529305D02*
X164338084Y-84148353D01*
X164338084Y-84148353D02*
X163538084Y-84148353D01*
X164338084Y-85215019D02*
X164338084Y-84757876D01*
X164338084Y-84986448D02*
X163538084Y-84986448D01*
X163538084Y-84986448D02*
X163652369Y-84910257D01*
X163652369Y-84910257D02*
X163728560Y-84834067D01*
X163728560Y-84834067D02*
X163766655Y-84757876D01*
X166777693Y-82101549D02*
X166815789Y-82063453D01*
X166815789Y-82063453D02*
X166853884Y-81949168D01*
X166853884Y-81949168D02*
X166853884Y-81872977D01*
X166853884Y-81872977D02*
X166815789Y-81758691D01*
X166815789Y-81758691D02*
X166739598Y-81682501D01*
X166739598Y-81682501D02*
X166663408Y-81644406D01*
X166663408Y-81644406D02*
X166511027Y-81606310D01*
X166511027Y-81606310D02*
X166396741Y-81606310D01*
X166396741Y-81606310D02*
X166244360Y-81644406D01*
X166244360Y-81644406D02*
X166168169Y-81682501D01*
X166168169Y-81682501D02*
X166091979Y-81758691D01*
X166091979Y-81758691D02*
X166053884Y-81872977D01*
X166053884Y-81872977D02*
X166053884Y-81949168D01*
X166053884Y-81949168D02*
X166091979Y-82063453D01*
X166091979Y-82063453D02*
X166130074Y-82101549D01*
X166853884Y-82863453D02*
X166853884Y-82406310D01*
X166853884Y-82634882D02*
X166053884Y-82634882D01*
X166053884Y-82634882D02*
X166168169Y-82558691D01*
X166168169Y-82558691D02*
X166244360Y-82482501D01*
X166244360Y-82482501D02*
X166282455Y-82406310D01*
X166320550Y-83549168D02*
X166853884Y-83549168D01*
X166015789Y-83358692D02*
X166587217Y-83168215D01*
X166587217Y-83168215D02*
X166587217Y-83663454D01*
X181073061Y-57720290D02*
X180615918Y-57720290D01*
X180844490Y-58520290D02*
X180844490Y-57720290D01*
X180349251Y-58520290D02*
X180349251Y-57720290D01*
X180349251Y-57720290D02*
X180044489Y-57720290D01*
X180044489Y-57720290D02*
X179968299Y-57758385D01*
X179968299Y-57758385D02*
X179930204Y-57796480D01*
X179930204Y-57796480D02*
X179892108Y-57872671D01*
X179892108Y-57872671D02*
X179892108Y-57986956D01*
X179892108Y-57986956D02*
X179930204Y-58063147D01*
X179930204Y-58063147D02*
X179968299Y-58101242D01*
X179968299Y-58101242D02*
X180044489Y-58139337D01*
X180044489Y-58139337D02*
X180349251Y-58139337D01*
X179130204Y-58520290D02*
X179587347Y-58520290D01*
X179358775Y-58520290D02*
X179358775Y-57720290D01*
X179358775Y-57720290D02*
X179434966Y-57834575D01*
X179434966Y-57834575D02*
X179511156Y-57910766D01*
X179511156Y-57910766D02*
X179587347Y-57948861D01*
X140514285Y-66626104D02*
X140552381Y-66664200D01*
X140552381Y-66664200D02*
X140666666Y-66702295D01*
X140666666Y-66702295D02*
X140742857Y-66702295D01*
X140742857Y-66702295D02*
X140857143Y-66664200D01*
X140857143Y-66664200D02*
X140933333Y-66588009D01*
X140933333Y-66588009D02*
X140971428Y-66511819D01*
X140971428Y-66511819D02*
X141009524Y-66359438D01*
X141009524Y-66359438D02*
X141009524Y-66245152D01*
X141009524Y-66245152D02*
X140971428Y-66092771D01*
X140971428Y-66092771D02*
X140933333Y-66016580D01*
X140933333Y-66016580D02*
X140857143Y-65940390D01*
X140857143Y-65940390D02*
X140742857Y-65902295D01*
X140742857Y-65902295D02*
X140666666Y-65902295D01*
X140666666Y-65902295D02*
X140552381Y-65940390D01*
X140552381Y-65940390D02*
X140514285Y-65978485D01*
X140247619Y-65902295D02*
X139752381Y-65902295D01*
X139752381Y-65902295D02*
X140019047Y-66207057D01*
X140019047Y-66207057D02*
X139904762Y-66207057D01*
X139904762Y-66207057D02*
X139828571Y-66245152D01*
X139828571Y-66245152D02*
X139790476Y-66283247D01*
X139790476Y-66283247D02*
X139752381Y-66359438D01*
X139752381Y-66359438D02*
X139752381Y-66549914D01*
X139752381Y-66549914D02*
X139790476Y-66626104D01*
X139790476Y-66626104D02*
X139828571Y-66664200D01*
X139828571Y-66664200D02*
X139904762Y-66702295D01*
X139904762Y-66702295D02*
X140133333Y-66702295D01*
X140133333Y-66702295D02*
X140209524Y-66664200D01*
X140209524Y-66664200D02*
X140247619Y-66626104D01*
X138990476Y-66702295D02*
X139447619Y-66702295D01*
X139219047Y-66702295D02*
X139219047Y-65902295D01*
X139219047Y-65902295D02*
X139295238Y-66016580D01*
X139295238Y-66016580D02*
X139371428Y-66092771D01*
X139371428Y-66092771D02*
X139447619Y-66130866D01*
X176133332Y-81862295D02*
X176399999Y-81481342D01*
X176590475Y-81862295D02*
X176590475Y-81062295D01*
X176590475Y-81062295D02*
X176285713Y-81062295D01*
X176285713Y-81062295D02*
X176209523Y-81100390D01*
X176209523Y-81100390D02*
X176171428Y-81138485D01*
X176171428Y-81138485D02*
X176133332Y-81214676D01*
X176133332Y-81214676D02*
X176133332Y-81328961D01*
X176133332Y-81328961D02*
X176171428Y-81405152D01*
X176171428Y-81405152D02*
X176209523Y-81443247D01*
X176209523Y-81443247D02*
X176285713Y-81481342D01*
X176285713Y-81481342D02*
X176590475Y-81481342D01*
X175752380Y-81862295D02*
X175599999Y-81862295D01*
X175599999Y-81862295D02*
X175523809Y-81824200D01*
X175523809Y-81824200D02*
X175485713Y-81786104D01*
X175485713Y-81786104D02*
X175409523Y-81671819D01*
X175409523Y-81671819D02*
X175371428Y-81519438D01*
X175371428Y-81519438D02*
X175371428Y-81214676D01*
X175371428Y-81214676D02*
X175409523Y-81138485D01*
X175409523Y-81138485D02*
X175447618Y-81100390D01*
X175447618Y-81100390D02*
X175523809Y-81062295D01*
X175523809Y-81062295D02*
X175676190Y-81062295D01*
X175676190Y-81062295D02*
X175752380Y-81100390D01*
X175752380Y-81100390D02*
X175790475Y-81138485D01*
X175790475Y-81138485D02*
X175828571Y-81214676D01*
X175828571Y-81214676D02*
X175828571Y-81405152D01*
X175828571Y-81405152D02*
X175790475Y-81481342D01*
X175790475Y-81481342D02*
X175752380Y-81519438D01*
X175752380Y-81519438D02*
X175676190Y-81557533D01*
X175676190Y-81557533D02*
X175523809Y-81557533D01*
X175523809Y-81557533D02*
X175447618Y-81519438D01*
X175447618Y-81519438D02*
X175409523Y-81481342D01*
X175409523Y-81481342D02*
X175371428Y-81405152D01*
X144446104Y-62485714D02*
X144484200Y-62447618D01*
X144484200Y-62447618D02*
X144522295Y-62333333D01*
X144522295Y-62333333D02*
X144522295Y-62257142D01*
X144522295Y-62257142D02*
X144484200Y-62142856D01*
X144484200Y-62142856D02*
X144408009Y-62066666D01*
X144408009Y-62066666D02*
X144331819Y-62028571D01*
X144331819Y-62028571D02*
X144179438Y-61990475D01*
X144179438Y-61990475D02*
X144065152Y-61990475D01*
X144065152Y-61990475D02*
X143912771Y-62028571D01*
X143912771Y-62028571D02*
X143836580Y-62066666D01*
X143836580Y-62066666D02*
X143760390Y-62142856D01*
X143760390Y-62142856D02*
X143722295Y-62257142D01*
X143722295Y-62257142D02*
X143722295Y-62333333D01*
X143722295Y-62333333D02*
X143760390Y-62447618D01*
X143760390Y-62447618D02*
X143798485Y-62485714D01*
X143722295Y-62752380D02*
X143722295Y-63247618D01*
X143722295Y-63247618D02*
X144027057Y-62980952D01*
X144027057Y-62980952D02*
X144027057Y-63095237D01*
X144027057Y-63095237D02*
X144065152Y-63171428D01*
X144065152Y-63171428D02*
X144103247Y-63209523D01*
X144103247Y-63209523D02*
X144179438Y-63247618D01*
X144179438Y-63247618D02*
X144369914Y-63247618D01*
X144369914Y-63247618D02*
X144446104Y-63209523D01*
X144446104Y-63209523D02*
X144484200Y-63171428D01*
X144484200Y-63171428D02*
X144522295Y-63095237D01*
X144522295Y-63095237D02*
X144522295Y-62866666D01*
X144522295Y-62866666D02*
X144484200Y-62790475D01*
X144484200Y-62790475D02*
X144446104Y-62752380D01*
X143722295Y-63742857D02*
X143722295Y-63819047D01*
X143722295Y-63819047D02*
X143760390Y-63895238D01*
X143760390Y-63895238D02*
X143798485Y-63933333D01*
X143798485Y-63933333D02*
X143874676Y-63971428D01*
X143874676Y-63971428D02*
X144027057Y-64009523D01*
X144027057Y-64009523D02*
X144217533Y-64009523D01*
X144217533Y-64009523D02*
X144369914Y-63971428D01*
X144369914Y-63971428D02*
X144446104Y-63933333D01*
X144446104Y-63933333D02*
X144484200Y-63895238D01*
X144484200Y-63895238D02*
X144522295Y-63819047D01*
X144522295Y-63819047D02*
X144522295Y-63742857D01*
X144522295Y-63742857D02*
X144484200Y-63666666D01*
X144484200Y-63666666D02*
X144446104Y-63628571D01*
X144446104Y-63628571D02*
X144369914Y-63590476D01*
X144369914Y-63590476D02*
X144217533Y-63552380D01*
X144217533Y-63552380D02*
X144027057Y-63552380D01*
X144027057Y-63552380D02*
X143874676Y-63590476D01*
X143874676Y-63590476D02*
X143798485Y-63628571D01*
X143798485Y-63628571D02*
X143760390Y-63666666D01*
X143760390Y-63666666D02*
X143722295Y-63742857D01*
X146192295Y-74366667D02*
X145811342Y-74100000D01*
X146192295Y-73909524D02*
X145392295Y-73909524D01*
X145392295Y-73909524D02*
X145392295Y-74214286D01*
X145392295Y-74214286D02*
X145430390Y-74290476D01*
X145430390Y-74290476D02*
X145468485Y-74328571D01*
X145468485Y-74328571D02*
X145544676Y-74366667D01*
X145544676Y-74366667D02*
X145658961Y-74366667D01*
X145658961Y-74366667D02*
X145735152Y-74328571D01*
X145735152Y-74328571D02*
X145773247Y-74290476D01*
X145773247Y-74290476D02*
X145811342Y-74214286D01*
X145811342Y-74214286D02*
X145811342Y-73909524D01*
X145658961Y-75052381D02*
X146192295Y-75052381D01*
X145354200Y-74861905D02*
X145925628Y-74671428D01*
X145925628Y-74671428D02*
X145925628Y-75166667D01*
X167362295Y-77985714D02*
X166981342Y-77719047D01*
X167362295Y-77528571D02*
X166562295Y-77528571D01*
X166562295Y-77528571D02*
X166562295Y-77833333D01*
X166562295Y-77833333D02*
X166600390Y-77909523D01*
X166600390Y-77909523D02*
X166638485Y-77947618D01*
X166638485Y-77947618D02*
X166714676Y-77985714D01*
X166714676Y-77985714D02*
X166828961Y-77985714D01*
X166828961Y-77985714D02*
X166905152Y-77947618D01*
X166905152Y-77947618D02*
X166943247Y-77909523D01*
X166943247Y-77909523D02*
X166981342Y-77833333D01*
X166981342Y-77833333D02*
X166981342Y-77528571D01*
X167362295Y-78747618D02*
X167362295Y-78290475D01*
X167362295Y-78519047D02*
X166562295Y-78519047D01*
X166562295Y-78519047D02*
X166676580Y-78442856D01*
X166676580Y-78442856D02*
X166752771Y-78366666D01*
X166752771Y-78366666D02*
X166790866Y-78290475D01*
X167362295Y-79509523D02*
X167362295Y-79052380D01*
X167362295Y-79280952D02*
X166562295Y-79280952D01*
X166562295Y-79280952D02*
X166676580Y-79204761D01*
X166676580Y-79204761D02*
X166752771Y-79128571D01*
X166752771Y-79128571D02*
X166790866Y-79052380D01*
X176786104Y-82985714D02*
X176824200Y-82947618D01*
X176824200Y-82947618D02*
X176862295Y-82833333D01*
X176862295Y-82833333D02*
X176862295Y-82757142D01*
X176862295Y-82757142D02*
X176824200Y-82642856D01*
X176824200Y-82642856D02*
X176748009Y-82566666D01*
X176748009Y-82566666D02*
X176671819Y-82528571D01*
X176671819Y-82528571D02*
X176519438Y-82490475D01*
X176519438Y-82490475D02*
X176405152Y-82490475D01*
X176405152Y-82490475D02*
X176252771Y-82528571D01*
X176252771Y-82528571D02*
X176176580Y-82566666D01*
X176176580Y-82566666D02*
X176100390Y-82642856D01*
X176100390Y-82642856D02*
X176062295Y-82757142D01*
X176062295Y-82757142D02*
X176062295Y-82833333D01*
X176062295Y-82833333D02*
X176100390Y-82947618D01*
X176100390Y-82947618D02*
X176138485Y-82985714D01*
X176138485Y-83290475D02*
X176100390Y-83328571D01*
X176100390Y-83328571D02*
X176062295Y-83404761D01*
X176062295Y-83404761D02*
X176062295Y-83595237D01*
X176062295Y-83595237D02*
X176100390Y-83671428D01*
X176100390Y-83671428D02*
X176138485Y-83709523D01*
X176138485Y-83709523D02*
X176214676Y-83747618D01*
X176214676Y-83747618D02*
X176290866Y-83747618D01*
X176290866Y-83747618D02*
X176405152Y-83709523D01*
X176405152Y-83709523D02*
X176862295Y-83252380D01*
X176862295Y-83252380D02*
X176862295Y-83747618D01*
X176062295Y-84014285D02*
X176062295Y-84509523D01*
X176062295Y-84509523D02*
X176367057Y-84242857D01*
X176367057Y-84242857D02*
X176367057Y-84357142D01*
X176367057Y-84357142D02*
X176405152Y-84433333D01*
X176405152Y-84433333D02*
X176443247Y-84471428D01*
X176443247Y-84471428D02*
X176519438Y-84509523D01*
X176519438Y-84509523D02*
X176709914Y-84509523D01*
X176709914Y-84509523D02*
X176786104Y-84471428D01*
X176786104Y-84471428D02*
X176824200Y-84433333D01*
X176824200Y-84433333D02*
X176862295Y-84357142D01*
X176862295Y-84357142D02*
X176862295Y-84128571D01*
X176862295Y-84128571D02*
X176824200Y-84052380D01*
X176824200Y-84052380D02*
X176786104Y-84014285D01*
X171916785Y-79862295D02*
X172183452Y-79481342D01*
X172373928Y-79862295D02*
X172373928Y-79062295D01*
X172373928Y-79062295D02*
X172069166Y-79062295D01*
X172069166Y-79062295D02*
X171992976Y-79100390D01*
X171992976Y-79100390D02*
X171954881Y-79138485D01*
X171954881Y-79138485D02*
X171916785Y-79214676D01*
X171916785Y-79214676D02*
X171916785Y-79328961D01*
X171916785Y-79328961D02*
X171954881Y-79405152D01*
X171954881Y-79405152D02*
X171992976Y-79443247D01*
X171992976Y-79443247D02*
X172069166Y-79481342D01*
X172069166Y-79481342D02*
X172373928Y-79481342D01*
X171154881Y-79862295D02*
X171612024Y-79862295D01*
X171383452Y-79862295D02*
X171383452Y-79062295D01*
X171383452Y-79062295D02*
X171459643Y-79176580D01*
X171459643Y-79176580D02*
X171535833Y-79252771D01*
X171535833Y-79252771D02*
X171612024Y-79290866D01*
X170888214Y-79062295D02*
X170392976Y-79062295D01*
X170392976Y-79062295D02*
X170659642Y-79367057D01*
X170659642Y-79367057D02*
X170545357Y-79367057D01*
X170545357Y-79367057D02*
X170469166Y-79405152D01*
X170469166Y-79405152D02*
X170431071Y-79443247D01*
X170431071Y-79443247D02*
X170392976Y-79519438D01*
X170392976Y-79519438D02*
X170392976Y-79709914D01*
X170392976Y-79709914D02*
X170431071Y-79786104D01*
X170431071Y-79786104D02*
X170469166Y-79824200D01*
X170469166Y-79824200D02*
X170545357Y-79862295D01*
X170545357Y-79862295D02*
X170773928Y-79862295D01*
X170773928Y-79862295D02*
X170850119Y-79824200D01*
X170850119Y-79824200D02*
X170888214Y-79786104D01*
D12*
%TO.C,C32*%
X169010000Y-60146267D02*
X169010000Y-59853733D01*
X167990000Y-60146267D02*
X167990000Y-59853733D01*
%TO.C,C27*%
X168646267Y-62490000D02*
X168353733Y-62490000D01*
X168646267Y-63510000D02*
X168353733Y-63510000D01*
%TO.C,C16*%
X155146267Y-84010000D02*
X154853733Y-84010000D01*
X155146267Y-82990000D02*
X154853733Y-82990000D01*
%TO.C,C15*%
X155146267Y-79990000D02*
X154853733Y-79990000D01*
X155146267Y-81010000D02*
X154853733Y-81010000D01*
%TO.C,C11*%
X178735000Y-83761252D02*
X178735000Y-83238748D01*
X177265000Y-83761252D02*
X177265000Y-83238748D01*
%TO.C,D3*%
X166350000Y-80610000D02*
X164650000Y-80610000D01*
X166350000Y-80610000D02*
X166350000Y-77950000D01*
X164650000Y-80610000D02*
X164650000Y-77950000D01*
%TO.C,R10*%
X179832379Y-81380001D02*
X180167621Y-81380001D01*
X179832379Y-80619999D02*
X180167621Y-80619999D01*
%TO.C,SW1*%
X151800000Y-61050000D02*
X151800000Y-60950000D01*
X151800001Y-59450000D02*
X152850000Y-59450000D01*
X155150000Y-59450000D02*
X156199999Y-59450000D01*
X156199999Y-62550000D02*
X151800001Y-62550000D01*
X156200000Y-61050000D02*
X156200000Y-60950000D01*
%TO.C,R14*%
X171332379Y-75619999D02*
X171667621Y-75619999D01*
X171332379Y-76380001D02*
X171667621Y-76380001D01*
D13*
%TO.C,IC3*%
X138600000Y-62375000D02*
G75*
G02*
X138350000Y-62375000I-125000J0D01*
G01*
X138350000Y-62375000D02*
G75*
G02*
X138600000Y-62375000I125000J0D01*
G01*
D14*
%TO.C,IC2*%
X144450000Y-79570000D02*
X144450000Y-82530000D01*
X144450000Y-82530000D02*
X145050000Y-82530000D01*
X145050000Y-79570000D02*
X144450000Y-79570000D01*
X145050000Y-82530000D02*
X145050000Y-79570000D01*
X146600000Y-79550000D02*
X145400000Y-79550000D01*
D12*
%TO.C,C28*%
X176640000Y-67615835D02*
X176640000Y-67384165D01*
X177360000Y-67615835D02*
X177360000Y-67384165D01*
%TO.C,C29*%
X174384165Y-66640000D02*
X174615835Y-66640000D01*
X174384165Y-67360000D02*
X174615835Y-67360000D01*
%TO.C,R17*%
X140167621Y-83619999D02*
X139832379Y-83619999D01*
X140167621Y-84380001D02*
X139832379Y-84380001D01*
%TO.C,R28*%
X139119999Y-74832379D02*
X139119999Y-75167621D01*
X139880001Y-74832379D02*
X139880001Y-75167621D01*
%TO.C,C20*%
X139884165Y-81640000D02*
X140115835Y-81640000D01*
X139884165Y-82360000D02*
X140115835Y-82360000D01*
%TO.C,C26*%
X170640000Y-60115835D02*
X170640000Y-59884165D01*
X171360000Y-60115835D02*
X171360000Y-59884165D01*
%TO.C,C21*%
X136640000Y-80615835D02*
X136640000Y-80384165D01*
X137360000Y-80615835D02*
X137360000Y-80384165D01*
%TO.C,C12*%
X172640000Y-80615835D02*
X172640000Y-80384165D01*
X173360000Y-80615835D02*
X173360000Y-80384165D01*
%TO.C,C13*%
X169360000Y-76115835D02*
X169360000Y-75884165D01*
X168640000Y-76115835D02*
X168640000Y-75884165D01*
%TO.C,C25*%
X171353733Y-72990000D02*
X171646267Y-72990000D01*
X171353733Y-74010000D02*
X171646267Y-74010000D01*
%TO.C,TP5*%
X133449999Y-74500000D02*
G75*
G02*
X131550001Y-74500000I-949999J0D01*
G01*
X131550001Y-74500000D02*
G75*
G02*
X133449999Y-74500000I949999J0D01*
G01*
%TO.C,TP3*%
X183949999Y-77500000D02*
G75*
G02*
X182050001Y-77500000I-949999J0D01*
G01*
X182050001Y-77500000D02*
G75*
G02*
X183949999Y-77500000I949999J0D01*
G01*
%TO.C,U3*%
X131150000Y-71050000D02*
X131150000Y-66250000D01*
X131450000Y-65950000D02*
X133850000Y-65950000D01*
X133850000Y-65950000D02*
X133850000Y-71050000D01*
X133850000Y-71050000D02*
X131150000Y-71050000D01*
X131150000Y-65950000D02*
X130870000Y-65950000D01*
X131150000Y-65670000D01*
X131150000Y-65950000D01*
G36*
X131150000Y-65950000D02*
G01*
X130870000Y-65950000D01*
X131150000Y-65670000D01*
X131150000Y-65950000D01*
G37*
%TO.C,TP6*%
X174949999Y-64500000D02*
G75*
G02*
X173050001Y-64500000I-949999J0D01*
G01*
X173050001Y-64500000D02*
G75*
G02*
X174949999Y-64500000I949999J0D01*
G01*
%TO.C,R12*%
X166380001Y-75332379D02*
X166380001Y-75667621D01*
X165619999Y-75332379D02*
X165619999Y-75667621D01*
D14*
%TO.C,IC1*%
X170950000Y-82125000D02*
X168050000Y-82125000D01*
X168050000Y-82125000D02*
X168050000Y-82875000D01*
X170950000Y-82875000D02*
X170950000Y-82125000D01*
X168050000Y-82875000D02*
X170950000Y-82875000D01*
X171050000Y-84375000D02*
X171050000Y-83225000D01*
D12*
%TO.C,R16*%
X183332379Y-79619999D02*
X183667621Y-79619999D01*
X183332379Y-80380001D02*
X183667621Y-80380001D01*
%TO.C,C7*%
X153140000Y-65115835D02*
X153140000Y-64884165D01*
X153860000Y-65115835D02*
X153860000Y-64884165D01*
%TO.C,R1*%
X151619999Y-57234879D02*
X151619999Y-57570121D01*
X152380001Y-57234879D02*
X152380001Y-57570121D01*
%TO.C,R8*%
X145119999Y-70832379D02*
X145119999Y-71167621D01*
X145880001Y-70832379D02*
X145880001Y-71167621D01*
%TO.C,C1*%
X155640000Y-57548335D02*
X155640000Y-57316665D01*
X156360000Y-57548335D02*
X156360000Y-57316665D01*
%TO.C,R29*%
X145119999Y-63167621D02*
X145119999Y-62832379D01*
X145880001Y-63167621D02*
X145880001Y-62832379D01*
%TO.C,C33*%
X171384165Y-65640000D02*
X171615835Y-65640000D01*
X171384165Y-66360000D02*
X171615835Y-66360000D01*
%TO.C,R15*%
X180880001Y-77832379D02*
X180880001Y-78167621D01*
X180119999Y-77832379D02*
X180119999Y-78167621D01*
%TO.C,U5*%
X174590000Y-69440000D02*
X174590000Y-69490000D01*
X174590000Y-70610000D02*
X174590000Y-71390000D01*
X174590000Y-72510000D02*
X174590000Y-72560000D01*
X174590000Y-72560000D02*
X176410000Y-72560000D01*
X176410000Y-69440000D02*
X174590000Y-69440000D01*
X176410000Y-69490000D02*
X176410000Y-69440000D01*
X176410000Y-72560000D02*
X176410000Y-72510000D01*
X176950000Y-69490000D02*
X176710000Y-69160000D01*
X177190000Y-69160000D01*
X176950000Y-69490000D01*
G36*
X176950000Y-69490000D02*
G01*
X176710000Y-69160000D01*
X177190000Y-69160000D01*
X176950000Y-69490000D01*
G37*
%TO.C,R7*%
X144119999Y-74332379D02*
X144119999Y-74667621D01*
X144880001Y-74332379D02*
X144880001Y-74667621D01*
%TO.C,C17*%
X163860000Y-75384165D02*
X163860000Y-75615835D01*
X163140000Y-75384165D02*
X163140000Y-75615835D01*
%TO.C,R26*%
X166832379Y-72619999D02*
X167167621Y-72619999D01*
X166832379Y-73380001D02*
X167167621Y-73380001D01*
%TO.C,C19*%
X148140000Y-81115835D02*
X148140000Y-80884165D01*
X148860000Y-81115835D02*
X148860000Y-80884165D01*
%TO.C,TP4*%
X151949999Y-83500000D02*
G75*
G02*
X150050001Y-83500000I-949999J0D01*
G01*
X150050001Y-83500000D02*
G75*
G02*
X151949999Y-83500000I949999J0D01*
G01*
D15*
%TO.C,U2*%
X156000000Y-67750000D02*
X156555001Y-67750000D01*
X156000000Y-67805000D02*
X156000000Y-67750000D01*
X156000000Y-70250000D02*
X156000000Y-70195000D01*
X156000000Y-70250000D02*
X156555001Y-70250000D01*
X158444999Y-67750000D02*
X159000000Y-67750000D01*
X158444999Y-70250000D02*
X159000000Y-70250000D01*
X159000000Y-67805000D02*
X159000000Y-67750000D01*
X159000000Y-70250000D02*
X159000000Y-70195000D01*
D10*
X155575000Y-69900001D02*
G75*
G02*
X155425000Y-69900001I-75000J0D01*
G01*
X155425000Y-69900001D02*
G75*
G02*
X155575000Y-69900001I75000J0D01*
G01*
D12*
%TO.C,C6*%
X155140000Y-65115835D02*
X155140000Y-64884165D01*
X155860000Y-65115835D02*
X155860000Y-64884165D01*
%TO.C,C24*%
X171384165Y-70640000D02*
X171615835Y-70640000D01*
X171384165Y-71360000D02*
X171615835Y-71360000D01*
%TO.C,C18*%
X141115835Y-79640000D02*
X140884165Y-79640000D01*
X141115835Y-80360000D02*
X140884165Y-80360000D01*
%TO.C,R3*%
X145832379Y-66119999D02*
X146167621Y-66119999D01*
X145832379Y-66880001D02*
X146167621Y-66880001D01*
%TO.C,C8*%
X132115835Y-63140000D02*
X131884165Y-63140000D01*
X132115835Y-63860000D02*
X131884165Y-63860000D01*
%TO.C,C22*%
X159146267Y-64990000D02*
X158853733Y-64990000D01*
X159146267Y-66010000D02*
X158853733Y-66010000D01*
D16*
%TO.C,U6*%
X162537728Y-64734200D02*
X163531235Y-64734200D01*
X162537728Y-65727707D02*
X162537728Y-64734200D01*
X162537728Y-66377693D02*
X162537728Y-66165377D01*
X162537728Y-67027679D02*
X162537728Y-66815363D01*
X162537728Y-67677665D02*
X162537728Y-67465349D01*
X162537728Y-68327651D02*
X162537728Y-68115335D01*
X162537728Y-68977637D02*
X162537728Y-68765321D01*
X162537728Y-69627623D02*
X162537728Y-69415307D01*
X162537728Y-71058800D02*
X162537728Y-70065293D01*
X163531235Y-71058800D02*
X162537728Y-71058800D01*
X163968905Y-64734200D02*
X164181221Y-64734200D01*
X164181221Y-71058800D02*
X163968905Y-71058800D01*
X164618891Y-64734200D02*
X164831207Y-64734200D01*
X164831207Y-71058800D02*
X164618891Y-71058800D01*
X165268877Y-64734200D02*
X165481193Y-64734200D01*
X165481193Y-71058800D02*
X165268877Y-71058800D01*
X165918863Y-64734200D02*
X166131179Y-64734200D01*
X166131179Y-71058800D02*
X165918863Y-71058800D01*
X166568849Y-64734200D02*
X166781165Y-64734200D01*
X166781165Y-71058800D02*
X166568849Y-71058800D01*
X167218835Y-64734200D02*
X167431151Y-64734200D01*
X167431151Y-71058800D02*
X167218835Y-71058800D01*
X167868821Y-64734200D02*
X168862328Y-64734200D01*
X168862328Y-64734200D02*
X168862328Y-65727707D01*
X168862328Y-66165377D02*
X168862328Y-66377693D01*
X168862328Y-66815363D02*
X168862328Y-67027679D01*
X168862328Y-67465349D02*
X168862328Y-67677665D01*
X168862328Y-68115335D02*
X168862328Y-68327651D01*
X168862328Y-68765321D02*
X168862328Y-68977637D01*
X168862328Y-69415307D02*
X168862328Y-69627623D01*
X168862328Y-70065293D02*
X168862328Y-71058800D01*
X168862328Y-71058800D02*
X167868821Y-71058800D01*
D11*
G36*
X162613928Y-66787028D02*
G01*
X162359928Y-66787028D01*
X162359928Y-66406028D01*
X162613928Y-66406028D01*
X162613928Y-66787028D01*
G37*
G36*
X166540514Y-71236600D02*
G01*
X166159514Y-71236600D01*
X166159514Y-70982600D01*
X166540514Y-70982600D01*
X166540514Y-71236600D01*
G37*
D12*
%TO.C,R27*%
X171667621Y-63120000D02*
X171332379Y-63120000D01*
X171667621Y-63880000D02*
X171332379Y-63880000D01*
%TO.C,C10*%
X173140000Y-83615835D02*
X173140000Y-83384165D01*
X173860000Y-83615835D02*
X173860000Y-83384165D01*
%TO.C,D1*%
X147210000Y-84000000D02*
X143350000Y-84000000D01*
X147210000Y-84000000D02*
X147210000Y-86000000D01*
X147210000Y-86000000D02*
X143350000Y-86000000D01*
%TO.C,C34*%
X171384165Y-68140000D02*
X171615835Y-68140000D01*
X171384165Y-68860000D02*
X171615835Y-68860000D01*
%TO.C,C9*%
X132283767Y-60490000D02*
X131991233Y-60490000D01*
X132283767Y-61510000D02*
X131991233Y-61510000D01*
%TO.C,R30*%
X141619999Y-74832379D02*
X141619999Y-75167621D01*
X142380001Y-74832379D02*
X142380001Y-75167621D01*
%TO.C,L1*%
X163050000Y-85050000D02*
X157950000Y-85050000D01*
X163050000Y-79950000D02*
X157950000Y-79950000D01*
%TO.C,C14*%
X165860000Y-82384165D02*
X165860000Y-82615835D01*
X165140000Y-82384165D02*
X165140000Y-82615835D01*
%TO.C,TP1*%
X180949999Y-60000000D02*
G75*
G02*
X179050001Y-60000000I-949999J0D01*
G01*
X179050001Y-60000000D02*
G75*
G02*
X180949999Y-60000000I949999J0D01*
G01*
%TO.C,C31*%
X140115835Y-67140000D02*
X139884165Y-67140000D01*
X140115835Y-67860000D02*
X139884165Y-67860000D01*
%TO.C,R9*%
X175832379Y-80119999D02*
X176167621Y-80119999D01*
X175832379Y-80880001D02*
X176167621Y-80880001D01*
%TO.C,C30*%
X142640000Y-63115835D02*
X142640000Y-62884165D01*
X143360000Y-63115835D02*
X143360000Y-62884165D01*
%TO.C,R4*%
X146619999Y-74332379D02*
X146619999Y-74667621D01*
X147380001Y-74332379D02*
X147380001Y-74667621D01*
%TO.C,R11*%
X168380001Y-78667621D02*
X168380001Y-78332379D01*
X167619999Y-78667621D02*
X167619999Y-78332379D01*
%TO.C,C23*%
X175140000Y-83548335D02*
X175140000Y-83316665D01*
X175860000Y-83548335D02*
X175860000Y-83316665D01*
%TO.C,R13*%
X171234879Y-78119999D02*
X171570121Y-78119999D01*
X171234879Y-78880001D02*
X171570121Y-78880001D01*
%TD*%
M02*
