%TF.GenerationSoftware,KiCad,Pcbnew,9.0.5*%
%TF.CreationDate,2026-09-27T21:22:05+02:00*%
%TF.ProjectId,Dron,44726f6e-2e6b-4696-9361-645f70636258,rev?*%
%TF.SameCoordinates,Original*%
%TF.FileFunction,Paste,Bot*%
%TF.FilePolarity,Positive*%
%FSLAX46Y46*%
G04 Gerber Fmt 4.6, Leading zero omitted, Abs format (unit mm)*
G04 Created by KiCad (PCBNEW 9.0.5) date 2026-09-27 21:22:05*
%MOMM*%
%LPD*%
G01*
G04 APERTURE LIST*
G04 Aperture macros list*
%AMRoundRect*
0 Rectangle with rounded corners*
0 $1 Rounding radius*
0 $2 $3 $4 $5 $6 $7 $8 $9 X,Y pos of 4 corners*
0 Add a 4 corners polygon primitive as box body*
4,1,4,$2,$3,$4,$5,$6,$7,$8,$9,$2,$3,0*
0 Add four circle primitives for the rounded corners*
1,1,$1+$1,$2,$3*
1,1,$1+$1,$4,$5*
1,1,$1+$1,$6,$7*
1,1,$1+$1,$8,$9*
0 Add four rect primitives between the rounded corners*
20,1,$1+$1,$2,$3,$4,$5,0*
20,1,$1+$1,$4,$5,$6,$7,0*
20,1,$1+$1,$6,$7,$8,$9,0*
20,1,$1+$1,$8,$9,$2,$3,0*%
G04 Aperture macros list end*
%ADD10RoundRect,0.237500X0.237500X-0.300000X0.237500X0.300000X-0.237500X0.300000X-0.237500X-0.300000X0*%
%ADD11RoundRect,0.237500X0.300000X0.237500X-0.300000X0.237500X-0.300000X-0.237500X0.300000X-0.237500X0*%
%ADD12RoundRect,0.250000X0.475000X-0.337500X0.475000X0.337500X-0.475000X0.337500X-0.475000X-0.337500X0*%
%ADD13RoundRect,0.125000X0.125000X-0.125000X0.125000X0.125000X-0.125000X0.125000X-0.125000X-0.125000X0*%
%ADD14RoundRect,0.160000X-0.197500X-0.160000X0.197500X-0.160000X0.197500X0.160000X-0.197500X0.160000X0*%
%ADD15R,0.900000X1.000000*%
%ADD16R,1.700000X0.550000*%
%ADD17R,0.450000X0.750000*%
%ADD18R,1.740000X1.350000*%
%ADD19R,1.200000X0.600000*%
%ADD20RoundRect,0.155000X0.155000X-0.212500X0.155000X0.212500X-0.155000X0.212500X-0.155000X-0.212500X0*%
%ADD21RoundRect,0.155000X-0.212500X-0.155000X0.212500X-0.155000X0.212500X0.155000X-0.212500X0.155000X0*%
%ADD22RoundRect,0.160000X0.197500X0.160000X-0.197500X0.160000X-0.197500X-0.160000X0.197500X-0.160000X0*%
%ADD23RoundRect,0.160000X-0.160000X0.197500X-0.160000X-0.197500X0.160000X-0.197500X0.160000X0.197500X0*%
%ADD24RoundRect,0.237500X-0.300000X-0.237500X0.300000X-0.237500X0.300000X0.237500X-0.300000X0.237500X0*%
%ADD25RoundRect,0.062500X-0.062500X0.127500X-0.062500X-0.127500X0.062500X-0.127500X0.062500X0.127500X0*%
%ADD26RoundRect,0.125000X-0.125000X0.125000X-0.125000X-0.125000X0.125000X-0.125000X0.125000X0.125000X0*%
%ADD27R,0.450000X1.150000*%
%ADD28RoundRect,0.160000X0.160000X-0.197500X0.160000X0.197500X-0.160000X0.197500X-0.160000X-0.197500X0*%
%ADD29RoundRect,0.150000X0.512500X0.150000X-0.512500X0.150000X-0.512500X-0.150000X0.512500X-0.150000X0*%
%ADD30RoundRect,0.155000X-0.155000X0.212500X-0.155000X-0.212500X0.155000X-0.212500X0.155000X0.212500X0*%
%ADD31R,0.475000X0.250000*%
%ADD32R,0.250000X0.475000*%
%ADD33RoundRect,0.155000X0.212500X0.155000X-0.212500X0.155000X-0.212500X-0.155000X0.212500X-0.155000X0*%
%ADD34R,0.457200X0.355600*%
%ADD35R,0.355600X0.457200*%
%ADD36R,2.997200X2.489200*%
%ADD37RoundRect,0.250000X0.300000X0.300000X-0.300000X0.300000X-0.300000X-0.300000X0.300000X-0.300000X0*%
%ADD38R,1.500000X4.000000*%
G04 APERTURE END LIST*
D10*
%TO.C,C32*%
X168500000Y-60862500D03*
X168500000Y-59137500D03*
%TD*%
D11*
%TO.C,C27*%
X169362500Y-63000000D03*
X167637500Y-63000000D03*
%TD*%
%TO.C,C16*%
X154137500Y-83500000D03*
X155862500Y-83500000D03*
%TD*%
%TO.C,C15*%
X155862500Y-80500000D03*
X154137500Y-80500000D03*
%TD*%
D12*
%TO.C,C11*%
X178000000Y-84537500D03*
X178000000Y-82462500D03*
%TD*%
D13*
%TO.C,D3*%
X165500000Y-80099999D03*
X165500000Y-77900001D03*
%TD*%
D14*
%TO.C,R10*%
X180597500Y-81000000D03*
X179402500Y-81000000D03*
%TD*%
D15*
%TO.C,SW1*%
X156049999Y-60200000D03*
X151950001Y-60200000D03*
X156049999Y-61800000D03*
X151950001Y-61800000D03*
D16*
X154000000Y-59575000D03*
%TD*%
D14*
%TO.C,R14*%
X170902500Y-76000000D03*
X172097500Y-76000000D03*
%TD*%
D17*
%TO.C,IC3*%
X139200000Y-62750000D03*
X140000000Y-62750001D03*
X140800000Y-62750000D03*
X140800000Y-65250000D03*
X140000000Y-65249999D03*
X139200000Y-65250000D03*
D18*
X140000000Y-64000000D03*
%TD*%
D19*
%TO.C,IC2*%
X146000000Y-80100000D03*
X145999999Y-81050000D03*
X146000000Y-82000000D03*
X143500000Y-82000000D03*
X143500000Y-80100000D03*
%TD*%
D20*
%TO.C,C28*%
X177000000Y-68067500D03*
X177000000Y-66932500D03*
%TD*%
D21*
%TO.C,C29*%
X173932500Y-67000000D03*
X175067500Y-67000000D03*
%TD*%
D22*
%TO.C,R17*%
X140597500Y-84000000D03*
X139402500Y-84000000D03*
%TD*%
D23*
%TO.C,R28*%
X139500000Y-74402500D03*
X139500000Y-75597500D03*
%TD*%
D21*
%TO.C,C20*%
X139432500Y-82000000D03*
X140567500Y-82000000D03*
%TD*%
D20*
%TO.C,C26*%
X171000000Y-60567500D03*
X171000000Y-59432500D03*
%TD*%
%TO.C,C21*%
X137000000Y-81067500D03*
X137000000Y-79932500D03*
%TD*%
%TO.C,C12*%
X173000000Y-81067500D03*
X173000000Y-79932500D03*
%TD*%
%TO.C,C13*%
X169000000Y-76567500D03*
X169000000Y-75432500D03*
%TD*%
D24*
%TO.C,C25*%
X170637499Y-73500000D03*
X172362501Y-73500000D03*
%TD*%
D25*
%TO.C,U3*%
X131825000Y-66760000D03*
D26*
X131700000Y-66900000D03*
X131700000Y-67700000D03*
X131700001Y-68500000D03*
X131700000Y-69300000D03*
X131700000Y-70100000D03*
X132500000Y-70100000D03*
X133300000Y-70100000D03*
X133300000Y-69300000D03*
X133299999Y-68500000D03*
X133300000Y-67700000D03*
X133300000Y-66900000D03*
X132500000Y-66900000D03*
%TD*%
D23*
%TO.C,R12*%
X166000000Y-74902500D03*
X166000000Y-76097500D03*
%TD*%
D27*
%TO.C,IC1*%
X170475000Y-83800000D03*
X169825000Y-83800000D03*
X169175000Y-83800000D03*
X168525000Y-83800000D03*
X168525000Y-81200000D03*
X169175000Y-81200000D03*
X169825000Y-81200000D03*
X170475000Y-81200000D03*
%TD*%
D14*
%TO.C,R16*%
X182902500Y-80000000D03*
X184097500Y-80000000D03*
%TD*%
D20*
%TO.C,C7*%
X153500000Y-65567500D03*
X153500000Y-64432500D03*
%TD*%
D23*
%TO.C,R1*%
X152000000Y-56805000D03*
X152000000Y-58000000D03*
%TD*%
%TO.C,R8*%
X145500000Y-70402500D03*
X145500000Y-71597500D03*
%TD*%
D20*
%TO.C,C1*%
X156000000Y-58000000D03*
X156000000Y-56865000D03*
%TD*%
D28*
%TO.C,R29*%
X145500000Y-63597500D03*
X145500000Y-62402500D03*
%TD*%
D21*
%TO.C,C33*%
X170932500Y-66000000D03*
X172067500Y-66000000D03*
%TD*%
D23*
%TO.C,R15*%
X180500000Y-77402500D03*
X180500000Y-78597500D03*
%TD*%
D29*
%TO.C,U5*%
X176637500Y-70050001D03*
X176637500Y-71000000D03*
X176637500Y-71949999D03*
X174362500Y-71949999D03*
X174362500Y-70050001D03*
%TD*%
D23*
%TO.C,R7*%
X144500000Y-73902500D03*
X144500000Y-75097500D03*
%TD*%
D30*
%TO.C,C17*%
X163500000Y-74932500D03*
X163500000Y-76067500D03*
%TD*%
D14*
%TO.C,R26*%
X166402500Y-73000000D03*
X167597500Y-73000000D03*
%TD*%
D20*
%TO.C,C19*%
X148500000Y-81567500D03*
X148500000Y-80432500D03*
%TD*%
D31*
%TO.C,U2*%
X156337499Y-69750000D03*
X156337500Y-69250000D03*
X156337500Y-68750000D03*
X156337499Y-68250000D03*
D32*
X157000001Y-68087500D03*
X157500000Y-68087500D03*
X157999999Y-68087500D03*
D31*
X158662501Y-68250000D03*
X158662500Y-68750000D03*
X158662500Y-69250000D03*
X158662501Y-69750000D03*
D32*
X157999999Y-69912500D03*
X157500000Y-69912500D03*
X157000001Y-69912500D03*
%TD*%
D20*
%TO.C,C6*%
X155500000Y-65567500D03*
X155500000Y-64432500D03*
%TD*%
D21*
%TO.C,C24*%
X170932500Y-71000000D03*
X172067500Y-71000000D03*
%TD*%
D33*
%TO.C,C18*%
X141567500Y-80000000D03*
X140432500Y-80000000D03*
%TD*%
D14*
%TO.C,R3*%
X145402500Y-66500000D03*
X146597500Y-66500000D03*
%TD*%
D33*
%TO.C,C8*%
X132567500Y-63500000D03*
X131432500Y-63500000D03*
%TD*%
D11*
%TO.C,C22*%
X159862501Y-65500000D03*
X158137499Y-65500000D03*
%TD*%
D34*
%TO.C,U6*%
X168303528Y-65946542D03*
X168303528Y-66596528D03*
X168303528Y-67246514D03*
X168303528Y-67896500D03*
X168303528Y-68546486D03*
X168303528Y-69196472D03*
X168303528Y-69846458D03*
D35*
X167649986Y-70500000D03*
X167000000Y-70500000D03*
X166350014Y-70500000D03*
X165700028Y-70500000D03*
X165050042Y-70500000D03*
X164400056Y-70500000D03*
X163750070Y-70500000D03*
D34*
X163096528Y-69846458D03*
X163096528Y-69196472D03*
X163096528Y-68546486D03*
X163096528Y-67896500D03*
X163096528Y-67246514D03*
X163096528Y-66596528D03*
X163096528Y-65946542D03*
D35*
X163750070Y-65293000D03*
X164400056Y-65293000D03*
X165050042Y-65293000D03*
X165700028Y-65293000D03*
X166350014Y-65293000D03*
X167000000Y-65293000D03*
X167649986Y-65293000D03*
D36*
X165700028Y-67896500D03*
%TD*%
D22*
%TO.C,R27*%
X172097500Y-63500000D03*
X170902500Y-63500000D03*
%TD*%
D20*
%TO.C,C10*%
X173500000Y-84067500D03*
X173500000Y-82932500D03*
%TD*%
D37*
%TO.C,D1*%
X146399999Y-85000000D03*
X143600001Y-85000000D03*
%TD*%
D21*
%TO.C,C34*%
X170932500Y-68500000D03*
X172067500Y-68500000D03*
%TD*%
D11*
%TO.C,C9*%
X133000000Y-61000000D03*
X131275000Y-61000000D03*
%TD*%
D23*
%TO.C,R30*%
X142000000Y-74402500D03*
X142000000Y-75597500D03*
%TD*%
D38*
%TO.C,L1*%
X162300000Y-82500000D03*
X158700000Y-82500000D03*
%TD*%
D30*
%TO.C,C14*%
X165500000Y-81932500D03*
X165500000Y-83067500D03*
%TD*%
D33*
%TO.C,C31*%
X140567500Y-67500000D03*
X139432500Y-67500000D03*
%TD*%
D14*
%TO.C,R9*%
X175402500Y-80500000D03*
X176597500Y-80500000D03*
%TD*%
D20*
%TO.C,C30*%
X143000000Y-63567500D03*
X143000000Y-62432500D03*
%TD*%
D23*
%TO.C,R4*%
X147000000Y-73902500D03*
X147000000Y-75097500D03*
%TD*%
D28*
%TO.C,R11*%
X168000000Y-79097500D03*
X168000000Y-77902500D03*
%TD*%
D20*
%TO.C,C23*%
X175500000Y-84000000D03*
X175500000Y-82865000D03*
%TD*%
D14*
%TO.C,R13*%
X170805000Y-78500000D03*
X172000000Y-78500000D03*
%TD*%
M02*
